SplineFontDB: 3.0
FontName: Gargi
FullName: Gargi
FamilyName: Gargi
Weight: Book
Copyright: Gargi 2.0 is released under GPL by Monika Shah(monikapatira@gmail.com) and Sonali Sonania(sonalisonania@gmail.com)-India.\nGargi font is maintained by Monika Shah, Sonali Sonania with support from Prof.Jitendra Shah(jituviju@gmail.com),Mumbai India.\n\nConstant guidance from Mr. Steve white for the release of version 2.0.\n\n\nCore Devanagari Glyphs `Cyberscape Multimedia ltd,Bangalore 560 070, India.\nThe matching English glyphs: Copyright (URW)++,Copyright 1999 by (URW)++ Design & Development; Cyrillic glyphs added by Valek Filippov (C) 2001-2002. \nOpen Type rules and extra glyphsets (in initial version) made by the Localization Team HBCSE,TIFR, Mumbai 400 088, INDIA.\n\nContact: monikapatira@gmail.com,sonalisonania@gmail.com,jituviju@gmail.com
Version: 2.0
ItalicAngle: 0
UnderlinePosition: -133
UnderlineWidth: 20
Ascent: 819
Descent: 205
LayerCount: 2
Layer: 0 1 "Back"  1
Layer: 1 1 "Fore"  0
XUID: [1021 718 407528245 11694640]
FSType: 0
OS2Version: 1
OS2_WeightWidthSlopeOnly: 0
OS2_UseTypoMetrics: 1
CreationTime: 1326822765
ModificationTime: 1351233744
PfmFamily: 17
TTFWeight: 400
TTFWidth: 5
LineGap: 119
VLineGap: 0
Panose: 2 0 5 6 0 0 0 0 0 0
OS2TypoAscent: 819
OS2TypoAOffset: 1
OS2TypoDescent: -205
OS2TypoDOffset: 1
OS2TypoLinegap: 0
OS2WinAscent: -78
OS2WinAOffset: 1
OS2WinDescent: -174
OS2WinDOffset: 1
HheadAscent: 0
HheadAOffset: 1
HheadDescent: 0
HheadDOffset: 1
OS2SubXSize: 665
OS2SubYSize: 716
OS2SubXOff: 0
OS2SubYOff: 143
OS2SupXSize: 665
OS2SupYSize: 716
OS2SupXOff: 0
OS2SupYOff: 491
OS2StrikeYSize: 51
OS2StrikeYPos: 265
OS2Vendor: 'PfEd'
OS2CodePages: 00000000.00000000
OS2UnicodeRanges: 00008001.00000000.00000000.00000000
Lookup: 4 0 0 "'akhn' Akhand in Devanagari lookup 0"  {"'akhn' Akhand in Devanagari lookup 0 subtable"  } ['akhn' ('deva' <'dflt' > ) ]

StartChar: .notdef
Encoding: 256 -1 0
Width: 448
Flags: W
LayerCount: 2
Fore
SplineSet
80 36 m 1,0,-1
 367 36 l 1,1,-1
 367 680 l 1,2,-1
 80 680 l 1,3,-1
 80 36 l 1,0,-1
45 0 m 1,4,-1
 45 716 l 1,5,-1
 403 716 l 1,6,-1
 403 0 l 1,7,-1
 45 0 l 1,4,-1
EndSplineSet
Validated: 1
EndChar

StartChar: exclam
Encoding: 261 33 5
Width: 542
GlyphClass: 2
Flags: W
LayerCount: 2
Fore
SplineSet
216 108 m 1,0,-1
 216 0 l 1,1,-1
 129 0 l 1,2,-1
 129 108 l 1,3,-1
 216 108 l 1,0,-1
216 758 m 1,4,-1
 216 407 l 1,5,-1
 216 175 l 1,6,-1
 130 175 l 1,7,-1
 130 407 l 1,8,-1
 130 758 l 1,9,-1
 216 758 l 1,4,-1
EndSplineSet
Validated: 1
EndChar

StartChar: quotedbl
Encoding: 262 34 6
Width: 542
GlyphClass: 2
Flags: W
LayerCount: 2
Fore
SplineSet
220 737 m 1,0,-1
 317 737 l 1,1,-1
 317 622 l 1,2,-1
 289 483 l 1,3,-1
 249 483 l 1,4,-1
 220 622 l 1,5,-1
 220 737 l 1,0,-1
54 737 m 1,6,-1
 151 737 l 1,7,-1
 151 622 l 1,8,-1
 123 483 l 1,9,-1
 82 483 l 1,10,-1
 54 622 l 1,11,-1
 54 737 l 1,6,-1
EndSplineSet
Validated: 1
EndChar

StartChar: numbersign
Encoding: 263 35 7
Width: 542
GlyphClass: 2
Flags: W
LayerCount: 2
Fore
SplineSet
374 450 m 1,0,-1
 245 450 l 1,1,-1
 212 269 l 1,2,-1
 342 269 l 1,3,-1
 374 450 l 1,0,-1
504 725 m 1,4,-1
 467 521 l 1,5,-1
 564 521 l 1,6,-1
 564 450 l 1,7,-1
 453 450 l 1,8,-1
 421 269 l 1,9,-1
 530 269 l 1,10,-1
 530 199 l 1,11,-1
 409 199 l 1,12,-1
 368 -21 l 1,13,-1
 289 -21 l 1,14,-1
 329 199 l 1,15,-1
 200 199 l 1,16,-1
 159 -21 l 1,17,-1
 80 -21 l 1,18,-1
 120 199 l 1,19,-1
 15 199 l 1,20,-1
 15 269 l 1,21,-1
 133 269 l 1,22,-1
 165 450 l 1,23,-1
 53 450 l 1,24,-1
 53 521 l 1,25,-1
 179 521 l 1,26,-1
 216 725 l 1,27,-1
 295 725 l 1,28,-1
 258 521 l 1,29,-1
 388 521 l 1,30,-1
 424 725 l 1,31,-1
 504 725 l 1,4,-1
EndSplineSet
Validated: 1
EndChar

StartChar: dollar
Encoding: 264 36 8
Width: 542
GlyphClass: 2
Flags: W
LayerCount: 2
Fore
SplineSet
314 321 m 1,0,-1
 314 48 l 1,1,2
 378 55 378 55 410 86 c 0,3,4
 453 128 453 128 453 190 c 0,5,6
 453 254 453 254 405 285 c 0,7,8
 374 304 374 304 314 321 c 1,0,-1
253 421 m 1,9,-1
 253 671 l 1,10,11
 150 657 150 657 135 578 c 0,12,13
 132 562 132 562 132 545 c 0,14,15
 132 451 132 451 253 421 c 1,9,-1
253 801 m 1,16,-1
 314 801 l 1,17,-1
 314 745 l 1,18,19
 445 745 445 745 494 639 c 0,20,21
 516 591 516 591 516 540 c 1,22,-1
 434 540 l 1,23,24
 434 620 434 620 373 655 c 0,25,26
 345 671 345 671 314 671 c 1,27,-1
 314 413 l 1,28,29
 418 381 418 381 450 363 c 0,30,31
 539 313 539 313 539 203 c 0,32,33
 539 95 539 95 468 31 c 0,34,35
 461 25 461 25 443 12 c 0,36,37
 392 -24 392 -24 314 -24 c 1,38,-1
 314 -131 l 1,39,-1
 253 -131 l 1,40,-1
 253 -24 l 1,41,42
 93 -24 93 -24 48 108 c 0,43,44
 34 149 34 149 34 193 c 2,45,-1
 34 199 l 1,46,-1
 34 216 l 1,47,-1
 116 216 l 1,48,49
 124 139 124 139 138 114 c 0,50,51
 140 111 140 111 142 107 c 0,52,53
 179 57 179 57 253 48 c 1,54,-1
 253 331 l 1,55,56
 156 360 156 360 122 385 c 0,57,58
 48 438 48 438 48 537 c 0,59,60
 48 688 48 688 193 732 c 0,61,62
 220 740 220 740 253 745 c 1,63,-1
 253 801 l 1,16,-1
EndSplineSet
Validated: 1
EndChar

StartChar: percent
Encoding: 265 37 9
Width: 542
GlyphClass: 2
Flags: W
LayerCount: 2
Fore
SplineSet
716 262 m 0,0,1
 659 262 659 262 628 215 c 0,2,3
 610 189 610 189 610 158 c 0,4,5
 610 101 610 101 659 70 c 0,6,7
 685 53 685 53 717 53 c 0,8,9
 773 53 773 53 804 100 c 0,10,11
 822 126 822 126 822 156 c 0,12,13
 822 215 822 215 772 246 c 0,14,15
 747 262 747 262 716 262 c 0,0,1
716 335 m 0,16,17
 804 335 804 335 857 266 c 0,18,19
 893 218 893 218 893 156 c 0,20,21
 893 74 893 74 828 21 c 0,22,23
 779 -20 779 -20 717 -20 c 0,24,25
 632 -20 632 -20 578 46 c 1,26,27
 539 96 539 96 539 158 c 0,28,29
 539 242 539 242 605 295 c 0,30,31
 654 335 654 335 716 335 c 0,16,17
633 737 m 1,32,-1
 702 737 l 1,33,-1
 291 -21 l 1,34,-1
 223 -21 l 1,35,-1
 633 737 l 1,32,-1
207 640 m 0,36,37
 151 640 151 640 120 592 c 1,38,39
 102 566 102 566 102 535 c 0,40,41
 102 479 102 479 149 447 c 1,42,43
 176 430 176 430 208 430 c 0,44,45
 264 430 264 430 295 476 c 0,46,47
 313 502 313 502 313 534 c 0,48,49
 313 593 313 593 263 624 c 0,50,51
 238 640 238 640 207 640 c 0,36,37
207 712 m 0,52,53
 294 712 294 712 347 644 c 0,54,55
 385 596 385 596 385 532 c 0,56,57
 385 450 385 450 319 397 c 0,58,59
 270 357 270 357 208 357 c 0,60,61
 124 357 124 357 70 422 c 1,62,63
 30 472 30 472 30 535 c 0,64,65
 30 619 30 619 96 673 c 0,66,67
 145 712 145 712 207 712 c 0,52,53
EndSplineSet
Validated: 1
EndChar

StartChar: ampersand
Encoding: 266 38 10
Width: 542
GlyphClass: 2
Flags: W
LayerCount: 2
Fore
SplineSet
435 142 m 1,0,-1
 268 350 l 1,1,2
 171 288 171 288 150 236 c 0,3,4
 141 215 141 215 141 190 c 0,5,6
 141 123 141 123 198 83 c 0,7,8
 234 57 234 57 278 57 c 0,9,10
 347 57 347 57 418 125 c 1,11,-1
 435 142 l 1,0,-1
296 448 m 1,12,13
 381 501 381 501 396 540 c 1,14,15
 404 555 404 555 404 576 c 0,16,17
 404 630 404 630 357 654 c 0,18,19
 337 665 337 665 313 665 c 0,20,21
 251 665 251 665 230 613 c 0,22,23
 224 596 224 596 224 575 c 0,24,25
 224 541 224 541 250 504 c 1,26,27
 264 486 264 486 296 448 c 1,12,13
513 347 m 1,28,-1
 596 347 l 1,29,30
 596 250 596 250 536 157 c 1,31,-1
 662 0 l 1,32,-1
 549 0 l 1,33,-1
 485 81 l 1,34,35
 433 31 433 31 404 14 c 1,36,37
 345 -24 345 -24 267 -24 c 0,38,39
 147 -24 147 -24 88 61 c 1,40,41
 54 112 54 112 54 183 c 0,42,43
 54 267 54 267 108 322 c 0,44,45
 146 360 146 360 223 405 c 1,46,47
 148 495 148 495 138 545 c 0,48,49
 136 559 136 559 138 574 c 0,50,51
 150 663 150 663 206 703 c 0,52,53
 254 737 254 737 316 737 c 0,54,55
 410 737 410 737 458 669 c 0,56,57
 486 628 486 628 486 574 c 0,58,59
 486 502 486 502 428 451 c 0,60,61
 398 424 398 424 342 393 c 1,62,-1
 480 224 l 1,63,64
 513 280 513 280 513 342 c 2,65,-1
 513 347 l 1,28,-1
EndSplineSet
Validated: 1
EndChar

StartChar: quotesingle
Encoding: 267 39 11
Width: 542
GlyphClass: 2
Flags: W
LayerCount: 2
Fore
SplineSet
67 758 m 1,0,-1
 163 758 l 1,1,-1
 163 653 l 2,2,3
 163 533 163 533 79 517 c 1,4,-1
 67 517 l 1,5,-1
 67 556 l 1,6,7
 116 563 116 563 116 631 c 2,8,-1
 116 650 l 1,9,-1
 67 650 l 1,10,-1
 67 758 l 1,0,-1
EndSplineSet
Validated: 1
EndChar

StartChar: parenleft
Encoding: 268 40 12
Width: 542
GlyphClass: 2
Flags: W
LayerCount: 2
Fore
SplineSet
245 758 m 1,0,-1
 303 758 l 1,1,2
 161 567 161 567 161 312 c 0,3,4
 161 290 161 290 160 269 c 0,5,6
 159 255 159 255 159 241 c 0,7,8
 159 47 159 47 287 -194 c 0,9,10
 295 -210 295 -210 303 -220 c 1,11,-1
 245 -220 l 1,12,13
 128 -67 128 -67 89 133 c 0,14,15
 76 204 76 204 76 269 c 0,16,17
 76 456 76 456 173 642 c 0,18,19
 205 705 205 705 245 758 c 1,0,-1
EndSplineSet
Validated: 1
EndChar

StartChar: parenright
Encoding: 269 41 13
Width: 542
GlyphClass: 2
Flags: W
LayerCount: 2
Fore
SplineSet
97 -220 m 1,0,-1
 40 -220 l 1,1,2
 182 -11 182 -11 182 226 c 0,3,4
 182 237 182 237 182 247 c 0,5,6
 182 258 182 258 182 268 c 0,7,8
 182 492 182 492 55 732 c 0,9,10
 46 749 46 749 40 758 c 1,11,-1
 97 758 l 1,12,13
 214 604 214 604 253 405 c 0,14,15
 266 334 266 334 266 268 c 0,16,17
 266 82 266 82 170 -104 c 0,18,19
 137 -167 137 -167 97 -220 c 1,0,-1
EndSplineSet
Validated: 1
EndChar

StartChar: asterisk
Encoding: 270 42 14
Width: 542
GlyphClass: 2
Flags: W
LayerCount: 2
Fore
SplineSet
166 758 m 1,0,-1
 232 758 l 1,1,-1
 232 642 l 1,2,-1
 337 681 l 1,3,-1
 357 620 l 1,4,-1
 244 589 l 1,5,-1
 317 496 l 1,6,-1
 264 459 l 1,7,-1
 200 555 l 1,8,-1
 134 459 l 1,9,-1
 82 496 l 1,10,-1
 154 589 l 1,11,-1
 42 620 l 1,12,-1
 61 681 l 1,13,-1
 172 642 l 1,14,-1
 166 758 l 1,0,-1
EndSplineSet
Validated: 1
EndChar

StartChar: plus
Encoding: 271 43 15
Width: 542
GlyphClass: 2
Flags: W
LayerCount: 2
Fore
SplineSet
555 278 m 1,0,-1
 555 205 l 1,1,-1
 340 205 l 1,2,-1
 340 -10 l 1,3,-1
 267 -10 l 1,4,-1
 267 205 l 1,5,-1
 52 205 l 1,6,-1
 52 278 l 1,7,-1
 267 278 l 1,8,-1
 267 493 l 1,9,-1
 340 493 l 1,10,-1
 340 278 l 1,11,-1
 555 278 l 1,0,-1
EndSplineSet
Validated: 1
EndChar

StartChar: comma
Encoding: 272 44 16
Width: 310
GlyphClass: 2
Flags: W
LayerCount: 2
Fore
SplineSet
30 108 m 1,0,-1
 140 108 l 1,1,-1
 140 -17 l 2,2,3
 140 -153 140 -153 30 -153 c 1,4,-1
 30 -113 l 1,5,6
 75 -113 75 -113 86 -79 c 0,7,8
 93 -57 93 -57 93 -19 c 2,9,-1
 93 0 l 1,10,-1
 30 0 l 1,11,-1
 30 108 l 1,0,-1
EndSplineSet
Validated: 1
EndChar

StartChar: hyphen
Encoding: 273 45 17
Width: 542
GlyphClass: 2
Flags: W
LayerCount: 2
Fore
SplineSet
295 324 m 1,0,-1
 295 250 l 1,1,-1
 48 250 l 1,2,-1
 48 324 l 1,3,-1
 295 324 l 1,0,-1
EndSplineSet
Validated: 1
EndChar

StartChar: period
Encoding: 274 46 18
Width: 542
GlyphClass: 2
Flags: W
LayerCount: 2
Fore
SplineSet
199 108 m 1,0,-1
 199 0 l 1,1,-1
 90 0 l 1,2,-1
 90 108 l 1,3,-1
 199 108 l 1,0,-1
EndSplineSet
Validated: 1
EndChar

StartChar: slash
Encoding: 275 47 19
Width: 542
GlyphClass: 2
Flags: W
LayerCount: 2
Fore
SplineSet
238 758 m 1,0,-1
 295 758 l 1,1,-1
 49 -21 l 1,2,-1
 -8 -21 l 1,3,-1
 238 758 l 1,0,-1
EndSplineSet
Validated: 1
EndChar

StartChar: zero
Encoding: 276 48 20
Width: 562
GlyphClass: 2
Flags: W
LayerCount: 2
Fore
SplineSet
281 681 m 132,-1,1
 133 681 133 681 133 381 c 4,2,3
 133 77 133 77 279 77 c 4,4,5
 402 77 402 77 423 277 c 4,6,7
 429 325 429 325 429 384 c 4,8,0
 429 681 429 681 281 681 c 132,-1,1
281 762 m 6,9,10
 388 762 388 762 451 681 c 5,11,12
 522 583 522 583 522 375 c 4,13,14
 522 94 522 94 379 22 c 5,15,16
 335 1 335 1 281 1 c 4,17,18
 98 1 98 1 53 226 c 4,19,20
 40 294 40 294 40 382 c 4,21,22
 40 585 40 585 111 681 c 5,23,24
 168 762 168 762 266 762 c 6,25,-1
 281 762 l 6,9,10
EndSplineSet
Validated: 1
EndChar

StartChar: one
Encoding: 277 49 21
Width: 375
GlyphClass: 2
Flags: W
LayerCount: 2
Fore
SplineSet
233 525 m 1,0,-1
 70 525 l 1,1,-1
 70 591 l 1,2,3
 176 604 176 604 207 628 c 1,4,5
 239 651 239 651 260 725 c 1,6,-1
 265 737 l 1,7,-1
 325 737 l 1,8,-1
 325 0 l 1,9,-1
 233 0 l 1,10,-1
 233 525 l 1,0,-1
EndSplineSet
Validated: 1
EndChar

StartChar: two
Encoding: 278 50 22
Width: 636
GlyphClass: 2
Flags: W
LayerCount: 2
Fore
SplineSet
561 90 m 1,0,-1
 561 0 l 1,1,-1
 70 0 l 1,2,3
 70 133 70 133 130 203 c 0,4,5
 184 266 184 266 277 319 c 2,6,-1
 373 373 l 1,7,8
 473 431 473 431 473 519 c 0,9,10
 473 594 473 594 410 634 c 0,11,12
 374 657 374 657 327 657 c 0,13,14
 249 657 249 657 208 598 c 1,15,-1
 200 586 l 1,16,17
 179 552 179 552 179 482 c 1,18,-1
 87 482 l 1,19,20
 87 586 87 586 127 642 c 0,21,22
 195 737 195 737 330 737 c 0,23,24
 433 737 433 737 498 679 c 0,25,26
 566 617 566 617 566 521 c 0,27,28
 566 384 566 384 410 298 c 1,29,-1
 306 242 l 1,30,31
 212 187 212 187 187 136 c 0,32,33
 177 115 177 115 173 90 c 1,34,-1
 561 90 l 1,0,-1
EndSplineSet
Validated: 1
EndChar

StartChar: three
Encoding: 279 51 23
Width: 613
GlyphClass: 2
Flags: W
LayerCount: 2
Fore
SplineSet
267 361 m 5,0,-1
 267 438 l 5,1,2
 354 438 354 438 389 454 c 4,3,4
 448 481 448 481 448 553 c 4,5,6
 448 642 448 642 375 670 c 4,7,8
 350 679 350 679 318 679 c 4,9,10
 236 679 236 679 199 623 c 4,11,12
 196 618 196 618 194 614 c 4,13,14
 177 584 177 584 177 521 c 5,15,-1
 86 521 l 5,16,17
 86 758 86 758 283 758 c 4,18,19
 294 758 294 758 317 759 c 4,20,21
 325 759 325 759 332 759 c 4,22,23
 458 759 458 759 516 662 c 4,24,25
 541 619 541 619 541 557 c 4,26,27
 541 444 541 444 438 404 c 5,28,29
 535 370 535 370 556 291 c 4,30,31
 563 264 563 264 563 228 c 4,32,33
 563 101 563 101 465 38 c 4,34,35
 402 -2 402 -2 314 -2 c 4,36,37
 160 -2 160 -2 103 105 c 5,38,39
 70 155 70 155 70 236 c 5,40,-1
 162 236 l 5,41,42
 162 99 162 99 279 82 c 4,43,44
 300 79 300 79 317 79 c 4,45,46
 425 79 425 79 458 161 c 4,47,48
 470 190 470 190 470 227 c 4,49,50
 470 361 470 361 317 361 c 6,51,-1
 278 361 l 5,52,-1
 267 361 l 5,0,-1
EndSplineSet
Validated: 1
EndChar

StartChar: four
Encoding: 280 52 24
Width: 652
GlyphClass: 2
Flags: W
LayerCount: 2
Fore
SplineSet
381 259 m 1,0,-1
 381 581 l 1,1,-1
 150 259 l 1,2,-1
 381 259 l 1,0,-1
381 177 m 1,3,-1
 70 177 l 1,4,-1
 70 274 l 1,5,-1
 405 737 l 1,6,-1
 473 737 l 1,7,-1
 473 259 l 1,8,-1
 582 259 l 1,9,-1
 582 177 l 1,10,-1
 473 177 l 1,11,-1
 473 0 l 1,12,-1
 381 0 l 1,13,-1
 381 177 l 1,3,-1
EndSplineSet
Validated: 1
EndChar

StartChar: five
Encoding: 281 53 25
Width: 638
GlyphClass: 2
Flags: W
LayerCount: 2
Fore
SplineSet
529 760 m 5,0,-1
 529 670 l 5,1,-1
 222 670 l 5,2,-1
 193 464 l 5,3,4
 254 509 254 509 329 509 c 4,5,6
 454 509 454 509 521 418 c 4,7,8
 568 355 568 355 568 263 c 4,9,10
 568 129 568 129 477 54 c 4,11,12
 410 -1 410 -1 315 -1 c 4,13,14
 198 -1 198 -1 131 69 c 4,15,16
 122 78 122 78 115 87 c 4,17,18
 87 122 87 122 70 204 c 5,19,-1
 162 204 l 5,20,21
 194 80 194 80 313 80 c 4,22,23
 418 80 418 80 457 164 c 4,24,25
 474 202 474 202 474 251 c 4,26,27
 474 364 474 364 395 408 c 4,28,29
 360 428 360 428 313 428 c 4,30,31
 246 428 246 428 199 383 c 5,32,-1
 178 359 l 5,33,-1
 93 359 l 5,34,-1
 148 760 l 5,35,-1
 529 760 l 5,0,-1
EndSplineSet
Validated: 1
EndChar

StartChar: six
Encoding: 282 54 26
Width: 589
GlyphClass: 2
Flags: W
LayerCount: 2
Fore
SplineSet
301 401 m 4,0,1
 213 401 213 401 171 332 c 4,2,3
 149 294 149 294 149 246 c 4,4,5
 149 156 149 156 212 108 c 4,6,7
 249 80 249 80 298 80 c 4,8,9
 377 80 377 80 419 146 c 4,10,11
 445 187 445 187 445 240 c 4,12,13
 445 346 445 346 371 385 c 4,14,15
 341 401 341 401 301 401 c 4,0,1
523 568 m 5,16,-1
 431 568 l 5,17,18
 413 659 413 659 337 676 c 4,19,20
 323 679 323 679 308 679 c 4,21,22
 192 679 192 679 157 529 c 4,23,24
 143 473 143 473 143 399 c 5,25,26
 204 482 204 482 313 482 c 4,27,28
 428 482 428 482 493 395 c 4,29,30
 539 334 539 334 539 248 c 4,31,32
 539 124 539 124 453 53 c 4,33,34
 389 -1 389 -1 297 -1 c 4,35,36
 175 -1 175 -1 112 91 c 4,37,38
 50 182 50 182 50 347 c 6,39,-1
 50 359 l 6,40,41
 50 551 50 551 116 655 c 5,42,43
 175 743 175 743 279 758 c 4,44,45
 296 760 296 760 314 760 c 4,46,47
 433 760 433 760 491 664 c 4,48,49
 515 623 515 623 523 568 c 5,16,-1
EndSplineSet
Validated: 1
EndChar

StartChar: seven
Encoding: 283 55 27
Width: 613
GlyphClass: 2
Flags: W
LayerCount: 2
Fore
SplineSet
563 737 m 1,0,-1
 563 660 l 1,1,2
 353 382 353 382 284 100 c 0,3,4
 272 51 272 51 263 0 c 1,5,-1
 166 0 l 1,6,7
 218 227 218 227 314 405 c 0,8,9
 371 510 371 510 468 647 c 1,10,-1
 70 647 l 1,11,-1
 70 737 l 1,12,-1
 563 737 l 1,0,-1
EndSplineSet
Validated: 1
EndChar

StartChar: eight
Encoding: 284 56 28
Width: 596
GlyphClass: 2
Flags: W
LayerCount: 2
Fore
SplineSet
298 370 m 4,0,1
 205 370 205 370 165 304 c 4,2,3
 144 269 144 269 144 226 c 4,4,5
 144 141 144 141 213 101 c 4,6,7
 248 80 248 80 296 80 c 4,8,9
 391 80 391 80 431 148 c 4,10,11
 452 182 452 182 452 226 c 4,12,13
 452 311 452 311 382 351 c 5,14,15
 346 370 346 370 298 370 c 4,0,1
298 679 m 4,16,17
 215 679 215 679 184 619 c 4,18,19
 170 594 170 594 170 563 c 4,20,21
 170 490 170 490 234 461 c 5,22,23
 262 447 262 447 298 447 c 4,24,25
 381 447 381 447 412 507 c 4,26,27
 426 532 426 532 426 562 c 4,28,29
 426 640 426 640 358 668 c 4,30,31
 332 679 332 679 298 679 c 4,16,17
419 411 m 5,32,33
 546 351 546 351 546 227 c 4,34,35
 546 110 546 110 456 47 c 5,36,37
 391 -1 391 -1 298 -1 c 4,38,39
 169 -1 169 -1 99 84 c 4,40,41
 50 145 50 145 50 228 c 4,42,43
 50 351 50 351 176 411 c 5,44,45
 101 458 101 458 85 508 c 5,46,47
 76 532 76 532 76 564 c 4,48,49
 76 667 76 667 161 722 c 4,50,51
 218 760 218 760 298 760 c 4,52,53
 419 760 419 760 480 681 c 5,54,55
 520 631 520 631 520 564 c 4,56,57
 520 493 520 493 473 450 c 4,58,59
 453 432 453 432 419 411 c 5,32,33
EndSplineSet
Validated: 1
EndChar

StartChar: nine
Encoding: 285 57 29
Width: 589
GlyphClass: 2
Flags: W
LayerCount: 2
Fore
SplineSet
290 682 m 4,0,1
 211 682 211 682 169 616 c 4,2,3
 143 575 143 575 143 521 c 4,4,5
 143 415 143 415 217 377 c 4,6,7
 247 361 247 361 287 361 c 4,8,9
 373 361 373 361 416 429 c 4,10,11
 440 466 440 466 440 516 c 4,12,13
 440 606 440 606 376 654 c 4,14,15
 338 682 338 682 290 682 c 4,0,1
65 193 m 5,16,-1
 157 193 l 5,17,18
 175 102 175 102 251 85 c 4,19,20
 265 82 265 82 280 82 c 4,21,22
 396 82 396 82 431 232 c 4,23,24
 445 288 445 288 445 362 c 5,25,26
 372 280 372 280 276 280 c 4,27,28
 160 280 160 280 95 366 c 4,29,30
 50 427 50 427 50 514 c 4,31,32
 50 638 50 638 135 708 c 4,33,34
 199 762 199 762 291 762 c 4,35,36
 415 762 415 762 477 671 c 4,37,38
 539 579 539 579 539 414 c 6,39,-1
 539 403 l 6,40,41
 539 210 539 210 472 106 c 4,42,43
 417 22 417 22 316 4 c 4,44,45
 295 1 295 1 274 1 c 4,46,47
 155 1 155 1 97 98 c 4,48,49
 73 139 73 139 65 193 c 5,16,-1
EndSplineSet
Validated: 1
EndChar

StartChar: colon
Encoding: 286 58 30
Width: 282
GlyphClass: 2
Flags: W
LayerCount: 2
Fore
SplineSet
223 545 m 1,0,-1
 223 437 l 1,1,-1
 114 437 l 1,2,-1
 114 545 l 1,3,-1
 223 545 l 1,0,-1
223 108 m 1,4,-1
 223 0 l 1,5,-1
 114 0 l 1,6,-1
 114 108 l 1,7,-1
 223 108 l 1,4,-1
EndSplineSet
Validated: 1
EndChar

StartChar: semicolon
Encoding: 287 59 31
Width: 284
GlyphClass: 2
Flags: W
LayerCount: 2
Fore
SplineSet
114 108 m 1,0,-1
 224 108 l 1,1,-1
 224 -17 l 2,2,3
 224 -153 224 -153 114 -153 c 1,4,-1
 114 -113 l 1,5,6
 159 -113 159 -113 170 -79 c 0,7,8
 177 -57 177 -57 177 -19 c 2,9,-1
 177 0 l 1,10,-1
 114 0 l 1,11,-1
 114 108 l 1,0,-1
224 545 m 1,12,-1
 224 437 l 1,13,-1
 115 437 l 1,14,-1
 115 545 l 1,15,-1
 224 545 l 1,12,-1
EndSplineSet
Validated: 1
EndChar

StartChar: less
Encoding: 288 60 32
Width: 582
GlyphClass: 2
Flags: W
LayerCount: 2
Fore
SplineSet
47 206 m 1,0,-1
 47 278 l 1,1,-1
 555 493 l 1,2,-1
 555 411 l 1,3,-1
 146 243 l 1,4,-1
 555 73 l 1,5,-1
 555 -9 l 1,6,-1
 47 206 l 1,0,-1
EndSplineSet
Validated: 1
EndChar

StartChar: equal
Encoding: 289 61 33
Width: 556
GlyphClass: 2
Flags: W
LayerCount: 2
Fore
SplineSet
555 188 m 1,0,-1
 555 115 l 1,1,-1
 52 115 l 1,2,-1
 52 188 l 1,3,-1
 555 188 l 1,0,-1
555 367 m 1,4,-1
 555 294 l 1,5,-1
 52 294 l 1,6,-1
 52 367 l 1,7,-1
 555 367 l 1,4,-1
EndSplineSet
Validated: 1
EndChar

StartChar: greater
Encoding: 290 62 34
Width: 590
GlyphClass: 2
Flags: W
LayerCount: 2
Fore
SplineSet
561 278 m 1,0,-1
 561 206 l 1,1,-1
 52 -9 l 1,2,-1
 52 73 l 1,3,-1
 462 240 l 1,4,-1
 52 411 l 1,5,-1
 52 493 l 1,6,-1
 561 278 l 1,0,-1
EndSplineSet
Validated: 1
EndChar

StartChar: question
Encoding: 291 63 35
Width: 530
GlyphClass: 2
Flags: W
LayerCount: 2
Fore
SplineSet
343 108 m 1,0,-1
 343 0 l 1,1,-1
 250 0 l 1,2,-1
 250 108 l 1,3,-1
 343 108 l 1,0,-1
343 207 m 1,4,-1
 250 207 l 1,5,-1
 250 264 l 2,6,7
 250 316 250 316 279 355 c 0,8,9
 296 378 296 378 333 412 c 1,10,-1
 358 434 l 2,11,12
 436 503 436 503 436 571 c 0,13,14
 436 644 436 644 372 675 c 0,15,16
 341 690 341 690 303 690 c 0,17,18
 217 690 217 690 186 629 c 0,19,20
 168 594 168 594 168 527 c 1,21,-1
 80 527 l 1,22,23
 80 769 80 769 267 769 c 0,24,25
 287 769 287 769 308 771 c 0,26,27
 320 772 320 772 331 772 c 0,28,29
 431 772 431 772 497 684 c 0,30,31
 529 642 529 642 529 571 c 0,32,33
 529 498 529 498 476 437 c 1,34,35
 457 413 457 413 425 385 c 1,36,37
 360 324 360 324 349 296 c 0,38,39
 343 281 343 281 343 256 c 2,40,-1
 343 207 l 1,4,-1
EndSplineSet
Validated: 1
EndChar

StartChar: at
Encoding: 292 64 36
Width: 992
GlyphClass: 2
Flags: W
LayerCount: 2
Fore
SplineSet
536 476 m 0,0,1
 467 476 467 476 416 405 c 0,2,3
 368 338 368 338 368 254 c 0,4,5
 368 184 368 184 417 149 c 0,6,7
 442 131 442 131 471 131 c 0,8,9
 523 131 523 131 577 199 c 0,10,11
 628 263 628 263 628 336 c 0,12,13
 628 359 628 359 631 376 c 1,14,-1
 631 404 l 1,15,16
 620 453 620 453 571 470 c 0,17,18
 554 476 554 476 536 476 c 0,0,1
692 521 m 1,19,-1
 778 521 l 1,20,-1
 684 230 l 2,21,22
 672 193 672 193 672 178 c 0,23,24
 672 150 672 150 702 136 c 0,25,26
 712 132 712 132 724 132 c 0,27,28
 790 132 790 132 846 207 c 1,29,30
 899 281 899 281 899 371 c 0,31,32
 899 489 899 489 798 589 c 0,33,34
 695 691 695 691 548 691 c 2,35,-1
 532 691 l 2,36,37
 381 691 381 691 262 584 c 0,38,39
 148 481 148 481 127 336 c 0,40,41
 124 310 124 310 124 284 c 0,42,43
 124 137 124 137 233 36 c 0,44,45
 345 -68 345 -68 514 -68 c 0,46,47
 596 -68 596 -68 714 -34 c 1,48,-1
 744 -104 l 1,49,50
 627 -148 627 -148 509 -148 c 0,51,52
 321 -148 321 -148 185 -36 c 0,53,54
 58 68 58 68 38 220 c 0,55,56
 35 244 35 244 35 268 c 0,57,58
 35 428 35 428 134 564 c 0,59,60
 163 604 163 604 200 636 c 1,61,62
 312 738 312 738 469 764 c 0,63,64
 508 771 508 771 546 771 c 0,65,66
 719 771 719 771 847 666 c 0,67,68
 966 568 966 568 986 427 c 0,69,70
 989 405 989 405 989 384 c 0,71,72
 989 258 989 258 900 152 c 0,73,74
 821 59 821 59 706 59 c 0,75,76
 607 59 607 59 592 139 c 1,77,78
 523 64 523 64 444 64 c 0,79,80
 359 64 359 64 310 136 c 0,81,82
 275 187 275 187 275 255 c 0,83,84
 275 365 275 365 357 456 c 0,85,86
 437 545 437 545 542 545 c 0,87,88
 629 545 629 545 669 452 c 1,89,-1
 692 521 l 1,19,-1
EndSplineSet
Validated: 1
EndChar

StartChar: A
Encoding: 293 65 37
Width: 761
GlyphClass: 2
Flags: W
LayerCount: 2
Fore
SplineSet
498 309 m 1,0,-1
 381 654 l 1,1,-1
 257 309 l 1,2,-1
 498 309 l 1,0,-1
525 228 m 1,3,-1
 233 228 l 1,4,-1
 153 0 l 1,5,-1
 50 0 l 1,6,-1
 320 758 l 1,7,-1
 445 758 l 1,8,-1
 711 0 l 1,9,-1
 603 0 l 1,10,-1
 525 228 l 1,3,-1
EndSplineSet
Validated: 1
EndChar

StartChar: B
Encoding: 294 66 38
Width: 646
GlyphClass: 2
Flags: W
LayerCount: 2
Fore
SplineSet
147 85 m 1,0,-1
 383 85 l 2,1,2
 451 85 451 85 484 122 c 1,3,4
 519 159 519 159 519 215 c 0,5,6
 519 272 519 272 484 310 c 0,7,8
 451 346 451 346 383 346 c 2,9,-1
 147 346 l 1,10,-1
 147 85 l 1,0,-1
147 432 m 1,11,-1
 334 432 l 2,12,13
 409 432 409 432 444 459 c 0,14,15
 486 491 486 491 486 552.5 c 128,-1,16
 486 614 486 614 444 646 c 0,17,18
 409 673 409 673 334 673 c 2,19,-1
 147 673 l 1,20,-1
 147 432 l 1,11,-1
50 0 m 1,21,-1
 50 758 l 1,22,-1
 358 758 l 2,23,24
 465 758 465 758 522 705 c 1,25,26
 583 651 583 651 583 566 c 0,27,28
 583 449 583 449 478 400 c 1,29,30
 587 358 587 358 609 275 c 0,31,32
 616 249 616 249 616 216 c 0,33,34
 616 125 616 125 558 63 c 0,35,36
 498 0 498 0 392 0 c 2,37,-1
 50 0 l 1,21,-1
EndSplineSet
Validated: 1
EndChar

StartChar: C
Encoding: 295 67 39
Width: 714
GlyphClass: 2
Flags: W
LayerCount: 2
Fore
SplineSet
668 538 m 1,0,-1
 570 538 l 1,1,2
 554 614 554 614 515 651 c 1,3,4
 458 697 458 697 369 697 c 0,5,6
 367 697 367 697 365 697 c 0,7,8
 233 697 233 697 168 580 c 0,9,10
 127 506 127 506 127 389 c 0,11,12
 127 215 127 215 225 135 c 0,13,14
 286 85 286 85 370 85 c 0,15,16
 371 85 371 85 373 85 c 0,17,18
 487 85 487 85 540 164 c 0,19,20
 546 173 546 173 550 181 c 0,21,22
 575 240 575 240 584 297 c 1,23,-1
 684 297 l 1,24,25
 650 2 650 2 372 2 c 0,26,27
 224 2 224 2 140 88 c 0,28,29
 30 200 30 200 30 388 c 0,30,31
 30 575 30 575 136 688 c 1,32,33
 221 781 221 781 376 781 c 0,34,35
 608 781 608 781 664 558 c 1,36,-1
 668 538 l 1,0,-1
EndSplineSet
Validated: 1
EndChar

StartChar: D
Encoding: 296 68 40
Width: 701
GlyphClass: 2
Flags: W
LayerCount: 2
Fore
SplineSet
146 85 m 1,0,-1
 325 85 l 2,1,2
 506 85 506 85 545 274 c 0,3,4
 554 320 554 320 554 379 c 0,5,6
 554 634 554 634 379 668 c 0,7,8
 353 673 353 673 325 673 c 2,9,-1
 146 673 l 1,10,-1
 146 85 l 1,0,-1
50 0 m 1,11,-1
 50 758 l 1,12,-1
 342 758 l 2,13,14
 511 758 511 758 593 621 c 0,15,16
 651 525 651 525 651 380 c 0,17,18
 651 163 651 163 530 63 c 0,19,20
 454 0 454 0 342 0 c 2,21,-1
 50 0 l 1,11,-1
EndSplineSet
Validated: 1
EndChar

StartChar: E
Encoding: 297 69 41
Width: 644
GlyphClass: 2
Flags: W
LayerCount: 2
Fore
SplineSet
146 345 m 1,0,-1
 146 85 l 1,1,-1
 594 85 l 1,2,-1
 594 0 l 1,3,-1
 50 0 l 1,4,-1
 50 758 l 1,5,-1
 575 758 l 1,6,-1
 575 673 l 1,7,-1
 146 673 l 1,8,-1
 146 431 l 1,9,-1
 559 431 l 1,10,-1
 559 345 l 1,11,-1
 146 345 l 1,0,-1
EndSplineSet
Validated: 1
EndChar

StartChar: F
Encoding: 298 70 42
Width: 608
GlyphClass: 2
Flags: W
LayerCount: 2
Fore
SplineSet
146 345 m 1,0,-1
 146 0 l 1,1,-1
 50 0 l 1,2,-1
 50 758 l 1,3,-1
 558 758 l 1,4,-1
 558 673 l 1,5,-1
 146 673 l 1,6,-1
 146 431 l 1,7,-1
 508 431 l 1,8,-1
 508 345 l 1,9,-1
 146 345 l 1,0,-1
EndSplineSet
Validated: 1
EndChar

StartChar: G
Encoding: 299 71 43
Width: 771
GlyphClass: 2
Flags: W
LayerCount: 2
Fore
SplineSet
721 418 m 1,0,-1
 721 23 l 1,1,-1
 660 23 l 1,2,-1
 636 122 l 1,3,4
 528 3 528 3 377 3 c 0,5,6
 219 3 219 3 120 120 c 0,7,8
 30 226 30 226 30 390 c 0,9,10
 30 568 30 568 136 682 c 0,11,12
 151 698 151 698 167 711 c 0,13,14
 256 782 256 782 394 782 c 0,15,16
 581 782 581 782 664 662 c 0,17,18
 698 613 698 613 711 544 c 1,19,-1
 612 544 l 1,20,21
 590 643 590 643 492 681 c 0,22,23
 447 698 447 698 393 698 c 0,24,25
 255 697 255 697 182 592 c 0,26,27
 126 513 126 513 126 395 c 0,28,29
 126 272 126 272 190 181 c 0,30,31
 196 172 196 172 207 162 c 0,32,33
 289 86 289 86 395 86 c 0,34,35
 397 86 397 86 398 86 c 0,36,37
 514 86 514 86 585 169 c 0,38,39
 636 229 636 229 636 315 c 2,40,-1
 636 335 l 1,41,-1
 405 335 l 1,42,-1
 405 418 l 1,43,-1
 721 418 l 1,0,-1
EndSplineSet
Validated: 1
EndChar

StartChar: H
Encoding: 300 72 44
Width: 684
GlyphClass: 2
Flags: W
LayerCount: 2
Fore
SplineSet
537 345 m 1,0,-1
 148 345 l 1,1,-1
 148 0 l 1,2,-1
 50 0 l 1,3,-1
 50 758 l 1,4,-1
 147 758 l 1,5,-1
 147 431 l 1,6,-1
 537 431 l 1,7,-1
 537 758 l 1,8,-1
 634 758 l 1,9,-1
 634 0 l 1,10,-1
 537 0 l 1,11,-1
 537 345 l 1,0,-1
EndSplineSet
Validated: 1
EndChar

StartChar: I
Encoding: 301 73 45
Width: 238
GlyphClass: 2
Flags: W
LayerCount: 2
Fore
SplineSet
168 758 m 1,0,-1
 168 0 l 1,1,-1
 70 0 l 1,2,-1
 70 758 l 1,3,-1
 168 758 l 1,0,-1
EndSplineSet
Validated: 1
EndChar

StartChar: J
Encoding: 302 74 46
Width: 505
GlyphClass: 2
Flags: W
LayerCount: 2
Fore
SplineSet
358 779 m 1,0,-1
 455 779 l 1,1,-1
 455 210 l 2,2,3
 455 81 455 81 361 26 c 0,4,5
 310 -3 310 -3 241 -3 c 0,6,7
 112 -3 112 -3 58 87 c 0,8,9
 30 134 30 134 30 198 c 2,10,-1
 30 264 l 1,11,-1
 128 264 l 1,12,-1
 128 215 l 2,13,14
 128 101 128 101 211 81 c 0,15,16
 225 78 225 78 242 78 c 0,17,18
 302 78 302 78 334 125 c 0,19,20
 358 160 358 160 358 246 c 2,21,-1
 358 779 l 1,0,-1
EndSplineSet
Validated: 1
EndChar

StartChar: K
Encoding: 303 75 47
Width: 702
GlyphClass: 2
Flags: W
LayerCount: 2
Fore
SplineSet
147 265 m 1,0,-1
 147 0 l 1,1,-1
 50 0 l 1,2,-1
 50 758 l 1,3,-1
 147 758 l 1,4,-1
 147 374 l 1,5,-1
 524 758 l 1,6,-1
 649 758 l 1,7,-1
 340 449 l 1,8,-1
 652 0 l 1,9,-1
 538 0 l 1,10,-1
 271 389 l 1,11,-1
 147 265 l 1,0,-1
EndSplineSet
Validated: 1
EndChar

StartChar: L
Encoding: 304 76 48
Width: 571
GlyphClass: 2
Flags: W
LayerCount: 2
Fore
SplineSet
147 758 m 1,0,-1
 147 85 l 1,1,-1
 521 85 l 1,2,-1
 521 0 l 1,3,-1
 50 0 l 1,4,-1
 50 758 l 1,5,-1
 147 758 l 1,0,-1
EndSplineSet
Validated: 1
EndChar

StartChar: M
Encoding: 305 77 49
Width: 813
GlyphClass: 2
Flags: W
LayerCount: 2
Fore
SplineSet
459 0 m 1,0,-1
 357 0 l 1,1,-1
 142 635 l 1,2,-1
 142 0 l 1,3,-1
 50 0 l 1,4,-1
 50 758 l 1,5,-1
 184 758 l 1,6,-1
 409 98 l 1,7,-1
 629 758 l 1,8,-1
 763 758 l 1,9,-1
 763 0 l 1,10,-1
 672 0 l 1,11,-1
 672 635 l 1,12,-1
 459 0 l 1,0,-1
EndSplineSet
Validated: 1
EndChar

StartChar: N
Encoding: 306 78 50
Width: 693
GlyphClass: 2
Flags: W
LayerCount: 2
Fore
SplineSet
643 758 m 1,0,-1
 643 0 l 1,1,-1
 534 0 l 1,2,-1
 142 615 l 1,3,-1
 142 0 l 1,4,-1
 50 0 l 1,5,-1
 50 758 l 1,6,-1
 155 758 l 1,7,-1
 551 138 l 1,8,-1
 551 758 l 1,9,-1
 643 758 l 1,0,-1
EndSplineSet
Validated: 1
EndChar

StartChar: O
Encoding: 307 79 51
Width: 792
GlyphClass: 2
Flags: W
LayerCount: 2
Fore
SplineSet
395 698 m 0,0,1
 258 698 258 698 184 594 c 0,2,3
 126 513 126 513 126 392 c 0,4,5
 126 232 126 232 225 147 c 0,6,7
 296 86 296 86 393 86 c 0,8,9
 394 86 394 86 396 86 c 0,10,11
 529 86 529 86 605 188 c 0,12,13
 665 269 665 269 665 388 c 0,14,15
 665 557 665 557 563 641 c 0,16,17
 494 698 494 698 395 698 c 0,0,1
395 782 m 0,18,19
 576 782 576 782 676 657 c 0,20,21
 762 550 762 550 762 386 c 0,22,23
 762 235 762 235 676 128 c 0,24,25
 655 101 655 101 631 81 c 0,26,27
 536 3 536 3 396 3 c 0,28,29
 223 3 223 3 120 123 c 0,30,31
 30 228 30 228 30 392 c 0,32,33
 30 581 30 581 145 689 c 0,34,35
 244 782 244 782 395 782 c 0,18,19
EndSplineSet
Validated: 1
EndChar

StartChar: P
Encoding: 308 80 52
Width: 647
GlyphClass: 2
Flags: W
LayerCount: 2
Fore
SplineSet
146 407 m 1,0,-1
 348 407 l 2,1,2
 454 407 454 407 485 484 c 0,3,4
 496 509 496 509 496 540 c 0,5,6
 496 633 496 633 414 662 c 0,7,8
 385 673 385 673 348 673 c 2,9,-1
 146 673 l 1,10,-1
 146 407 l 1,0,-1
146 321 m 1,11,-1
 146 0 l 1,12,-1
 50 0 l 1,13,-1
 50 758 l 1,14,-1
 363 758 l 2,15,16
 530 758 530 758 579 635 c 1,17,18
 597 593 597 593 597 536 c 0,19,20
 597 435 597 435 531 375 c 0,21,22
 471 321 471 321 385 321 c 2,23,-1
 146 321 l 1,11,-1
EndSplineSet
Validated: 1
EndChar

StartChar: Q
Encoding: 309 81 53
Width: 792
GlyphClass: 2
Flags: W
LayerCount: 2
Fore
SplineSet
490 235 m 1,0,-1
 583 160 l 1,1,2
 665 252 665 252 665 393 c 0,3,4
 665 554 665 554 567 638 c 0,5,6
 499 696 499 696 396 697 c 1,7,8
 396 697 396 697 393 697 c 0,9,10
 257 697 257 697 184 594 c 0,11,12
 126 512 126 512 126 392 c 0,13,14
 126 231 126 231 225 146 c 0,15,16
 295 86 295 86 395 86 c 0,17,18
 457 86 457 86 519 114 c 1,19,-1
 442 178 l 1,20,-1
 490 235 l 1,0,-1
393 3 m 2,21,22
 220 3 220 3 120 122 c 0,23,24
 30 229 30 229 30 392 c 0,25,26
 30 580 30 580 145 689 c 1,27,28
 245 782 245 782 393 782 c 2,29,-1
 396 782 l 1,30,31
 567 781 567 781 670 663 c 0,32,33
 762 558 762 558 762 394 c 0,34,35
 762 219 762 219 655 104 c 1,36,-1
 752 26 l 1,37,-1
 703 -34 l 1,38,-1
 594 55 l 1,39,40
 519 12 519 12 396 3 c 1,41,-1
 393 3 l 2,21,22
EndSplineSet
Validated: 1
EndChar

StartChar: R
Encoding: 310 82 54
Width: 709
GlyphClass: 2
Flags: W
LayerCount: 2
Fore
SplineSet
146 412 m 1,0,-1
 380 412 l 2,1,2
 506 412 506 412 525 501 c 0,3,4
 529 519 529 519 529 542 c 0,5,6
 529 610 529 610 490 644 c 0,7,8
 456 673 456 673 380 673 c 2,9,-1
 146 673 l 1,10,-1
 146 412 l 1,0,-1
146 327 m 1,11,-1
 146 0 l 1,12,-1
 50 0 l 1,13,-1
 50 758 l 1,14,-1
 399 758 l 2,15,16
 576 758 576 758 619 633 c 0,17,18
 630 599 630 599 630 555 c 0,19,20
 630 453 630 453 555 400 c 0,21,22
 535 387 535 387 510 374 c 1,23,24
 575 346 575 346 595 305 c 0,25,26
 613 266 613 266 613 177 c 0,27,28
 613 77 613 77 633 49 c 0,29,30
 643 35 643 35 659 24 c 1,31,-1
 659 0 l 1,32,-1
 542 0 l 1,33,34
 521 50 521 50 521 124 c 2,35,-1
 521 191 l 2,36,37
 521 305 521 305 438 322 c 1,38,39
 419 327 419 327 396 327 c 2,40,-1
 146 327 l 1,11,-1
EndSplineSet
Validated: 1
EndChar

StartChar: S
Encoding: 311 83 55
Width: 656
GlyphClass: 2
Flags: W
LayerCount: 2
Fore
SplineSet
600 552 m 1,0,-1
 508 552 l 1,1,2
 508 664 508 664 394 694 c 0,3,4
 359 703 359 703 319 703 c 0,5,6
 210 702 210 702 168 639 c 0,7,8
 150 612 150 612 150 577 c 0,9,10
 150 518 150 518 206 491 c 0,11,12
 231 479 231 479 274 466 c 1,13,-1
 465 417 l 1,14,15
 589 383 589 383 619 284 c 0,16,17
 626 261 626 261 626 230 c 0,18,19
 626 145 626 145 566 80 c 1,20,-1
 543 60 l 1,21,22
 467 3 467 3 329 3 c 0,23,24
 156 3 156 3 75 109 c 0,25,26
 30 168 30 168 30 263 c 1,27,-1
 121 263 l 1,28,-1
 125 224 l 1,29,30
 132 182 132 182 161 149 c 0,31,32
 216 86 216 86 336 86 c 0,33,34
 428 86 428 86 475 119 c 0,35,36
 521 151 521 151 528 207 c 0,37,38
 529 215 529 215 529 221 c 0,39,40
 529 296 529 296 415 334 c 0,41,42
 403 338 403 338 390 341 c 2,43,-1
 202 390 l 2,44,45
 53 429 53 429 53 564 c 0,46,47
 53 691 53 691 161 747 c 0,48,49
 228 782 228 782 322 782 c 0,50,51
 506 782 506 782 571 668 c 0,52,53
 600 618 600 618 600 552 c 1,0,-1
EndSplineSet
Validated: 1
EndChar

StartChar: T
Encoding: 312 84 56
Width: 695
GlyphClass: 2
Flags: W
LayerCount: 2
Fore
SplineSet
396 673 m 1,0,-1
 396 0 l 1,1,-1
 299 0 l 1,2,-1
 299 673 l 1,3,-1
 50 673 l 1,4,-1
 50 758 l 1,5,-1
 645 758 l 1,6,-1
 645 673 l 1,7,-1
 396 673 l 1,0,-1
EndSplineSet
Validated: 1
EndChar

StartChar: U
Encoding: 313 85 57
Width: 683
GlyphClass: 2
Flags: W
LayerCount: 2
Fore
SplineSet
536 768 m 1,0,-1
 633 768 l 1,1,-1
 633 247 l 2,2,3
 633 114 633 114 525 48 c 0,4,5
 450 2 450 2 341 2 c 0,6,7
 169 2 169 2 93 105 c 0,8,9
 50 163 50 163 50 247 c 2,10,-1
 50 768 l 1,11,-1
 147 768 l 1,12,-1
 147 247 l 2,13,14
 147 167 147 167 202 124 c 1,15,16
 257 85 257 85 341 85 c 0,17,18
 470 85 470 85 516 167 c 0,19,20
 536 203 536 203 536 247 c 2,21,-1
 536 768 l 1,0,-1
EndSplineSet
Validated: 1
EndChar

StartChar: V
Encoding: 314 86 58
Width: 680
GlyphClass: 2
Flags: W
LayerCount: 2
Fore
SplineSet
397 0 m 1,0,-1
 293 0 l 1,1,-1
 20 758 l 1,2,-1
 124 758 l 1,3,-1
 347 116 l 1,4,-1
 557 758 l 1,5,-1
 660 758 l 1,6,-1
 397 0 l 1,0,-1
EndSplineSet
Validated: 1
EndChar

StartChar: W
Encoding: 315 87 59
Width: 983
GlyphClass: 2
Flags: W
LayerCount: 2
Fore
SplineSet
771 0 m 1,0,-1
 665 0 l 1,1,-1
 490 623 l 1,2,-1
 320 0 l 1,3,-1
 214 0 l 1,4,-1
 20 758 l 1,5,-1
 128 758 l 1,6,-1
 271 142 l 1,7,-1
 439 758 l 1,8,-1
 543 758 l 1,9,-1
 716 142 l 1,10,-1
 855 758 l 1,11,-1
 963 758 l 1,12,-1
 771 0 l 1,0,-1
EndSplineSet
Validated: 1
EndChar

StartChar: X
Encoding: 316 88 60
Width: 752
GlyphClass: 2
Flags: W
LayerCount: 2
Fore
SplineSet
434 389 m 1,0,-1
 702 0 l 1,1,-1
 582 0 l 1,2,-1
 375 316 l 1,3,-1
 167 0 l 1,4,-1
 50 0 l 1,5,-1
 318 389 l 1,6,-1
 67 758 l 1,7,-1
 184 758 l 1,8,-1
 379 461 l 1,9,-1
 574 758 l 1,10,-1
 689 758 l 1,11,-1
 434 389 l 1,0,-1
EndSplineSet
Validated: 1
EndChar

StartChar: Y
Encoding: 317 89 61
Width: 713
GlyphClass: 2
Flags: W
LayerCount: 2
Fore
SplineSet
408 297 m 1,0,-1
 408 0 l 1,1,-1
 312 0 l 1,2,-1
 312 297 l 1,3,-1
 20 758 l 1,4,-1
 139 758 l 1,5,-1
 362 389 l 1,6,-1
 578 758 l 1,7,-1
 693 758 l 1,8,-1
 408 297 l 1,0,-1
EndSplineSet
Validated: 1
EndChar

StartChar: Z
Encoding: 318 90 62
Width: 677
GlyphClass: 2
Flags: W
LayerCount: 2
Fore
SplineSet
625 758 m 1,0,-1
 625 671 l 1,1,-1
 172 85 l 1,2,-1
 627 85 l 1,3,-1
 627 0 l 1,4,-1
 50 0 l 1,5,-1
 50 85 l 1,6,-1
 506 673 l 1,7,-1
 79 673 l 1,8,-1
 79 758 l 1,9,-1
 625 758 l 1,0,-1
EndSplineSet
Validated: 1
EndChar

StartChar: bracketleft
Encoding: 319 91 63
Width: 542
GlyphClass: 2
Flags: W
LayerCount: 2
Fore
SplineSet
260 758 m 1,0,-1
 260 683 l 1,1,-1
 153 683 l 1,2,-1
 153 -146 l 1,3,-1
 260 -146 l 1,4,-1
 260 -220 l 1,5,-1
 67 -220 l 1,6,-1
 67 758 l 1,7,-1
 260 758 l 1,0,-1
EndSplineSet
Validated: 1
EndChar

StartChar: backslash
Encoding: 320 92 64
Width: 542
GlyphClass: 2
Flags: W
LayerCount: 2
Fore
SplineSet
49 758 m 1,0,-1
 295 -21 l 1,1,-1
 238 -21 l 1,2,-1
 -8 758 l 1,3,-1
 49 758 l 1,0,-1
EndSplineSet
Validated: 1
EndChar

StartChar: bracketright
Encoding: 321 93 65
Width: 542
GlyphClass: 2
Flags: W
LayerCount: 2
Fore
SplineSet
24 -220 m 1,0,-1
 24 -146 l 1,1,-1
 131 -146 l 1,2,-1
 131 683 l 1,3,-1
 24 683 l 1,4,-1
 24 758 l 1,5,-1
 217 758 l 1,6,-1
 217 -220 l 1,7,-1
 24 -220 l 1,0,-1
EndSplineSet
Validated: 1
EndChar

StartChar: asciicircum
Encoding: 322 94 66
Width: 542
GlyphClass: 2
Flags: W
LayerCount: 2
Fore
SplineSet
205 737 m 1,0,-1
 281 737 l 1,1,-1
 442 342 l 1,2,-1
 370 342 l 1,3,-1
 243 654 l 1,4,-1
 118 342 l 1,5,-1
 46 342 l 1,6,-1
 205 737 l 1,0,-1
EndSplineSet
Validated: 1
EndChar

StartChar: underscore
Encoding: 323 95 67
Width: 542
GlyphClass: 2
Flags: W
LayerCount: 2
Fore
SplineSet
601 -131 m 1,0,-1
 601 -183 l 1,1,-1
 -23 -183 l 1,2,-1
 -23 -131 l 1,3,-1
 601 -131 l 1,0,-1
EndSplineSet
Validated: 1
EndChar

StartChar: grave
Encoding: 324 96 68
Width: 542
GlyphClass: 2
Flags: W
LayerCount: 2
Fore
SplineSet
164 496 m 1,0,-1
 68 496 l 1,1,-1
 68 601 l 2,2,3
 68 716 68 716 147 734 c 0,4,5
 155 736 155 736 164 737 c 1,6,-1
 164 698 l 1,7,8
 114 691 114 691 114 610 c 2,9,-1
 114 604 l 1,10,-1
 164 604 l 1,11,-1
 164 496 l 1,0,-1
EndSplineSet
Validated: 1
EndChar

StartChar: a
Encoding: 325 97 69
Width: 592
GlyphClass: 2
Flags: W
LayerCount: 2
Fore
SplineSet
391 196 m 2,0,-1
 391 293 l 1,1,2
 357 278 357 278 272 266 c 0,3,4
 263 265 263 265 251 263 c 0,5,6
 141 248 141 248 124 191 c 0,7,8
 120 179 120 179 120 163 c 0,9,10
 120 96 120 96 190 80 c 0,11,12
 206 76 206 76 227 76 c 0,13,14
 299 76 299 76 356 125 c 0,15,16
 391 155 391 155 391 196 c 2,0,-1
542 75 m 1,17,-1
 542 9 l 1,18,19
 506 0 506 0 483 0 c 0,20,21
 409 0 409 0 396 66 c 1,22,-1
 394 80 l 1,23,24
 303 0 303 0 209 0 c 0,25,26
 94 0 94 0 49 78 c 1,27,28
 30 114 30 114 30 161 c 0,29,30
 30 267 30 267 125 307 c 0,31,32
 163 322 163 322 261 335 c 2,33,-1
 300 340 l 2,34,35
 376 350 376 350 387 380 c 1,36,37
 391 388 391 388 391 400 c 2,38,-1
 391 423 l 2,39,40
 391 490 391 490 306 502 c 0,41,42
 289 504 289 504 269 504 c 0,43,44
 162 504 162 504 144 426 c 0,45,46
 142 417 142 417 141 408 c 1,47,-1
 54 408 l 1,48,49
 57 483 57 483 91 521 c 0,50,51
 148 585 148 585 272 585 c 0,52,53
 455 585 455 585 475 464 c 0,54,55
 477 450 477 450 477 436 c 2,56,-1
 477 116 l 2,57,58
 477 73 477 73 524 73 c 0,59,60
 533 73 533 73 542 75 c 1,17,-1
EndSplineSet
Validated: 1
EndChar

StartChar: b
Encoding: 326 98 70
Width: 608
GlyphClass: 2
Flags: W
LayerCount: 2
Fore
SplineSet
268 502 m 0,0,1
 182 502 182 502 141 415 c 0,2,3
 116 362 116 362 116 291 c 0,4,5
 116 161 116 161 188 107 c 0,6,7
 223 80 223 80 268 80 c 0,8,9
 356 80 356 80 399 162 c 0,10,11
 427 215 427 215 427 288 c 0,12,13
 427 420 427 420 353 475 c 0,14,15
 316 502 316 502 268 502 c 0,0,1
30 781 m 1,16,-1
 116 781 l 1,17,-1
 116 494 l 1,18,19
 176 584 176 584 285 584 c 0,20,21
 418 584 418 584 479 471 c 1,22,23
 518 401 518 401 518 298 c 0,24,25
 518 130 518 130 423 50 c 1,26,27
 364 -1 364 -1 281 -1 c 0,28,29
 170 -1 170 -1 108 93 c 1,30,-1
 108 23 l 1,31,-1
 30 23 l 1,32,-1
 30 781 l 1,16,-1
EndSplineSet
Validated: 1
EndChar

StartChar: c
Encoding: 327 99 71
Width: 524
GlyphClass: 2
Flags: W
LayerCount: 2
Fore
SplineSet
488 387 m 1,0,-1
 400 387 l 1,1,2
 387 488 387 488 300 503 c 0,3,4
 286 505 286 505 272 505 c 0,5,6
 174 505 174 505 137 401 c 0,7,8
 121 354 121 354 121 288 c 0,9,10
 121 146 121 146 203 99 c 0,11,12
 233 81 233 81 274 81 c 0,13,14
 385 81 385 81 407 212 c 1,15,-1
 494 212 l 1,16,17
 494 70 494 70 374 22 c 1,18,19
 330 1 330 1 272 1 c 0,20,21
 137 1 137 1 73 110 c 0,22,23
 30 183 30 183 30 288 c 0,24,25
 30 455 30 455 126 535 c 0,26,27
 187 586 187 586 273 586 c 0,28,29
 383 586 383 586 443 515 c 1,30,-1
 451 504 l 2,31,32
 482 460 482 460 488 387 c 1,0,-1
EndSplineSet
Validated: 1
EndChar

StartChar: d
Encoding: 328 100 72
Width: 588
GlyphClass: 2
Flags: W
LayerCount: 2
Fore
SplineSet
319 502 m 0,0,1
 230 502 230 502 188 417 c 1,2,3
 161 365 161 365 161 291 c 0,4,5
 161 164 161 164 233 108 c 1,6,7
 271 80 271 80 320 80 c 0,8,9
 406 80 406 80 447 165 c 0,10,11
 471 217 471 217 471 289 c 0,12,13
 471 425 471 425 397 479 c 1,14,15
 362 502 362 502 319 502 c 0,0,1
558 781 m 1,16,-1
 558 23 l 1,17,-1
 481 23 l 1,18,-1
 481 95 l 1,19,20
 421 0 421 0 331 0 c 0,21,22
 320 0 320 0 307 -1 c 0,23,24
 298 -2 298 -2 288 -2 c 0,25,26
 172 -2 172 -2 110 116 c 1,27,28
 70 189 70 189 70 297 c 0,29,30
 70 457 70 457 163 535 c 0,31,32
 222 584 222 584 304 584 c 0,33,34
 416 584 416 584 471 499 c 1,35,-1
 471 781 l 1,36,-1
 558 781 l 1,16,-1
EndSplineSet
Validated: 1
EndChar

StartChar: e
Encoding: 329 101 73
Width: 572
GlyphClass: 2
Flags: W
LayerCount: 2
Fore
SplineSet
122 337 m 1,0,-1
 428 337 l 1,1,2
 429 339 429 339 429 343 c 0,3,4
 429 427 429 427 368 473 c 0,5,6
 328 503 328 503 278 503 c 0,7,8
 190 503 190 503 147 425 c 0,9,10
 126 388 126 388 122 337 c 1,0,-1
522 266 m 1,11,-1
 120 266 l 1,12,13
 121 191 121 191 149 150 c 1,14,15
 194 79 194 79 280 79 c 0,16,17
 386 79 386 79 423 188 c 1,18,-1
 510 188 l 1,19,20
 487 63 487 63 379 18 c 0,21,22
 333 -1 333 -1 277 -1 c 0,23,24
 136 -1 136 -1 70 113 c 0,25,26
 30 184 30 184 30 288 c 0,27,28
 30 453 30 453 127 533 c 0,29,30
 190 584 190 584 279 584 c 0,31,32
 399 584 399 584 466 498 c 0,33,34
 487 472 487 472 500 440 c 0,35,36
 522 383 522 383 522 266 c 1,11,-1
EndSplineSet
Validated: 1
EndChar

StartChar: f
Encoding: 330 102 74
Width: 349
GlyphClass: 2
Flags: W
LayerCount: 2
Fore
SplineSet
299 545 m 1,0,-1
 299 474 l 1,1,-1
 209 474 l 1,2,-1
 209 0 l 1,3,-1
 123 0 l 1,4,-1
 123 474 l 1,5,-1
 50 474 l 1,6,-1
 50 545 l 1,7,-1
 123 545 l 1,8,-1
 123 638 l 2,9,10
 123 729 123 729 199 754 c 0,11,12
 222 761 222 761 250 761 c 0,13,14
 274 761 274 761 299 756 c 1,15,-1
 299 684 l 1,16,17
 280 685 280 685 269 685 c 0,18,19
 209 685 209 685 209 630 c 2,20,-1
 209 545 l 1,21,-1
 299 545 l 1,0,-1
EndSplineSet
Validated: 1
EndChar

StartChar: g
Encoding: 331 103 75
Width: 559
GlyphClass: 2
Flags: W
LayerCount: 2
Fore
SplineSet
271 505 m 0,0,1
 181 505 181 505 141 413 c 1,2,3
 121 363 121 363 121 293 c 0,4,5
 121 149 121 149 202 100 c 0,6,7
 232 81 232 81 272 81 c 0,8,9
 365 81 365 81 401 177 c 0,10,11
 420 225 420 225 420 290 c 0,12,13
 420 446 420 446 335 491 c 0,14,15
 307 505 307 505 271 505 c 0,0,1
428 570 m 1,16,-1
 509 570 l 1,17,-1
 509 114 l 2,18,19
 509 -46 509 -46 466 -112 c 0,20,21
 459 -123 459 -123 451 -132 c 0,22,23
 401 -194 401 -194 288 -201 c 0,24,25
 277 -202 277 -202 265 -202 c 0,26,27
 122 -202 122 -202 70 -110 c 0,28,29
 52 -78 52 -78 48 -37 c 1,30,-1
 136 -37 l 1,31,32
 142 -78 142 -78 170 -100 c 0,33,34
 207 -129 207 -129 268 -129 c 0,35,36
 353 -129 353 -129 389 -78 c 0,37,38
 420 -35 420 -35 420 71 c 2,39,-1
 420 99 l 1,40,41
 359 14 359 14 283 3 c 0,42,43
 269 1 269 1 255 1 c 0,44,45
 168 1 168 1 105 68 c 1,46,-1
 99 74 l 1,47,48
 30 154 30 154 30 288 c 0,49,50
 30 447 30 447 119 529 c 1,51,52
 178 586 178 586 262 586 c 0,53,54
 364 586 364 586 428 491 c 1,55,-1
 428 570 l 1,16,-1
EndSplineSet
Validated: 1
EndChar

StartChar: h
Encoding: 332 104 76
Width: 552
GlyphClass: 2
Flags: W
LayerCount: 2
Fore
SplineSet
50 758 m 1,0,-1
 136 758 l 1,1,-1
 136 470 l 1,2,3
 192 543 192 543 261 556 c 0,4,5
 283 561 283 561 311 561 c 0,6,7
 425 561 425 561 466 484 c 0,8,9
 482 452 482 452 482 412 c 2,10,-1
 482 0 l 1,11,-1
 396 0 l 1,12,-1
 396 378 l 2,13,14
 396 435 396 435 361 460 c 0,15,16
 327 485 327 485 284 485 c 0,17,18
 196 485 196 485 158 405 c 0,19,20
 136 361 136 361 136 301 c 2,21,-1
 136 0 l 1,22,-1
 50 0 l 1,23,-1
 50 758 l 1,0,-1
EndSplineSet
Validated: 1
EndChar

StartChar: i
Encoding: 333 105 77
Width: 227
GlyphClass: 2
Flags: W
LayerCount: 2
Fore
SplineSet
157 758 m 1,0,-1
 157 649 l 1,1,-1
 70 649 l 1,2,-1
 70 758 l 1,3,-1
 157 758 l 1,0,-1
157 545 m 1,4,-1
 157 0 l 1,5,-1
 71 0 l 1,6,-1
 71 545 l 1,7,-1
 157 545 l 1,4,-1
EndSplineSet
Validated: 1
EndChar

StartChar: j
Encoding: 334 106 78
Width: 318
GlyphClass: 2
Flags: W
LayerCount: 2
Fore
SplineSet
238 781 m 1,0,-1
 238 672 l 1,1,-1
 152 672 l 1,2,-1
 152 781 l 1,3,-1
 238 781 l 1,0,-1
152 568 m 1,4,-1
 238 568 l 1,5,-1
 238 -90 l 2,6,7
 238 -197 238 -197 105 -204 c 1,8,-1
 89 -204 l 2,9,10
 76 -204 76 -204 60 -201 c 1,11,-1
 60 -127 l 1,12,13
 78 -128 78 -128 81 -128 c 0,14,15
 135 -128 135 -128 147 -95 c 0,16,17
 152 -80 152 -80 152 -56 c 2,18,-1
 152 568 l 1,4,-1
EndSplineSet
Validated: 1
EndChar

StartChar: k
Encoding: 335 107 79
Width: 582
GlyphClass: 2
Flags: W
LayerCount: 2
Fore
SplineSet
137 758 m 1,0,-1
 137 314 l 1,1,-1
 368 545 l 1,2,-1
 479 545 l 1,3,-1
 290 357 l 1,4,-1
 512 0 l 1,5,-1
 405 0 l 1,6,-1
 221 295 l 1,7,-1
 137 212 l 1,8,-1
 137 0 l 1,9,-1
 50 0 l 1,10,-1
 50 758 l 1,11,-1
 137 758 l 1,0,-1
EndSplineSet
Validated: 1
EndChar

StartChar: l
Encoding: 336 108 80
Width: 227
GlyphClass: 2
Flags: W
LayerCount: 2
Fore
SplineSet
157 758 m 1,0,-1
 157 0 l 1,1,-1
 70 0 l 1,2,-1
 70 758 l 1,3,-1
 157 758 l 1,0,-1
EndSplineSet
Validated: 1
EndChar

StartChar: m
Encoding: 337 109 81
Width: 819
GlyphClass: 2
Flags: W
LayerCount: 2
Fore
SplineSet
50 545 m 1,0,-1
 130 545 l 1,1,-1
 130 468 l 1,2,3
 186 547 186 547 263 558 c 0,4,5
 279 561 279 561 297 561 c 0,6,7
 390 561 390 561 435 493 c 0,8,9
 440 486 440 486 444 477 c 1,10,11
 500 545 500 545 566 556 c 1,12,13
 586 561 586 561 611 561 c 0,14,15
 738 561 738 561 764 459 c 0,16,17
 769 436 769 436 769 409 c 2,18,-1
 769 0 l 1,19,-1
 682 0 l 1,20,-1
 682 375 l 2,21,22
 682 460 682 460 617 479 c 0,23,24
 600 485 600 485 581 485 c 0,25,26
 517 485 517 485 478 426 c 0,27,28
 453 389 453 389 453 342 c 2,29,-1
 453 0 l 1,30,-1
 366 0 l 1,31,-1
 366 375 l 2,32,33
 366 466 366 466 292 482 c 0,34,35
 280 485 280 485 265 485 c 0,36,37
 202 485 202 485 163 428 c 0,38,39
 137 390 137 390 137 342 c 2,40,-1
 137 0 l 1,41,-1
 50 0 l 1,42,-1
 50 545 l 1,0,-1
EndSplineSet
Validated: 1
EndChar

StartChar: n
Encoding: 338 110 82
Width: 533
GlyphClass: 2
Flags: W
LayerCount: 2
Fore
SplineSet
50 545 m 1,0,-1
 130 545 l 1,1,-1
 130 453 l 1,2,3
 186 542 186 542 265 556 c 1,4,5
 286 561 286 561 311 561 c 0,6,7
 420 561 420 561 464 488 c 1,8,9
 483 454 483 454 483 412 c 2,10,-1
 483 0 l 1,11,-1
 397 0 l 1,12,-1
 397 378 l 2,13,14
 397 450 397 450 336 475 c 0,15,16
 313 485 313 485 285 485 c 0,17,18
 197 485 197 485 159 405 c 0,19,20
 137 361 137 361 137 301 c 2,21,-1
 137 0 l 1,22,-1
 50 0 l 1,23,-1
 50 545 l 1,0,-1
EndSplineSet
Validated: 1
EndChar

StartChar: o
Encoding: 339 111 83
Width: 553
GlyphClass: 2
Flags: W
LayerCount: 2
Fore
SplineSet
277 504 m 0,0,1
 180 504 180 504 141 409 c 0,2,3
 121 359 121 359 121 292 c 0,4,5
 121 150 121 150 202 100 c 0,6,7
 234 80 234 80 277 80 c 0,8,9
 371 80 371 80 411 172 c 0,10,11
 433 221 433 221 433 289 c 0,12,13
 433 440 433 440 348 488 c 1,14,15
 316 504 316 504 277 504 c 0,0,1
276 585 m 0,16,17
 433 585 433 585 493 450 c 0,18,19
 523 382 523 382 523 288 c 0,20,21
 523 114 523 114 417 41 c 0,22,23
 359 0 359 0 277 0 c 0,24,25
 127 0 127 0 65 124 c 0,26,27
 30 194 30 194 30 292 c 0,28,29
 30 473 30 473 140 546 c 0,30,31
 197 585 197 585 276 585 c 0,16,17
EndSplineSet
Validated: 1
EndChar

StartChar: p
Encoding: 340 112 84
Width: 588
GlyphClass: 2
Flags: W
LayerCount: 2
Fore
SplineSet
289 501 m 0,0,1
 203 501 203 501 162 414 c 0,2,3
 138 362 138 362 138 290 c 0,4,5
 138 160 138 160 209 106 c 0,6,7
 244 79 244 79 289 79 c 0,8,9
 377 79 377 79 420 163 c 0,10,11
 447 215 447 215 447 287 c 0,12,13
 447 419 447 419 374 474 c 0,14,15
 337 501 337 501 289 501 c 0,0,1
50 -205 m 1,16,-1
 50 567 l 1,17,-1
 130 567 l 1,18,-1
 130 485 l 1,19,20
 192 583 192 583 304 583 c 0,21,22
 436 583 436 583 498 467 c 0,23,24
 538 393 538 393 538 285 c 0,25,26
 538 125 538 125 445 47 c 0,27,28
 387 -2 387 -2 305 -2 c 0,29,30
 204 -2 204 -2 138 79 c 1,31,-1
 138 -205 l 1,32,-1
 50 -205 l 1,16,-1
EndSplineSet
Validated: 1
EndChar

StartChar: q
Encoding: 341 113 85
Width: 568
GlyphClass: 2
Flags: W
LayerCount: 2
Fore
SplineSet
300 504 m 0,0,1
 212 504 212 504 169 420 c 0,2,3
 141 367 141 367 141 293 c 0,4,5
 141 166 141 166 213 110 c 1,6,7
 251 82 251 82 300 82 c 0,8,9
 385 82 385 82 427 166 c 1,10,11
 451 218 451 218 451 290 c 0,12,13
 451 426 451 426 378 479 c 0,14,15
 343 504 343 504 300 504 c 0,0,1
538 -202 m 1,16,-1
 451 -202 l 1,17,-1
 451 87 l 1,18,19
 392 1 392 1 283 1 c 0,20,21
 150 1 150 1 89 113 c 0,22,23
 50 184 50 184 50 287 c 0,24,25
 50 455 50 455 145 535 c 1,26,27
 204 586 204 586 287 586 c 0,28,29
 398 586 398 586 461 497 c 1,30,-1
 461 570 l 1,31,-1
 538 570 l 1,32,-1
 538 -202 l 1,16,-1
EndSplineSet
Validated: 1
EndChar

StartChar: r
Encoding: 342 114 86
Width: 362
GlyphClass: 2
Flags: W
LayerCount: 2
Fore
SplineSet
50 545 m 1,0,-1
 130 545 l 1,1,-1
 130 446 l 1,2,3
 190 543 190 543 250 557 c 0,4,5
 264 561 264 561 279 561 c 0,6,7
 290 561 290 561 312 557 c 1,8,-1
 312 469 l 1,9,10
 237 468 237 468 205 446 c 1,11,-1
 198 442 l 1,12,13
 137 397 137 397 137 283 c 2,14,-1
 137 0 l 1,15,-1
 50 0 l 1,16,-1
 50 545 l 1,0,-1
EndSplineSet
Validated: 1
EndChar

StartChar: s
Encoding: 343 115 87
Width: 502
GlyphClass: 2
Flags: W
LayerCount: 2
Fore
SplineSet
451 415 m 1,0,-1
 359 415 l 1,1,2
 356 502 356 502 250 502 c 0,3,4
 165 502 165 502 141 452 c 0,5,6
 134 437 134 437 134 420 c 0,7,8
 134 374 134 374 203 351 c 0,9,10
 218 346 218 346 235 342 c 2,11,-1
 318 323 l 1,12,13
 441 293 441 293 465 221 c 0,14,15
 472 199 472 199 472 171 c 0,16,17
 472 72 472 72 381 26 c 0,18,19
 326 -2 326 -2 248 -2 c 0,20,21
 46 -2 46 -2 31 167 c 0,22,23
 30 175 30 175 30 184 c 1,24,-1
 122 184 l 1,25,26
 128 135 128 135 147 115 c 0,27,28
 181 78 181 78 255 78 c 0,29,30
 342 78 342 78 371 127 c 0,31,32
 382 144 382 144 382 163 c 0,33,34
 382 211 382 211 326 231 c 0,35,36
 313 235 313 235 298 239 c 2,37,-1
 217 259 l 2,38,39
 93 290 93 290 61 342 c 0,40,41
 44 371 44 371 44 416 c 0,42,43
 44 513 44 513 131 557 c 0,44,45
 182 583 182 583 253 583 c 0,46,47
 404 583 404 583 440 478 c 1,48,49
 451 449 451 449 451 415 c 1,0,-1
EndSplineSet
Validated: 1
EndChar

StartChar: t
Encoding: 344 116 88
Width: 369
GlyphClass: 2
Flags: W
LayerCount: 2
Fore
SplineSet
309 568 m 1,0,-1
 309 497 l 1,1,-1
 220 497 l 1,2,-1
 220 124 l 2,3,4
 220 84 220 84 243 78 c 0,5,6
 252 75 252 75 268 75 c 0,7,8
 294 75 294 75 309 79 c 1,9,-1
 309 6 l 1,10,11
 269 -1 269 -1 238 -1 c 0,12,13
 146 -1 146 -1 134 69 c 0,14,15
 133 76 133 76 133 85 c 2,16,-1
 133 497 l 1,17,-1
 60 497 l 1,18,-1
 60 568 l 1,19,-1
 133 568 l 1,20,-1
 133 718 l 1,21,-1
 220 718 l 1,22,-1
 220 568 l 1,23,-1
 309 568 l 1,0,-1
EndSplineSet
Validated: 1
EndChar

StartChar: u
Encoding: 345 117 89
Width: 533
GlyphClass: 2
Flags: W
LayerCount: 2
Fore
SplineSet
483 23 m 1,0,-1
 405 23 l 1,1,-1
 405 99 l 1,2,3
 347 17 347 17 270 3 c 0,4,5
 249 -1 249 -1 223 -1 c 0,6,7
 112 -1 112 -1 69 72 c 0,8,9
 50 105 50 105 50 148 c 2,10,-1
 50 568 l 1,11,-1
 136 568 l 1,12,-1
 136 182 l 2,13,14
 136 109 136 109 197 84 c 0,15,16
 220 75 220 75 248 75 c 0,17,18
 337 75 337 75 376 156 c 0,19,20
 397 200 397 200 397 259 c 2,21,-1
 397 568 l 1,22,-1
 483 568 l 1,23,-1
 483 23 l 1,0,-1
EndSplineSet
Validated: 1
EndChar

StartChar: v
Encoding: 346 118 90
Width: 535
GlyphClass: 2
Flags: W
LayerCount: 2
Fore
SplineSet
306 0 m 1,0,-1
 212 0 l 1,1,-1
 20 545 l 1,2,-1
 118 545 l 1,3,-1
 264 103 l 1,4,-1
 418 545 l 1,5,-1
 515 545 l 1,6,-1
 306 0 l 1,0,-1
EndSplineSet
Validated: 1
EndChar

StartChar: w
Encoding: 347 119 91
Width: 770
GlyphClass: 2
Flags: W
LayerCount: 2
Fore
SplineSet
590 0 m 1,0,-1
 491 0 l 1,1,-1
 381 427 l 1,2,-1
 276 0 l 1,3,-1
 178 0 l 1,4,-1
 20 545 l 1,5,-1
 116 545 l 1,6,-1
 227 121 l 1,7,-1
 331 545 l 1,8,-1
 437 545 l 1,9,-1
 544 121 l 1,10,-1
 653 545 l 1,11,-1
 750 545 l 1,12,-1
 590 0 l 1,0,-1
EndSplineSet
Validated: 1
EndChar

StartChar: x
Encoding: 348 120 92
Width: 574
GlyphClass: 2
Flags: W
LayerCount: 2
Fore
SplineSet
336 282 m 1,0,-1
 524 0 l 1,1,-1
 423 0 l 1,2,-1
 287 209 l 1,3,-1
 148 0 l 1,4,-1
 50 0 l 1,5,-1
 242 278 l 1,6,-1
 60 545 l 1,7,-1
 159 545 l 1,8,-1
 290 347 l 1,9,-1
 421 545 l 1,10,-1
 519 545 l 1,11,-1
 336 282 l 1,0,-1
EndSplineSet
Validated: 1
EndChar

StartChar: y
Encoding: 349 121 93
Width: 516
GlyphClass: 2
Flags: W
LayerCount: 2
Fore
SplineSet
403 570 m 1,0,-1
 496 570 l 1,1,-1
 254 -89 l 2,2,3
 231 -149 231 -149 195 -176 c 0,4,5
 159 -202 159 -202 113 -202 c 0,6,7
 81 -202 81 -202 55 -188 c 1,8,-1
 55 -110 l 1,9,10
 83 -116 83 -116 101 -116 c 0,11,12
 148 -116 148 -116 166 -75 c 0,13,14
 169 -70 169 -70 171 -63 c 2,15,-1
 204 23 l 1,16,-1
 20 570 l 1,17,-1
 112 570 l 1,18,-1
 252 146 l 1,19,-1
 403 570 l 1,0,-1
EndSplineSet
Validated: 1
EndChar

StartChar: z
Encoding: 350 122 94
Width: 543
GlyphClass: 2
Flags: W
LayerCount: 2
Fore
SplineSet
479 545 m 1,0,-1
 479 468 l 1,1,-1
 155 76 l 1,2,-1
 493 76 l 1,3,-1
 493 0 l 1,4,-1
 50 0 l 1,5,-1
 50 78 l 1,6,-1
 376 469 l 1,7,-1
 72 469 l 1,8,-1
 72 545 l 1,9,-1
 479 545 l 1,0,-1
EndSplineSet
Validated: 1
EndChar

StartChar: braceleft
Encoding: 351 123 95
Width: 347
GlyphClass: 2
Flags: W
LayerCount: 2
Fore
SplineSet
287 758 m 1,0,-1
 287 691 l 1,1,-1
 271 691 l 2,2,3
 223 691 223 691 211 662 c 0,4,5
 206 648 206 648 206 621 c 2,6,-1
 206 433 l 2,7,8
 206 331 206 331 163 294 c 0,9,10
 147 280 147 280 121 269 c 1,11,12
 206 230 206 230 206 105 c 2,13,-1
 206 -83 l 2,14,15
 206 -135 206 -135 232 -147 c 0,16,17
 245 -153 245 -153 271 -153 c 2,18,-1
 287 -153 l 1,19,-1
 287 -220 l 1,20,-1
 239 -220 l 2,21,22
 154 -220 154 -220 132 -137 c 0,23,24
 126 -113 126 -113 126 -84 c 2,25,-1
 126 89 l 2,26,27
 126 186 126 186 89 214 c 0,28,29
 73 227 73 227 45 233 c 1,30,-1
 45 305 l 1,31,32
 101 316 101 316 115 362 c 1,33,34
 126 392 126 392 126 448 c 2,35,-1
 126 622 l 2,36,37
 126 728 126 728 200 752 c 0,38,39
 218 758 218 758 239 758 c 2,40,-1
 287 758 l 1,0,-1
EndSplineSet
Validated: 1
EndChar

StartChar: bar
Encoding: 352 124 96
Width: 270
GlyphClass: 2
Flags: W
LayerCount: 2
Fore
SplineSet
104 758 m 1,0,-1
 166 758 l 1,1,-1
 166 -220 l 1,2,-1
 104 -220 l 1,3,-1
 104 758 l 1,0,-1
EndSplineSet
Validated: 1
EndChar

StartChar: braceright
Encoding: 353 125 97
Width: 347
GlyphClass: 2
Flags: W
LayerCount: 2
Fore
SplineSet
30 -220 m 1,0,-1
 30 -153 l 1,1,-1
 47 -153 l 2,2,3
 97 -153 97 -153 108 -125 c 0,4,5
 113 -110 113 -110 113 -83 c 2,6,-1
 113 105 l 2,7,8
 113 230 113 230 199 268 c 1,9,10
 113 308 113 308 113 433 c 2,11,-1
 113 621 l 2,12,13
 113 673 113 673 86 684 c 1,14,15
 73 691 73 691 47 691 c 2,16,-1
 30 691 l 1,17,-1
 30 758 l 1,18,-1
 79 758 l 2,19,20
 165 758 165 758 187 674 c 0,21,22
 193 650 193 650 193 622 c 2,23,-1
 193 448 l 2,24,25
 193 350 193 350 231 322 c 0,26,27
 246 310 246 310 272 305 c 1,28,-1
 272 233 l 1,29,30
 218 222 218 222 203 174 c 0,31,32
 193 145 193 145 193 89 c 2,33,-1
 193 -84 l 2,34,35
 193 -191 193 -191 118 -215 c 0,36,37
 100 -220 100 -220 79 -220 c 2,38,-1
 30 -220 l 1,0,-1
EndSplineSet
Validated: 1
EndChar

StartChar: asciitilde
Encoding: 354 126 98
Width: 607
GlyphClass: 2
Flags: W
LayerCount: 2
Fore
SplineSet
473 427 m 1,0,-1
 528 427 l 1,1,-1
 528 411 l 2,2,3
 528 322 528 322 469 291 c 0,4,5
 447 279 447 279 419 279 c 0,6,7
 379 279 379 279 335 306 c 2,8,-1
 233 371 l 2,9,10
 209 386 209 386 188 386 c 0,11,12
 158 386 158 386 141 349 c 1,13,14
 136 335 136 335 133 305 c 1,15,-1
 78 305 l 1,16,17
 85 441 85 441 173 454 c 0,18,19
 181 456 181 456 190 456 c 0,20,21
 218 456 218 456 246 439 c 2,22,-1
 368 367 l 2,23,24
 397 349 397 349 420 349 c 0,25,26
 466 349 466 349 472 400 c 1,27,-1
 473 427 l 1,0,-1
EndSplineSet
Validated: 1
EndChar

StartChar: SignCandraBindu
Encoding: 355 2305 99
Width: 0
GlyphClass: 2
Flags: W
AnchorPoint: "Anchor-1" -186 634 mark 0
LayerCount: 2
Fore
SplineSet
0 847 m 1,0,1
 0 770 0 770 -57 721 c 128,-1,2
 -114 672 -114 672 -192 672 c 2,3,-1
 -195 672 l 2,4,5
 -268 672 -268 672 -326 721 c 1,6,7
 -383 772 -383 772 -383 847 c 1,8,-1
 -310 847 l 1,9,10
 -310 803 -310 803 -274 774 c 128,-1,11
 -238 745 -238 745 -192 745 c 0,12,13
 -142 745 -142 745 -108 772 c 0,14,15
 -75 798 -75 798 -75 847 c 1,16,-1
 0 847 l 1,0,1
-115 853 m 1,17,-1
 -190 778 l 1,18,-1
 -259 847 l 1,19,-1
 -185 922 l 1,20,-1
 -115 853 l 1,17,-1
EndSplineSet
Validated: 1
EndChar

StartChar: Signanusvara
Encoding: 356 2306 100
Width: 0
GlyphClass: 4
Flags: W
AnchorPoint: "Anchor-1" -114 612 mark 0
LayerCount: 2
Fore
SplineSet
-19 779 m 1,0,-1
 -113 685 l 1,1,-1
 -199 771 l 1,2,-1
 -106 865 l 1,3,-1
 -19 779 l 1,0,-1
EndSplineSet
Validated: 1
EndChar

StartChar: uni0903
Encoding: 357 2307 101
Width: 313
GlyphClass: 2
Flags: W
LayerCount: 2
Fore
SplineSet
246 139 m 1,0,-1
 153 45 l 1,1,-1
 67 131 l 1,2,-1
 160 225 l 1,3,-1
 246 139 l 1,0,-1
243 423 m 1,4,-1
 150 329 l 1,5,-1
 63 416 l 1,6,-1
 156 510 l 1,7,-1
 243 423 l 1,4,-1
EndSplineSet
Validated: 1
EndChar

StartChar: LetterShortA
Encoding: 358 2308 102
Width: 735
GlyphClass: 4
Flags: W
LayerCount: 2
Fore
SplineSet
616 750 m 0,0,1
 630 733 630 733 642 684 c 0,2,3
 645 672 645 672 650 628 c 1,4,-1
 735 628 l 1,5,-1
 735 553 l 1,6,-1
 646 553 l 1,7,-1
 646 -1 l 1,8,-1
 570 -1 l 1,9,-1
 570 268 l 1,10,11
 566 266 566 266 536 260 c 0,12,13
 522 257 522 257 503 257 c 0,14,15
 473 257 473 257 454 269 c 1,16,17
 461 247 461 247 461 216 c 0,18,19
 461 60 461 60 301 59 c 1,20,-1
 299 59 l 2,21,22
 207 59 207 59 110 169 c 1,23,24
 34 259 34 259 31 299 c 1,25,-1
 91 335 l 1,26,27
 132 264 132 264 155 235 c 0,28,29
 235 134 235 134 301 134 c 2,30,-1
 305 134 l 2,31,32
 386 134 386 134 386 216 c 0,33,34
 386 269 386 269 354 299 c 0,35,36
 322 328 322 328 274 328 c 0,37,38
 229 328 229 328 211 318 c 1,39,-1
 186 380 l 1,40,41
 202 380 202 380 210 379 c 1,42,43
 264 379 264 379 298 406 c 128,-1,44
 332 433 332 433 334 482 c 1,45,46
 334 553 334 553 260 553 c 0,47,48
 206 553 206 553 161 511 c 0,49,50
 145 496 145 496 133 478 c 1,51,-1
 73 523 l 1,52,53
 73 538 73 538 127 577 c 1,54,55
 194 628 194 628 263 628 c 2,56,-1
 268 628 l 2,57,58
 324 628 324 628 366 586 c 128,-1,59
 408 544 408 544 408 481 c 0,60,61
 408 415 408 415 349 372 c 1,62,63
 370 368 370 368 385 359 c 1,64,-1
 402 352 l 1,65,-1
 442 335 l 2,66,67
 458 328 458 328 491 328 c 0,68,69
 504 328 504 328 544 338 c 1,70,71
 550 338 550 338 570 346 c 1,72,-1
 570 553 l 1,73,-1
 464 553 l 1,74,-1
 464 628 l 1,75,-1
 576 628 l 1,76,-1
 576 678 l 1,77,78
 574 728 574 728 526 740 c 0,79,80
 519 742 519 742 513 741 c 2,81,-1
 492 738 l 1,82,83
 397 713 397 713 379 710 c 0,84,85
 372 709 372 709 364 709 c 0,86,87
 329 709 329 709 302 726 c 0,88,89
 262 752 262 752 262 798 c 2,90,-1
 262 877 l 1,91,-1
 329 877 l 1,92,-1
 329 822 l 2,93,94
 329 776 329 776 370 775 c 1,95,-1
 372 775 l 2,96,97
 389 775 389 775 454 794 c 0,98,99
 492 805 492 805 519 805 c 0,100,101
 538 805 538 805 553 800 c 0,102,103
 586 789 586 789 616 750 c 0,0,1
EndSplineSet
Validated: 1
EndChar

StartChar: LetterA
Encoding: 359 2309 103
Width: 734
GlyphClass: 2
Flags: W
LayerCount: 2
Fore
SplineSet
734 553 m 1,0,-1
 646 553 l 1,1,-1
 646 -1 l 1,2,-1
 570 -1 l 1,3,-1
 570 268 l 1,4,5
 566 266 566 266 536 260 c 0,6,7
 522 257 522 257 503 257 c 0,8,9
 473 257 473 257 454 269 c 1,10,11
 461 247 461 247 461 216 c 0,12,13
 461 59 461 59 301 59 c 2,14,-1
 299 59 l 2,15,16
 210 59 210 59 110 169 c 0,17,18
 31 256 31 256 31 299 c 1,19,-1
 91 335 l 1,20,21
 132 263 132 263 155 235 c 0,22,23
 236 134 236 134 301 134 c 2,24,-1
 305 134 l 2,25,26
 386 134 386 134 386 216 c 0,27,28
 386 269 386 269 354 299 c 0,29,30
 322 328 322 328 274 328 c 0,31,32
 229 328 229 328 211 318 c 1,33,-1
 186 380 l 1,34,35
 202 380 202 380 210 379 c 1,36,37
 264 379 264 379 298 406 c 0,38,39
 334 435 334 435 334 482 c 2,40,-1
 334 484 l 2,41,42
 334 553 334 553 260 553 c 0,43,44
 206 553 206 553 161 511 c 0,45,46
 145 496 145 496 133 478 c 1,47,-1
 73 523 l 1,48,49
 73 536 73 536 127 577 c 0,50,51
 194 628 194 628 263 628 c 2,52,-1
 266 628 l 2,53,54
 323 628 323 628 366 586 c 0,55,56
 408 545 408 545 408 481 c 0,57,58
 408 415 408 415 349 372 c 1,59,60
 358 370 358 370 386 359 c 1,61,-1
 402 352 l 1,62,-1
 442 335 l 2,63,64
 458 328 458 328 491 328 c 0,65,66
 498 328 498 328 544 338 c 0,67,68
 557 341 557 341 570 346 c 1,69,-1
 570 553 l 1,70,-1
 464 553 l 1,71,-1
 464 628 l 1,72,-1
 734 628 l 1,73,-1
 734 553 l 1,0,-1
EndSplineSet
Validated: 1
EndChar

StartChar: LetterAA
Encoding: 360 2310 104
Width: 848
GlyphClass: 2
Flags: W
LayerCount: 2
Fore
SplineSet
691 553 m 1,0,-1
 617 553 l 1,1,-1
 617 -1 l 1,2,-1
 542 -1 l 1,3,-1
 542 268 l 1,4,5
 538 268 538 268 509 260 c 1,6,7
 492 257 492 257 475 257 c 2,8,-1
 470 257 l 1,9,-1
 466 257 l 1,10,-1
 463 257 l 2,11,12
 444 257 444 257 426 268 c 1,13,14
 433 246 433 246 433 216 c 0,15,16
 433 59 433 59 274 59 c 2,17,-1
 272 59 l 2,18,19
 180 59 180 59 83 169 c 0,20,21
 4 259 4 259 4 299 c 1,22,-1
 64 335 l 1,23,24
 102 268 102 268 127 235 c 0,25,26
 205 134 205 134 274 134 c 2,27,-1
 278 134 l 2,28,29
 359 134 359 134 359 216 c 0,30,31
 359 269 359 269 326 299 c 0,32,33
 294 328 294 328 246 328 c 0,34,35
 202 328 202 328 184 318 c 1,36,-1
 158 380 l 1,37,38
 174 380 174 380 182 379 c 1,39,40
 234 379 234 379 270 406 c 128,-1,41
 306 433 306 433 306 482 c 0,42,43
 306 553 306 553 233 553 c 0,44,45
 175 553 175 553 133 511 c 0,46,47
 118 496 118 496 106 478 c 1,48,-1
 46 523 l 1,49,50
 46 538 46 538 100 577 c 1,51,52
 167 628 167 628 235 628 c 2,53,-1
 240 628 l 2,54,55
 294 628 294 628 338 586 c 0,56,57
 380 546 380 546 380 481 c 0,58,59
 380 415 380 415 322 372 c 1,60,61
 343 368 343 368 359 359 c 1,62,-1
 374 352 l 1,63,-1
 414 335 l 2,64,65
 430 328 430 328 463 328 c 0,66,67
 476 328 476 328 516 338 c 1,68,69
 522 338 522 338 542 346 c 1,70,-1
 542 553 l 1,71,-1
 437 553 l 1,72,-1
 437 628 l 1,73,-1
 848 628 l 1,74,-1
 848 553 l 1,75,-1
 769 553 l 1,76,-1
 769 -1 l 1,77,-1
 696 -1 l 1,78,-1
 691 553 l 1,0,-1
EndSplineSet
Validated: 1
EndChar

StartChar: LetterI
Encoding: 361 2311 105
Width: 475
GlyphClass: 2
Flags: W
AnchorPoint: "Anchor-1" 386 624 basechar 0
LayerCount: 2
Fore
SplineSet
475 553 m 1,0,-1
 383 553 l 1,1,-1
 383 379 l 1,2,-1
 143 379 l 2,3,4
 136 379 136 379 136 373 c 0,5,6
 136 357 136 357 174 316 c 0,7,8
 210 277 210 277 230 277 c 2,9,-1
 232 277 l 1,10,11
 256 282 256 282 293 293 c 0,12,13
 332 304 332 304 355 304 c 0,14,15
 389 304 389 304 414 274 c 0,16,17
 439 245 439 245 439 211 c 0,18,19
 439 65 439 65 296 19 c 1,20,21
 313 -6 313 -6 361 -44 c 1,22,-1
 364 -47 l 1,23,24
 414 -90 414 -90 438 -90 c 1,25,-1
 392 -155 l 1,26,27
 359 -134 359 -134 344 -122 c 1,28,29
 324 -109 324 -109 286 -74 c 1,30,31
 271 -64 271 -64 238 -28 c 1,32,-1
 203 8 l 1,33,34
 43 8 43 8 43 101 c 0,35,36
 43 127 43 127 62 145 c 0,37,38
 82 164 82 164 107 164 c 2,39,-1
 110 164 l 2,40,41
 143 164 143 164 188 126 c 1,42,-1
 241 72 l 1,43,44
 275 72 275 72 311 94 c 1,45,46
 364 121 364 121 364 173 c 0,47,48
 364 198 364 198 359 211 c 0,49,50
 353 227 353 227 331 227 c 2,51,-1
 329 227 l 2,52,53
 317 227 317 227 274 217 c 1,54,55
 234 205 234 205 214 205 c 0,56,57
 167 205 167 205 109 278 c 1,58,59
 50 356 50 356 50 398 c 2,60,-1
 50 403 l 1,61,-1
 50 407 l 1,62,-1
 50 410 l 2,63,64
 50 422 50 422 67 439 c 0,65,66
 83 455 83 455 110 455 c 2,67,-1
 308 455 l 1,68,-1
 308 553 l 1,69,-1
 0 553 l 1,70,-1
 0 628 l 1,71,-1
 475 628 l 1,72,-1
 475 553 l 1,0,-1
EndSplineSet
Validated: 1
EndChar

StartChar: LetterII
Encoding: 362 2312 106
Width: 475
GlyphClass: 2
Flags: W
AnchorPoint: "Anchor-1" 366 633 basechar 0
LayerCount: 2
Fore
SplineSet
475 553 m 1,0,-1
 383 553 l 1,1,-1
 383 379 l 1,2,-1
 143 379 l 2,3,4
 136 379 136 379 136 373 c 0,5,6
 136 357 136 357 174 316 c 0,7,8
 210 277 210 277 230 277 c 2,9,-1
 232 277 l 1,10,11
 256 282 256 282 293 293 c 0,12,13
 332 304 332 304 355 304 c 0,14,15
 389 304 389 304 414 274 c 0,16,17
 439 245 439 245 439 211 c 0,18,19
 439 65 439 65 296 19 c 1,20,21
 313 -6 313 -6 361 -44 c 1,22,-1
 364 -47 l 1,23,24
 414 -90 414 -90 438 -90 c 1,25,-1
 392 -155 l 1,26,27
 359 -134 359 -134 344 -122 c 1,28,29
 324 -109 324 -109 286 -74 c 1,30,31
 271 -64 271 -64 238 -28 c 1,32,-1
 203 8 l 1,33,34
 43 8 43 8 43 101 c 0,35,36
 43 127 43 127 62 145 c 0,37,38
 82 164 82 164 107 164 c 2,39,-1
 110 164 l 2,40,41
 143 164 143 164 188 126 c 1,42,-1
 241 72 l 1,43,44
 275 72 275 72 311 94 c 1,45,46
 364 121 364 121 364 173 c 0,47,48
 364 198 364 198 359 211 c 0,49,50
 353 227 353 227 331 227 c 2,51,-1
 329 227 l 2,52,53
 317 227 317 227 274 217 c 1,54,55
 234 205 234 205 214 205 c 0,56,57
 167 205 167 205 109 278 c 1,58,59
 50 356 50 356 50 398 c 2,60,-1
 50 403 l 1,61,-1
 50 407 l 1,62,-1
 50 410 l 2,63,64
 50 422 50 422 67 439 c 0,65,66
 83 455 83 455 110 455 c 2,67,-1
 308 455 l 1,68,-1
 308 553 l 1,69,-1
 0 553 l 1,70,-1
 0 628 l 1,71,-1
 475 628 l 1,72,-1
 475 553 l 1,0,-1
430 854 m 1,73,74
 407 859 407 859 360 868 c 1,75,76
 290 868 290 868 290 792 c 2,77,-1
 290 790 l 2,78,79
 290 748 290 748 332 684 c 0,80,81
 349 658 349 658 374 631 c 1,82,-1
 316 631 l 1,83,84
 281 675 281 675 271 691 c 0,85,86
 227 763 227 763 227 816 c 2,87,-1
 227 819 l 2,88,89
 227 870 227 870 266 900 c 0,90,91
 301 926 301 926 358 926 c 2,92,-1
 368 926 l 2,93,94
 397 926 397 926 430 914 c 1,95,-1
 430 854 l 1,73,74
EndSplineSet
Validated: 1
EndChar

StartChar: LetterU
Encoding: 363 2313 107
Width: 596
GlyphClass: 2
Flags: W
LayerCount: 2
Fore
SplineSet
596 553 m 1,0,-1
 479 553 l 1,1,2
 523 484 523 484 523 433 c 0,3,4
 523 368 523 368 467 326 c 1,5,6
 559 281 559 281 559 158 c 2,7,-1
 559 155 l 2,8,9
 559 88 559 88 505 38 c 0,10,11
 457 -6 457 -6 379 -6 c 2,12,-1
 377 -6 l 2,13,14
 216 -6 216 -6 83 283 c 1,15,16
 63 324 63 324 43 384 c 0,17,18
 42 387 42 387 43 388 c 2,19,-1
 108 426 l 1,20,21
 108 414 108 414 145 328 c 0,22,23
 183 240 183 240 236 168 c 0,24,25
 311 68 311 68 377 68 c 0,26,27
 484 68 484 68 484 164 c 2,28,-1
 484 169 l 2,29,30
 484 212 484 212 449 251 c 128,-1,31
 414 290 414 290 366 290 c 2,32,-1
 266 290 l 1,33,-1
 234 365 l 1,34,-1
 308 365 l 2,35,36
 358 365 358 365 378 370 c 1,37,38
 449 384 449 384 449 439 c 0,39,40
 449 467 449 467 421 515 c 1,41,42
 409 538 409 538 395 553 c 1,43,-1
 0 553 l 1,44,-1
 0 628 l 1,45,-1
 596 628 l 1,46,-1
 596 553 l 1,0,-1
EndSplineSet
Validated: 1
EndChar

StartChar: LetterUU
Encoding: 364 2314 108
Width: 823
GlyphClass: 2
Flags: W
AnchorPoint: "Anchor-1" 398 630 basechar 0
LayerCount: 2
Fore
SplineSet
551 221 m 1,0,1
 559 196 559 196 559 158 c 2,2,-1
 559 155 l 2,3,4
 559 88 559 88 505 38 c 0,5,6
 457 -6 457 -6 379 -6 c 2,7,-1
 377 -6 l 2,8,9
 216 -6 216 -6 83 283 c 1,10,11
 63 324 63 324 43 384 c 0,12,13
 42 387 42 387 43 388 c 2,14,-1
 108 426 l 1,15,16
 108 414 108 414 145 328 c 0,17,18
 183 240 183 240 236 168 c 0,19,20
 311 68 311 68 377 68 c 0,21,22
 484 68 484 68 484 164 c 2,23,-1
 484 169 l 2,24,25
 484 212 484 212 449 251 c 128,-1,26
 414 290 414 290 366 290 c 2,27,-1
 266 290 l 1,28,-1
 234 365 l 1,29,-1
 308 365 l 2,30,31
 358 365 358 365 378 370 c 1,32,33
 449 384 449 384 449 439 c 0,34,35
 449 467 449 467 421 515 c 1,36,37
 409 538 409 538 395 553 c 1,38,-1
 0 553 l 1,39,-1
 0 628 l 1,40,-1
 823 628 l 1,41,-1
 823 553 l 1,42,-1
 479 553 l 1,43,44
 523 484 523 484 523 433 c 0,45,46
 523 368 523 368 467 326 c 1,47,48
 487 317 487 317 514 290 c 1,49,50
 582 368 582 368 650 368 c 2,51,-1
 655 368 l 2,52,53
 706 368 706 368 748 328 c 1,54,55
 787 284 787 284 787 228 c 0,56,57
 787 163 787 163 731 79 c 1,58,59
 713 50 713 50 674 5 c 1,60,-1
 614 41 l 1,61,62
 713 174 713 174 713 223 c 2,63,-1
 713 226 l 2,64,65
 713 251 713 251 696 272 c 0,66,67
 678 294 678 294 648 294 c 0,68,69
 612 294 612 294 551 221 c 1,0,1
EndSplineSet
Validated: 1
EndChar

StartChar: LetterVocalicR
Encoding: 365 2315 109
Width: 943
GlyphClass: 2
Flags: W
AnchorPoint: "Anchor-1" 543 627 basechar 0
LayerCount: 2
Fore
SplineSet
943 553 m 1,0,-1
 546 553 l 1,1,-1
 546 317 l 1,2,-1
 676 372 l 1,3,4
 676 388 676 388 673 400 c 1,5,6
 673 476 673 476 744 476 c 0,7,8
 770 476 770 476 786 451 c 1,9,10
 799 428 799 428 799 400 c 0,11,12
 799 354 799 354 768 323 c 1,13,-1
 824 220 l 1,14,15
 781 220 781 220 742 198 c 0,16,17
 697 173 697 173 697 133 c 0,18,19
 697 98 697 98 718 83 c 1,20,21
 738 65 738 65 773 65 c 0,22,23
 811 65 811 65 823 71 c 0,24,25
 844 82 844 82 848 112 c 1,26,-1
 907 48 l 1,27,28
 848 -11 848 -11 766 -11 c 0,29,30
 699 -11 699 -11 660.5 28 c 128,-1,31
 622 67 622 67 622 133 c 2,32,-1
 622 139 l 2,33,34
 622 175 622 175 648 212 c 1,35,36
 678 248 678 248 719 257 c 1,37,-1
 696 300 l 1,38,-1
 546 236 l 1,39,-1
 546 -8 l 1,40,-1
 470 -8 l 1,41,-1
 470 209 l 1,42,-1
 187 46 l 1,43,-1
 142 106 l 1,44,-1
 410 262 l 1,45,46
 310 379 310 379 276 379 c 0,47,48
 248 379 248 379 166 340 c 1,49,-1
 89 299 l 1,50,-1
 43 356 l 1,51,52
 48 368 48 368 155 412 c 0,53,54
 262 455 262 455 287 455 c 0,55,56
 322 455 322 455 401 379 c 0,57,58
 428 353 428 353 470 308 c 1,59,-1
 470 553 l 1,60,-1
 0 553 l 1,61,-1
 0 628 l 1,62,-1
 943 628 l 1,63,-1
 943 553 l 1,0,-1
EndSplineSet
Validated: 1
EndChar

StartChar: LetterVocalicL
Encoding: 366 2316 110
Width: 655
GlyphClass: 2
Flags: W
AnchorPoint: "Anchor-1" 502 632 basechar 0
LayerCount: 2
Fore
SplineSet
440 48 m 0,0,1
 436 30 436 30 436 16 c 0,2,3
 436 -18 436 -18 461 -32 c 0,4,5
 492 -48 492 -48 526 -48 c 0,6,7
 563 -48 563 -48 588 -36 c 1,8,-1
 619 -17 l 1,9,-1
 660 -80 l 1,10,11
 618 -122 618 -122 536 -122 c 2,12,-1
 525 -122 l 1,13,-1
 516 -122 l 2,14,15
 463 -122 463 -122 414 -89 c 0,16,17
 352 -47 352 -47 352 17 c 0,18,19
 352 76 352 76 389 114 c 1,20,-1
 487 188 l 1,21,22
 544 239 544 239 545 304 c 1,23,24
 545 377 545 377 440 377 c 2,25,-1
 436 377 l 1,26,-1
 432 377 l 2,27,28
 410 377 410 377 385 354 c 0,29,30
 358 329 358 329 358 296 c 2,31,-1
 358 224 l 1,32,-1
 283 224 l 1,33,-1
 283 311 l 2,34,35
 283 340 283 340 259 358 c 0,36,37
 234 377 234 377 208 377 c 2,38,-1
 205 377 l 1,39,-1
 202 377 l 2,40,41
 165 377 165 377 142 349 c 0,42,43
 118 320 118 320 118 276 c 0,44,45
 118 197 118 197 191 122 c 0,46,47
 241 71 241 71 275 59 c 1,48,-1
 229 -6 l 1,49,50
 168 19 168 19 100 116 c 1,51,52
 43 200 43 200 43 283 c 2,53,-1
 43 289 l 1,54,-1
 43 294 l 2,55,56
 43 354 43 354 88 401 c 1,57,58
 133 452 133 452 199 452 c 0,59,60
 281 452 281 452 326 395 c 1,61,62
 350 446 350 446 427 452 c 1,63,-1
 427 553 l 1,64,-1
 0 553 l 1,65,-1
 0 628 l 1,66,-1
 656 628 l 1,67,-1
 656 553 l 1,68,-1
 503 553 l 1,69,-1
 503 449 l 1,70,71
 619 422 619 422 619 295 c 2,72,-1
 619 293 l 1,73,-1
 619 291 l 2,74,75
 619 221 619 221 563 162 c 1,76,77
 498 103 498 103 494 102 c 1,78,79
 441 53 441 53 440 48 c 0,0,1
EndSplineSet
Validated: 1
EndChar

StartChar: LetterCandraE
Encoding: 367 2317 111
Width: 443
GlyphClass: 2
Flags: W
AnchorPoint: "Anchor-1" 321 633 basechar 0
LayerCount: 2
Fore
SplineSet
443 553 m 1,0,-1
 406 553 l 1,1,-1
 406 338 l 2,2,3
 406 266 406 266 318 236 c 1,4,-1
 257 288 l 1,5,6
 278 291 278 291 306 311 c 0,7,8
 330 328 330 328 330 353 c 2,9,-1
 330 553 l 1,10,-1
 118 553 l 1,11,-1
 118 269 l 1,12,-1
 388 26 l 1,13,14
 402 6 402 6 407 -5 c 0,15,16
 418 -30 418 -30 418 -48 c 0,17,18
 418 -94 418 -94 370 -121 c 0,19,20
 361 -126 361 -126 322 -136 c 1,21,-1
 265 -76 l 1,22,-1
 288 -76 l 1,23,24
 302 -75 302 -75 314 -67 c 0,25,26
 335 -53 335 -53 335 -40 c 0,27,28
 335 -34 335 -34 323 -18 c 1,29,-1
 43 235 l 1,30,-1
 43 553 l 1,31,-1
 0 553 l 1,32,-1
 0 628 l 1,33,-1
 443 628 l 1,34,-1
 443 553 l 1,0,-1
404 851 m 1,35,36
 404 773 404 773 348 724.5 c 128,-1,37
 292 676 292 676 212 676 c 2,38,-1
 206 676 l 1,39,-1
 201 676 l 1,40,-1
 196 676 l 2,41,42
 136 676 136 676 79 725 c 128,-1,43
 22 774 22 774 22 851 c 1,44,-1
 95 851 l 1,45,46
 95 806 95 806 131 778 c 0,47,48
 167 749 167 749 212 749 c 0,49,50
 264 749 264 749 296 775 c 0,51,52
 329 802 329 802 330 851 c 1,53,-1
 404 851 l 1,35,36
EndSplineSet
Validated: 1
EndChar

StartChar: LetterShortE
Encoding: 368 2318 112
Width: 443
GlyphClass: 2
Flags: W
LayerCount: 2
Fore
SplineSet
404 692 m 2,0,-1
 404 628 l 1,1,-1
 443 628 l 1,2,-1
 443 553 l 1,3,-1
 406 553 l 1,4,-1
 406 338 l 2,5,6
 406 266 406 266 318 236 c 1,7,-1
 257 288 l 1,8,9
 278 291 278 291 306 311 c 0,10,11
 330 328 330 328 330 353 c 2,12,-1
 330 553 l 1,13,-1
 118 553 l 1,14,-1
 118 269 l 1,15,-1
 388 26 l 1,16,17
 403 5 403 5 407 -5 c 0,18,19
 418 -30 418 -30 418 -48 c 0,20,21
 418 -94 418 -94 370 -121 c 0,22,23
 361 -126 361 -126 322 -136 c 1,24,-1
 265 -74 l 2,25,26
 270 -79 270 -79 278 -79 c 0,27,28
 295 -79 295 -79 314 -67 c 0,29,30
 335 -54 335 -54 335 -40 c 0,31,32
 335 -34 335 -34 323 -18 c 1,33,-1
 43 235 l 1,34,-1
 43 553 l 1,35,-1
 0 553 l 1,36,-1
 0 628 l 1,37,-1
 338 628 l 1,38,-1
 338 678 l 1,39,40
 334 734 334 734 288 741 c 0,41,42
 282 742 282 742 275 741 c 2,43,-1
 254 738 l 1,44,45
 160 712 160 712 142 709 c 1,46,-1
 127 709 l 2,47,48
 92 709 92 709 65 726 c 0,49,50
 24 753 24 753 24 796 c 2,51,-1
 24 798 l 1,52,-1
 24 877 l 1,53,-1
 91 877 l 1,54,-1
 91 822 l 2,55,56
 91 775 91 775 132 775 c 2,57,-1
 134 775 l 1,58,-1
 136 775 l 2,59,60
 150 775 150 775 216 794 c 0,61,62
 254 805 254 805 281 805 c 0,63,64
 300 805 300 805 316 800 c 0,65,66
 383 780 383 780 396 741 c 0,67,68
 404 718 404 718 404 692 c 2,0,-1
EndSplineSet
Validated: 1
EndChar

StartChar: LetterE
Encoding: 369 2319 113
Width: 443
GlyphClass: 2
Flags: W
AnchorPoint: "Anchor-1" 400 628 basechar 0
LayerCount: 2
Fore
SplineSet
443 553 m 1,0,-1
 406 553 l 1,1,-1
 406 338 l 2,2,3
 406 266 406 266 318 236 c 1,4,-1
 257 288 l 1,5,6
 278 291 278 291 306 311 c 0,7,8
 330 328 330 328 330 353 c 2,9,-1
 330 553 l 1,10,-1
 118 553 l 1,11,-1
 118 269 l 1,12,-1
 388 26 l 1,13,14
 402 6 402 6 407 -5 c 0,15,16
 418 -30 418 -30 418 -48 c 0,17,18
 418 -94 418 -94 370 -121 c 0,19,20
 361 -126 361 -126 322 -136 c 1,21,-1
 265 -74 l 2,22,23
 269 -78 269 -78 294 -78 c 0,24,25
 309 -78 309 -78 324 -62 c 1,26,27
 335 -52 335 -52 335 -40 c 0,28,29
 335 -34 335 -34 323 -18 c 1,30,-1
 43 235 l 1,31,-1
 43 553 l 1,32,-1
 0 553 l 1,33,-1
 0 628 l 1,34,-1
 443 628 l 1,35,-1
 443 553 l 1,0,-1
EndSplineSet
Validated: 1
EndChar

StartChar: LetterAI
Encoding: 370 2320 114
Width: 438
GlyphClass: 2
Flags: W
LayerCount: 2
Fore
SplineSet
334 628 m 1,0,-1
 89 872 l 1,1,-1
 151 932 l 1,2,-1
 408 628 l 1,3,-1
 438 628 l 1,4,-1
 438 553 l 1,5,-1
 406 553 l 1,6,-1
 406 338 l 2,7,8
 406 266 406 266 318 236 c 1,9,-1
 257 288 l 1,10,11
 278 291 278 291 306 311 c 0,12,13
 330 328 330 328 330 353 c 2,14,-1
 330 553 l 1,15,-1
 118 553 l 1,16,-1
 118 269 l 1,17,-1
 388 26 l 1,18,19
 402 6 402 6 407 -5 c 0,20,21
 418 -30 418 -30 418 -48 c 0,22,23
 418 -94 418 -94 370 -121 c 0,24,25
 361 -126 361 -126 322 -136 c 1,26,-1
 265 -74 l 2,27,28
 268 -77 268 -77 294 -76 c 0,29,30
 312 -75 312 -75 324 -62 c 1,31,32
 335 -52 335 -52 335 -40 c 0,33,34
 335 -34 335 -34 323 -18 c 1,35,-1
 43 235 l 1,36,-1
 43 553 l 1,37,-1
 0 553 l 1,38,-1
 0 628 l 1,39,-1
 334 628 l 1,0,-1
EndSplineSet
Validated: 1
EndChar

StartChar: LetterCandraO
Encoding: 371 2321 115
Width: 876
GlyphClass: 2
Flags: W
LayerCount: 2
Fore
SplineSet
857 840 m 1,0,1
 857 763 857 763 800 714 c 128,-1,2
 743 665 743 665 665 665 c 2,3,-1
 662 665 l 2,4,5
 588 665 588 665 533 714 c 1,6,7
 474 764 474 764 474 840 c 1,8,-1
 547 840 l 1,9,10
 547 796 547 796 583 767 c 128,-1,11
 619 738 619 738 665 738 c 0,12,13
 716 738 716 738 749 764 c 0,14,15
 782 791 782 791 782 840 c 1,16,-1
 857 840 l 1,0,1
644 553 m 1,17,-1
 644 -1 l 1,18,-1
 570 -1 l 1,19,-1
 570 268 l 1,20,21
 565 268 565 268 536 260 c 1,22,23
 521 257 521 257 503 257 c 2,24,-1
 498 257 l 1,25,-1
 494 257 l 2,26,27
 472 257 472 257 454 268 c 1,28,29
 461 246 461 246 461 216 c 0,30,31
 461 59 461 59 301 59 c 2,32,-1
 299 59 l 2,33,34
 208 59 208 59 110 169 c 0,35,36
 31 259 31 259 31 299 c 1,37,-1
 91 335 l 1,38,39
 130 268 130 268 155 235 c 0,40,41
 233 134 233 134 301 134 c 2,42,-1
 305 134 l 2,43,44
 386 134 386 134 386 216 c 0,45,46
 386 269 386 269 354 299 c 0,47,48
 322 328 322 328 274 328 c 0,49,50
 229 328 229 328 211 318 c 1,51,-1
 186 380 l 1,52,53
 202 380 202 380 210 379 c 1,54,55
 264 379 264 379 299 406 c 128,-1,56
 334 433 334 433 334 482 c 0,57,58
 334 553 334 553 260 553 c 0,59,60
 203 553 203 553 161 511 c 0,61,62
 143 493 143 493 133 478 c 1,63,-1
 73 523 l 1,64,65
 73 538 73 538 127 577 c 1,66,67
 194 628 194 628 263 628 c 2,68,-1
 268 628 l 2,69,70
 322 628 322 628 366 586 c 0,71,72
 408 546 408 546 408 481 c 0,73,74
 408 415 408 415 349 372 c 1,75,76
 371 368 371 368 386 359 c 1,77,-1
 402 352 l 1,78,-1
 442 335 l 2,79,80
 458 328 458 328 491 328 c 0,81,82
 504 328 504 328 544 338 c 1,83,84
 550 338 550 338 570 346 c 1,85,-1
 570 553 l 1,86,-1
 464 553 l 1,87,-1
 464 628 l 1,88,-1
 876 628 l 1,89,-1
 876 553 l 1,90,-1
 797 553 l 1,91,-1
 797 -1 l 1,92,-1
 724 -1 l 1,93,-1
 724 553 l 1,94,-1
 644 553 l 1,17,-1
EndSplineSet
Validated: 1
EndChar

StartChar: LetterShortO
Encoding: 372 2322 116
Width: 847
GlyphClass: 2
Flags: W
LayerCount: 2
Fore
SplineSet
698 628 m 1,0,-1
 698 678 l 2,1,2
 698 729 698 729 648 740 c 0,3,4
 640 742 640 742 635 741 c 2,5,-1
 614 738 l 1,6,7
 520 713 520 713 502 710 c 0,8,9
 494 709 494 709 487 709 c 0,10,11
 451 709 451 709 425 726 c 0,12,13
 384 752 384 752 384 798 c 2,14,-1
 384 877 l 1,15,-1
 451 877 l 1,16,-1
 451 822 l 2,17,18
 451 776 451 776 492 775 c 1,19,-1
 494 775 l 2,20,21
 512 775 512 775 576 794 c 0,22,23
 613 805 613 805 641 805 c 0,24,25
 660 805 660 805 676 800 c 0,26,27
 735 782 735 782 756 739 c 0,28,29
 763 724 763 724 765 687 c 1,30,-1
 765 628 l 1,31,-1
 847 628 l 1,32,-1
 847 553 l 1,33,-1
 768 553 l 1,34,-1
 768 1 l 1,35,-1
 695 1 l 1,36,-1
 695 553 l 1,37,-1
 617 553 l 1,38,-1
 617 -1 l 1,39,-1
 541 -1 l 1,40,-1
 541 268 l 1,41,42
 536 268 536 268 508 260 c 1,43,44
 493 257 493 257 474 257 c 0,45,46
 444 257 444 257 425 269 c 1,47,48
 432 247 432 247 432 216 c 0,49,50
 432 60 432 60 272 59 c 1,51,-1
 270 59 l 2,52,53
 178 59 178 59 82 169 c 1,54,55
 5 259 5 259 2 299 c 1,56,-1
 62 335 l 1,57,58
 103 264 103 264 126 235 c 0,59,60
 206 134 206 134 272 134 c 2,61,-1
 276 134 l 2,62,63
 358 134 358 134 358 216 c 0,64,65
 358 269 358 269 325 299 c 0,66,67
 293 328 293 328 245 328 c 0,68,69
 200 328 200 328 182 318 c 1,70,-1
 157 380 l 1,71,72
 173 380 173 380 181 379 c 1,73,74
 235 379 235 379 269 406 c 0,75,76
 304 433 304 433 305 482 c 1,77,78
 305 552 305 552 232 553 c 0,79,80
 177 553 177 553 132 511 c 0,81,82
 116 496 116 496 104 478 c 1,83,-1
 44 523 l 1,84,85
 44 538 44 538 98 577 c 1,86,87
 166 628 166 628 234 628 c 2,88,-1
 239 628 l 2,89,90
 295 628 295 628 337 586 c 128,-1,91
 379 544 379 544 379 481 c 0,92,93
 379 415 379 415 320 372 c 1,94,95
 341 368 341 368 356 359 c 1,96,-1
 373 352 l 1,97,-1
 413 335 l 2,98,99
 429 328 429 328 462 328 c 0,100,101
 475 328 475 328 515 338 c 1,102,103
 521 338 521 338 541 346 c 1,104,-1
 541 553 l 1,105,-1
 436 553 l 1,106,-1
 436 628 l 1,107,-1
 698 628 l 1,0,-1
EndSplineSet
Validated: 1
EndChar

StartChar: LetterO
Encoding: 373 2323 117
Width: 857
GlyphClass: 2
Flags: W
LayerCount: 2
Fore
SplineSet
625 553 m 1,0,-1
 625 0 l 1,1,-1
 551 0 l 1,2,-1
 551 268 l 1,3,4
 547 265 547 265 517 260 c 0,5,6
 505 258 505 258 484 257 c 1,7,-1
 479 257 l 2,8,9
 452 257 452 257 434 268 c 1,10,11
 442 246 442 246 442 216 c 0,12,13
 442 59 442 59 282 59 c 2,14,-1
 280 59 l 1,15,-1
 278 59 l 2,16,17
 188 59 188 59 91 169 c 0,18,19
 12 259 12 259 12 299 c 1,20,-1
 72 335 l 1,21,22
 111 268 111 268 136 235 c 0,23,24
 214 134 214 134 282 134 c 2,25,-1
 286 134 l 1,26,-1
 290 134 l 2,27,28
 367 134 367 134 367 216 c 0,29,30
 367 269 367 269 335 299 c 1,31,32
 302 328 302 328 254 328 c 0,33,34
 210 328 210 328 192 318 c 1,35,-1
 167 380 l 1,36,37
 182 380 182 380 191 379 c 1,38,39
 245 379 245 379 278 406 c 1,40,41
 314 433 314 433 314 482 c 0,42,43
 314 553 314 553 241 553 c 0,44,45
 184 553 184 553 142 511 c 0,46,47
 124 493 124 493 114 478 c 1,48,-1
 54 523 l 1,49,50
 54 538 54 538 108 577 c 1,51,52
 175 628 175 628 244 628 c 2,53,-1
 249 628 l 1,54,-1
 254 628 l 2,55,56
 302 628 302 628 347 586 c 0,57,58
 389 547 389 547 389 481 c 128,-1,59
 389 415 389 415 330 372 c 1,60,61
 351 368 351 368 367 359 c 1,62,-1
 383 352 l 1,63,-1
 422 335 l 2,64,65
 438 328 438 328 472 328 c 0,66,67
 485 328 485 328 524 338 c 1,68,69
 530 338 530 338 551 346 c 1,70,-1
 551 553 l 1,71,-1
 445 553 l 1,72,-1
 445 628 l 1,73,-1
 700 628 l 1,74,-1
 458 873 l 1,75,-1
 518 936 l 1,76,-1
 758 628 l 1,77,-1
 857 628 l 1,78,-1
 857 553 l 1,79,-1
 778 553 l 1,80,-1
 778 0 l 1,81,-1
 704 0 l 1,82,-1
 704 553 l 1,83,-1
 625 553 l 1,0,-1
EndSplineSet
Validated: 1
EndChar

StartChar: LetterAU
Encoding: 374 2324 118
Width: 876
GlyphClass: 2
Flags: W
LayerCount: 2
Fore
SplineSet
724 553 m 1,0,-1
 646 553 l 1,1,-1
 646 -1 l 1,2,-1
 570 -1 l 1,3,-1
 570 268 l 1,4,5
 566 266 566 266 536 260 c 0,6,7
 522 257 522 257 503 257 c 0,8,9
 473 257 473 257 454 269 c 1,10,11
 461 247 461 247 461 216 c 0,12,13
 461 59 461 59 301 59 c 2,14,-1
 299 59 l 1,15,-1
 297 59 l 1,16,-1
 295 59 l 1,17,-1
 293 59 l 1,18,-1
 291 59 l 2,19,20
 207 59 207 59 110 169 c 1,21,22
 34 259 34 259 31 299 c 1,23,-1
 91 335 l 1,24,25
 132 264 132 264 155 235 c 0,26,27
 233 137 233 137 301 134 c 1,28,-1
 305 134 l 1,29,-1
 309 134 l 1,30,-1
 313 134 l 1,31,-1
 316 134 l 2,32,33
 318 134 318 134 319 134 c 0,34,35
 386 134 386 134 386 216 c 0,36,37
 386 269 386 269 354 299 c 0,38,39
 322 328 322 328 274 328 c 0,40,41
 229 328 229 328 211 318 c 1,42,-1
 186 380 l 1,43,44
 202 380 202 380 210 379 c 1,45,46
 264 379 264 379 298 406 c 128,-1,47
 332 433 332 433 334 482 c 1,48,49
 334 552 334 552 260 553 c 0,50,51
 206 553 206 553 161 511 c 0,52,53
 145 496 145 496 133 478 c 1,54,-1
 73 523 l 1,55,56
 73 538 73 538 127 577 c 1,57,58
 194 628 194 628 263 628 c 2,59,-1
 268 628 l 1,60,-1
 273 628 l 1,61,-1
 277 628 l 1,62,-1
 281 628 l 2,63,64
 283 628 283 628 285 628 c 0,65,66
 324 628 324 628 366 586 c 128,-1,67
 408 544 408 544 408 481 c 0,68,69
 408 415 408 415 349 372 c 1,70,71
 370 368 370 368 385 359 c 1,72,-1
 402 352 l 1,73,-1
 442 335 l 2,74,75
 458 328 458 328 491 328 c 0,76,77
 504 328 504 328 544 338 c 1,78,79
 550 338 550 338 570 346 c 1,80,-1
 570 553 l 1,81,-1
 464 553 l 1,82,-1
 464 628 l 1,83,-1
 729 628 l 1,84,-1
 418 784 l 1,85,-1
 468 840 l 1,86,-1
 686 704 l 1,87,-1
 584 919 l 1,88,-1
 648 955 l 1,89,-1
 790 628 l 1,90,-1
 876 628 l 1,91,-1
 876 553 l 1,92,-1
 797 553 l 1,93,-1
 797 1 l 1,94,-1
 724 1 l 1,95,-1
 724 553 l 1,0,-1
EndSplineSet
Validated: 1
EndChar

StartChar: LetterKA
Encoding: 375 2325 119
Width: 767
GlyphClass: 2
Flags: W
AnchorPoint: "Anchor-1" 432 626 basechar 0
AnchorPoint: "Anchor-0" 390 -6 basechar 0
LayerCount: 2
Fore
SplineSet
767 553 m 1,0,-1
 430 553 l 1,1,-1
 430 371 l 1,2,3
 487 452 487 452 551 452 c 2,4,-1
 557 452 l 2,5,6
 618 452 618 452 667 407 c 0,7,8
 715 363 715 363 715 293 c 2,9,-1
 715 288 l 2,10,11
 715 235 715 235 654 145 c 0,12,13
 640 125 640 125 592 70 c 1,14,-1
 520 119 l 1,15,16
 542 130 542 130 587 182 c 0,17,18
 641 244 641 244 641 298 c 0,19,20
 641 331 641 331 617 354 c 128,-1,21
 593 377 593 377 558 377 c 2,22,-1
 556 377 l 2,23,24
 505 377 505 377 430 256 c 1,25,-1
 430 -8 l 1,26,-1
 355 -8 l 1,27,-1
 355 162 l 1,28,29
 303 108 303 108 226 108 c 2,30,-1
 223 108 l 2,31,32
 154 108 154 108 98 156 c 0,33,34
 43 203 43 203 43 277 c 2,35,-1
 43 280 l 2,36,37
 43 348 43 348 89.5 401.5 c 128,-1,38
 136 455 136 455 206 455 c 0,39,40
 208 455 208 455 292 443 c 1,41,-1
 312 361 l 1,42,43
 283 370 283 370 281 370 c 0,44,45
 242 377 242 377 211 377 c 1,46,47
 207 375 207 375 203 377 c 0,48,49
 197 380 197 380 192 380 c 0,50,51
 171 378 171 378 144 352 c 0,52,53
 118 326 118 326 118 284 c 0,54,55
 118 236 118 236 146 211 c 0,56,57
 176 184 176 184 221 184 c 0,58,59
 257 184 257 184 295 204 c 1,60,61
 334 226 334 226 355 258 c 1,62,-1
 355 553 l 1,63,-1
 0 553 l 1,64,-1
 0 628 l 1,65,-1
 767 628 l 1,66,-1
 767 553 l 1,0,-1
EndSplineSet
Validated: 1
EndChar

StartChar: LetterKHA
Encoding: 376 2326 120
Width: 799
GlyphClass: 2
Flags: W
LayerCount: 2
Fore
SplineSet
650 205 m 1,0,-1
 650 257 l 1,1,2
 596 210 596 210 527 210 c 0,3,4
 467 210 467 210 427 246 c 0,5,6
 386 283 386 283 386 341 c 2,7,-1
 386 343 l 2,8,9
 386 398 386 398 430 439 c 0,10,11
 473 479 473 479 532 479 c 0,12,13
 562 479 562 479 593 464 c 1,14,-1
 614 392 l 1,15,16
 600 397 600 397 539 404 c 1,17,18
 461 404 461 404 461 350 c 2,19,-1
 461 345 l 2,20,21
 461 287 461 287 535 287 c 1,22,23
 537 288 537 288 540 287 c 0,24,25
 550 283 550 283 561 283 c 0,26,27
 606 285 606 285 650 342 c 1,28,-1
 650 553 l 1,29,-1
 300 553 l 1,30,-1
 300 394 l 2,31,32
 300 348 300 348 264 318 c 0,33,34
 227 287 227 287 184 287 c 2,35,-1
 166 287 l 1,36,37
 182 228 182 228 232 180 c 1,38,39
 303 104 303 104 407 104 c 2,40,-1
 411 104 l 2,41,42
 463 104 463 104 557 151 c 0,43,44
 615 180 615 180 650 205 c 1,0,-1
799 553 m 1,45,-1
 725 553 l 1,46,-1
 725 -8 l 1,47,-1
 650 -8 l 1,48,-1
 650 116 l 1,49,50
 612 83 612 83 533 56 c 0,51,52
 457 30 457 30 402 30 c 0,53,54
 310 30 310 30 242 72 c 1,55,56
 157 126 157 126 96 257 c 0,57,58
 89 272 89 272 66 334 c 0,59,60
 43 394 43 394 43 407 c 1,61,-1
 104 443 l 1,62,-1
 119 396 l 2,63,64
 130 361 130 361 178 361 c 0,65,66
 224 361 224 361 224 408 c 2,67,-1
 224 553 l 1,68,-1
 0 553 l 1,69,-1
 0 628 l 1,70,-1
 799 628 l 1,71,-1
 799 553 l 1,45,-1
EndSplineSet
Validated: 1
EndChar

StartChar: LetterGA
Encoding: 377 2327 121
Width: 535
GlyphClass: 2
Flags: W
LayerCount: 2
Fore
SplineSet
535 553 m 1,0,-1
 478 553 l 1,1,-1
 478 -10 l 1,2,-1
 388 -10 l 1,3,-1
 388 553 l 1,4,-1
 218 553 l 1,5,-1
 218 271 l 2,6,7
 218 246 218 246 216 242 c 1,8,9
 211 217 211 217 187 217 c 0,10,11
 154 217 154 217 98 272 c 1,12,13
 43 331 43 331 43 362 c 2,14,-1
 43 364 l 2,15,16
 43 391 43 391 84 391 c 2,17,-1
 144 391 l 1,18,-1
 144 553 l 1,19,-1
 0 553 l 1,20,-1
 0 628 l 1,21,-1
 535 628 l 1,22,-1
 535 553 l 1,0,-1
EndSplineSet
Validated: 1
EndChar

StartChar: LetterGHA
Encoding: 378 2328 122
Width: 605
GlyphClass: 2
Flags: W
AnchorPoint: "Anchor-1" 521 628 basechar 0
LayerCount: 2
Fore
SplineSet
456 270 m 1,0,-1
 456 553 l 1,1,-1
 167 553 l 1,2,3
 156 543 156 543 145 529 c 0,4,5
 121 499 121 499 121 472 c 0,6,7
 121 448 121 448 162 422 c 1,8,9
 199 400 199 400 227 400 c 2,10,-1
 306 400 l 1,11,-1
 349 323 l 1,12,-1
 247 323 l 2,13,14
 213 323 213 323 187 304 c 0,15,16
 155 282 155 282 155 252 c 0,17,18
 155 187 155 187 258 187 c 2,19,-1
 260 187 l 2,20,21
 293 187 293 187 374 224 c 0,22,23
 410 240 410 240 456 270 c 1,0,-1
605 553 m 1,24,-1
 530 553 l 1,25,-1
 530 -8 l 1,26,-1
 456 -8 l 1,27,-1
 456 184 l 1,28,29
 413 157 413 157 392 149 c 1,30,31
 317 112 317 112 253 112 c 0,32,33
 188 112 188 112 138 148 c 1,34,35
 80 187 80 187 80 250 c 2,36,-1
 80 252 l 2,37,38
 80 308 80 308 137 358 c 1,39,40
 98 365 98 365 71 408 c 0,41,42
 47 446 47 446 47 488 c 0,43,44
 47 526 47 526 72 553 c 1,45,-1
 0 553 l 1,46,-1
 0 628 l 1,47,-1
 605 628 l 1,48,-1
 605 553 l 1,24,-1
EndSplineSet
Validated: 1
EndChar

StartChar: LetterNGA
Encoding: 379 2329 123
Width: 666
GlyphClass: 2
Flags: W
AnchorPoint: "Anchor-1" 534 622 basechar 0
AnchorPoint: "Anchor-0" 398 -6 basechar 0
LayerCount: 2
Fore
SplineSet
666 553 m 1,0,-1
 535 553 l 1,1,-1
 535 379 l 1,2,-1
 277 379 l 1,3,-1
 305 318 l 1,4,5
 349 264 349 264 376 264 c 0,6,7
 379 264 379 264 382 265 c 2,8,-1
 461 286 l 1,9,-1
 517 292 l 1,10,11
 542 292 542 292 566 250 c 1,12,13
 586 212 586 212 586 184 c 2,14,-1
 586 181 l 2,15,16
 586 95 586 95 535 44 c 1,17,18
 469 -17 469 -17 392 -17 c 0,19,20
 257 -17 257 -17 92 198 c 0,21,22
 43 262 43 262 43 272 c 1,23,-1
 95 320 l 1,24,25
 94 317 94 317 94 313 c 0,26,27
 94 278 94 278 236 148 c 1,28,29
 322 67 322 67 395 67 c 0,30,31
 511 67 511 67 511 181 c 2,32,-1
 511 186 l 2,33,34
 511 210 511 210 479 216 c 1,35,36
 464 216 464 216 410 199 c 0,37,38
 397 194 397 194 373 191 c 1,39,40
 314 191 314 191 251 266 c 1,41,42
 194 336 194 336 194 386 c 2,43,-1
 194 390 l 2,44,45
 194 413 194 413 215 434 c 128,-1,46
 236 455 236 455 263 455 c 2,47,-1
 461 455 l 1,48,-1
 461 553 l 1,49,-1
 0 553 l 1,50,-1
 0 628 l 1,51,-1
 666 628 l 1,52,-1
 666 553 l 1,0,-1
666 310 m 1,53,-1
 581 310 l 1,54,-1
 581 391 l 1,55,-1
 666 391 l 1,56,-1
 666 310 l 1,53,-1
EndSplineSet
Validated: 1
EndChar

StartChar: LetterCA
Encoding: 380 2330 124
Width: 635
GlyphClass: 2
Flags: W
LayerCount: 2
Fore
SplineSet
635 553 m 1,0,-1
 562 553 l 1,1,-1
 562 -8 l 1,2,-1
 487 -8 l 1,3,-1
 487 218 l 1,4,5
 466 187 466 187 401 149 c 1,6,7
 347 114 347 114 292 114 c 0,8,9
 226 114 226 114 187 149 c 0,10,11
 146 185 146 185 146 247 c 0,12,13
 146 289 146 289 170 328 c 1,14,15
 193 358 193 358 217 379 c 1,16,-1
 43 379 l 1,17,-1
 43 455 l 1,18,-1
 413 455 l 1,19,-1
 413 379 l 1,20,-1
 322 379 l 1,21,22
 293 355 293 355 260 314 c 0,23,24
 221 266 221 266 221 238 c 0,25,26
 221 216 221 216 241 203 c 1,27,28
 264 190 264 190 294 190 c 2,29,-1
 299 190 l 2,30,31
 347 190 347 190 407 245 c 0,32,33
 454 288 454 288 487 348 c 1,34,-1
 487 553 l 1,35,-1
 0 553 l 1,36,-1
 0 628 l 1,37,-1
 635 628 l 1,38,-1
 635 553 l 1,0,-1
EndSplineSet
Validated: 1
EndChar

StartChar: LetterCHA
Encoding: 381 2331 125
Width: 659
GlyphClass: 2
Flags: W
AnchorPoint: "Anchor-1" 524 628 basechar 0
AnchorPoint: "Anchor-0" 267 -25 basechar 0
LayerCount: 2
Fore
SplineSet
454 434 m 1,0,-1
 454 553 l 1,1,-1
 176 553 l 2,2,3
 157 553 157 553 137 509 c 0,4,5
 119 470 119 470 119 445 c 0,6,7
 119 409 119 409 152 383 c 0,8,9
 189 354 189 354 222 354 c 2,10,-1
 227 354 l 2,11,12
 240 354 240 354 283 359 c 1,13,-1
 316 298 l 1,14,15
 264 298 264 298 220 268 c 0,16,17
 169 233 169 233 169 185 c 0,18,19
 169 67 169 67 296 67 c 0,20,21
 388 67 388 67 444 120 c 1,22,23
 406 178 406 178 400 192 c 1,24,25
 367 253 367 253 367 308 c 2,26,-1
 367 315 l 2,27,28
 367 358 367 358 391 392 c 0,29,30
 407 415 407 415 454 434 c 1,0,-1
547 308 m 0,31,32
 547 338 547 338 535 350 c 1,33,34
 524 364 524 364 494 364 c 2,35,-1
 488 364 l 2,36,37
 468 364 468 364 454 349 c 1,38,39
 445 336 445 336 443 305 c 1,40,-1
 443 303 l 2,41,42
 443 236 443 236 500 178 c 1,43,44
 506 182 506 182 517 196 c 0,45,46
 547 235 547 235 547 308 c 0,31,32
659 553 m 1,47,-1
 528 553 l 1,48,-1
 528 438 l 1,49,50
 568 419 568 419 578 412 c 0,51,52
 622 379 622 379 622 308 c 2,53,-1
 622 306 l 2,54,55
 622 180 622 180 515 85 c 0,56,57
 410 -7 410 -7 280 -7 c 2,58,-1
 277 -7 l 2,59,60
 199 -7 199 -7 146 44 c 1,61,62
 95 97 95 97 95 180 c 0,63,64
 95 259 95 259 146 304 c 1,65,66
 104 311 104 311 73 361 c 1,67,68
 46 410 46 410 46 464 c 2,69,-1
 46 472 l 2,70,71
 46 522 46 522 82 553 c 1,72,-1
 0 553 l 1,73,-1
 0 628 l 1,74,-1
 659 628 l 1,75,-1
 659 553 l 1,47,-1
EndSplineSet
Validated: 1
EndChar

StartChar: LetterJA
Encoding: 382 2332 126
Width: 720
GlyphClass: 2
Flags: W
AnchorPoint: "Anchor-1" 640 628 basechar 0
LayerCount: 2
Fore
SplineSet
720 553 m 1,0,-1
 647 553 l 1,1,-1
 647 -8 l 1,2,-1
 571 -8 l 1,3,-1
 571 359 l 1,4,-1
 422 359 l 1,5,6
 458 317 458 317 458 259 c 0,7,8
 458 187 458 187 421 149 c 1,9,10
 361 81 361 81 301 81 c 0,11,12
 186 81 186 81 72 336 c 0,13,14
 43 401 43 401 43 421 c 1,15,-1
 103 464 l 1,16,17
 118 372 118 372 194 266 c 1,18,19
 256 182 256 182 319 182 c 0,20,21
 383 182 383 182 383 254 c 2,22,-1
 383 258 l 2,23,24
 383 296 383 296 340 364 c 1,25,26
 326 379 326 379 295 421 c 1,27,-1
 295 433 l 1,28,-1
 571 433 l 1,29,-1
 571 553 l 1,30,-1
 0 553 l 1,31,-1
 0 628 l 1,32,-1
 720 628 l 1,33,-1
 720 553 l 1,0,-1
EndSplineSet
Validated: 1
EndChar

StartChar: LetterJHA
Encoding: 383 2333 127
Width: 709
GlyphClass: 2
Flags: W
AnchorPoint: "Anchor-1" 631 624 basechar 0
LayerCount: 2
Fore
SplineSet
560 274 m 1,0,-1
 560 553 l 1,1,-1
 383 553 l 1,2,-1
 383 379 l 1,3,-1
 143 379 l 2,4,5
 136 379 136 379 136 373 c 0,6,7
 136 357 136 357 174 316 c 0,8,9
 210 277 210 277 230 277 c 2,10,-1
 232 277 l 1,11,12
 256 282 256 282 293 293 c 0,13,14
 332 304 332 304 355 304 c 0,15,16
 395 304 395 304 420 263 c 1,17,18
 432 260 432 260 451 256 c 1,19,20
 456 256 456 256 480 253 c 1,21,22
 526 253 526 253 560 274 c 1,0,-1
709 553 m 1,23,-1
 635 553 l 1,24,-1
 635 -8 l 1,25,-1
 560 -8 l 1,26,-1
 560 193 l 1,27,28
 515 188 515 188 484.5 188 c 128,-1,29
 454 188 454 188 438 193 c 1,30,31
 438 66 438 66 296 19 c 1,32,33
 313 -6 313 -6 361 -44 c 1,34,-1
 364 -47 l 1,35,36
 414 -90 414 -90 438 -90 c 1,37,-1
 392 -155 l 1,38,39
 359 -134 359 -134 344 -122 c 1,40,41
 324 -109 324 -109 286 -74 c 1,42,43
 271 -64 271 -64 238 -28 c 1,44,-1
 203 8 l 1,45,46
 43 8 43 8 43 101 c 0,47,48
 43 127 43 127 62 145 c 0,49,50
 82 164 82 164 107 164 c 2,51,-1
 110 164 l 2,52,53
 143 164 143 164 188 126 c 1,54,-1
 241 72 l 1,55,56
 275 72 275 72 311 94 c 1,57,58
 364 121 364 121 364 173 c 0,59,60
 364 198 364 198 359 211 c 0,61,62
 353 227 353 227 331 227 c 2,63,-1
 329 227 l 2,64,65
 317 227 317 227 274 217 c 1,66,67
 234 205 234 205 214 205 c 0,68,69
 167 205 167 205 109 278 c 1,70,71
 50 356 50 356 50 398 c 2,72,-1
 50 403 l 1,73,-1
 50 407 l 1,74,-1
 50 413 l 1,75,76
 48 421 48 421 67 439 c 0,77,78
 84 455 84 455 110 455 c 2,79,-1
 308 455 l 1,80,-1
 308 553 l 1,81,-1
 0 553 l 1,82,-1
 0 628 l 1,83,-1
 709 628 l 1,84,-1
 709 553 l 1,23,-1
EndSplineSet
Validated: 1
EndChar

StartChar: LetterNYA
Encoding: 384 2334 128
Width: 696
GlyphClass: 2
Flags: W
AnchorPoint: "Anchor-1" 615 624 basechar 0
LayerCount: 2
Fore
SplineSet
696 553 m 1,0,-1
 622 553 l 1,1,-1
 622 -8 l 1,2,-1
 547 -8 l 1,3,-1
 547 226 l 1,4,-1
 500 218 l 1,5,6
 474 218 474 218 422 240 c 1,7,8
 414 164 414 164 364 116 c 0,9,10
 316 70 316 70 235 70 c 0,11,12
 183 70 183 70 124 98 c 0,13,14
 85 116 85 116 31 158 c 1,15,-1
 80 218 l 1,16,17
 108 191 108 191 161 164 c 0,18,19
 200 145 200 145 235 145 c 2,20,-1
 240 145 l 2,21,22
 349 145 349 145 349 257 c 2,23,-1
 349 266 l 2,24,25
 349 312 349 312 317 344 c 1,26,27
 286 379 286 379 241 379 c 0,28,29
 222 379 222 379 197 372 c 0,30,31
 170 365 170 365 163 359 c 1,32,-1
 115 416 l 1,33,34
 123 420 123 420 157 434 c 0,35,36
 208 455 208 455 235 455 c 2,37,-1
 238 455 l 2,38,39
 377 455 377 455 420 296 c 1,40,41
 450 283 450 283 476 283 c 0,42,43
 516 283 516 283 547 304 c 1,44,-1
 547 553 l 1,45,-1
 0 553 l 1,46,-1
 0 628 l 1,47,-1
 696 628 l 1,48,-1
 696 553 l 1,0,-1
EndSplineSet
Validated: 1
EndChar

StartChar: LetterTTA
Encoding: 385 2335 129
Width: 582
GlyphClass: 2
Flags: W
AnchorPoint: "Anchor-1" 454 629 basechar 0
AnchorPoint: "Anchor-0" 329 -25 basechar 0
LayerCount: 2
Fore
SplineSet
582 553 m 1,0,-1
 457 553 l 1,1,-1
 457 362 l 1,2,-1
 240 362 l 2,3,4
 199 362 199 362 169 322 c 1,5,6
 143 284 143 284 143 244 c 2,7,-1
 143 242 l 2,8,9
 143 170 143 170 202 119 c 1,10,11
 257 68 257 68 331 68 c 0,12,13
 428 68 428 68 480 156 c 1,14,-1
 550 113 l 1,15,16
 463 -6 463 -6 336 -6 c 0,17,18
 226 -6 226 -6 148 67 c 1,19,20
 67 140 67 140 67 248 c 0,21,22
 67 317 67 317 113 373 c 1,23,24
 163 438 163 438 227 438 c 2,25,-1
 382 438 l 1,26,-1
 382 553 l 1,27,-1
 0 553 l 1,28,-1
 0 628 l 1,29,-1
 582 628 l 1,30,-1
 582 553 l 1,0,-1
EndSplineSet
Validated: 1
EndChar

StartChar: LetterTTHA
Encoding: 386 2336 130
Width: 544
GlyphClass: 2
Flags: W
AnchorPoint: "Anchor-1" 426 627 basechar 0
AnchorPoint: "Anchor-0" 291 -15 basechar 0
LayerCount: 2
Fore
SplineSet
544 553 m 1,0,-1
 431 553 l 1,1,-1
 431 350 l 1,2,-1
 206 350 l 2,3,4
 169 350 169 350 144 318 c 1,5,6
 118 287 118 287 118 248 c 0,7,8
 118 179 118 179 170 131 c 0,9,10
 223 82 223 82 292 82 c 2,11,-1
 301 82 l 2,12,13
 431 82 431 82 431 190 c 2,14,-1
 431 192 l 2,15,16
 431 245 431 245 373 287 c 1,17,-1
 428 337 l 1,18,19
 506 294 506 294 506 186 c 0,20,21
 506 100 506 100 440 50 c 1,22,23
 377 6 377 6 292 6 c 2,24,-1
 287 6 l 2,25,26
 190 6 190 6 118 78 c 1,27,28
 43 149 43 149 43 251 c 2,29,-1
 43 254 l 2,30,31
 43 320 43 320 91 374 c 1,32,33
 142 425 142 425 214 425 c 2,34,-1
 359 425 l 1,35,-1
 359 553 l 1,36,-1
 0 553 l 1,37,-1
 0 628 l 1,38,-1
 544 628 l 1,39,-1
 544 553 l 1,0,-1
EndSplineSet
Validated: 1
EndChar

StartChar: LetterDDA
Encoding: 387 2337 131
Width: 626
GlyphClass: 2
Flags: W
AnchorPoint: "Anchor-1" 534 626 basechar 0
AnchorPoint: "Anchor-0" 395 -20 basechar 0
LayerCount: 2
Fore
SplineSet
626 553 m 1,0,-1
 535 553 l 1,1,-1
 535 379 l 1,2,-1
 277 379 l 1,3,-1
 305 318 l 1,4,5
 349 264 349 264 376 264 c 0,6,7
 379 264 379 264 382 265 c 2,8,-1
 461 286 l 1,9,-1
 517 292 l 1,10,11
 542 292 542 292 566 250 c 1,12,13
 586 212 586 212 586 184 c 2,14,-1
 586 181 l 2,15,16
 586 95 586 95 535 44 c 1,17,18
 469 -17 469 -17 395 -17 c 0,19,20
 257 -17 257 -17 92 198 c 0,21,22
 43 262 43 262 43 272 c 1,23,-1
 95 320 l 1,24,25
 94 317 94 317 94 313 c 0,26,27
 94 278 94 278 236 148 c 1,28,29
 322 67 322 67 395 67 c 0,30,31
 511 67 511 67 511 181 c 2,32,-1
 511 186 l 2,33,34
 511 210 511 210 479 216 c 1,35,36
 464 216 464 216 410 199 c 0,37,38
 397 194 397 194 373 191 c 1,39,40
 314 191 314 191 251 266 c 1,41,42
 194 336 194 336 194 386 c 2,43,-1
 194 390 l 2,44,45
 194 413 194 413 215 434 c 128,-1,46
 236 455 236 455 263 455 c 2,47,-1
 461 455 l 1,48,-1
 461 553 l 1,49,-1
 0 553 l 1,50,-1
 0 628 l 1,51,-1
 626 628 l 1,52,-1
 626 553 l 1,0,-1
EndSplineSet
Validated: 1
EndChar

StartChar: LetterDDHA
Encoding: 388 2338 132
Width: 551
GlyphClass: 2
Flags: W
AnchorPoint: "Anchor-1" 432 632 basechar 0
AnchorPoint: "Anchor-0" 327 -11 basechar 0
LayerCount: 2
Fore
SplineSet
439 138 m 1,0,1
 439 199 439 199 388 199 c 2,2,-1
 383 199 l 2,3,4
 341 199 341 199 341 146 c 0,5,6
 341 96 341 96 376 68 c 1,7,8
 398 73 398 73 418 95 c 0,9,10
 436 115 436 115 439 138 c 1,0,1
551 553 m 1,11,-1
 439 553 l 1,12,-1
 439 371 l 1,13,-1
 218 371 l 2,14,15
 175 371 175 371 150 338 c 128,-1,16
 125 305 125 305 125 260 c 0,17,18
 125 179 125 179 192 121 c 1,19,20
 240 82 240 82 295 68 c 1,21,22
 268 104 268 104 268 154 c 0,23,24
 268 216 268 216 312 252 c 1,25,26
 341 274 341 274 385 274 c 2,27,-1
 388 274 l 2,28,29
 436 274 436 274 474 239 c 1,30,31
 514 198 514 198 514 146 c 2,32,-1
 514 141 l 2,33,34
 514 72 514 72 456 31 c 0,35,36
 404 -6 404 -6 326 -6 c 0,37,38
 220 -6 220 -6 134 72 c 0,39,40
 50 149 50 149 50 258 c 0,41,42
 50 329 50 329 94 385 c 1,43,44
 139 446 139 446 208 446 c 2,45,-1
 364 446 l 1,46,-1
 364 553 l 1,47,-1
 0 553 l 1,48,-1
 0 628 l 1,49,-1
 551 628 l 1,50,-1
 551 553 l 1,11,-1
EndSplineSet
Validated: 1
EndChar

StartChar: LetterNNA
Encoding: 389 2339 133
Width: 623
GlyphClass: 2
Flags: W
LayerCount: 2
Fore
SplineSet
268 368 m 2,0,-1
 268 553 l 1,1,-1
 118 553 l 1,2,-1
 118 364 l 2,3,4
 118 275 118 275 191 275 c 0,5,6
 229 275 229 275 252 305 c 1,7,8
 268 329 268 329 268 368 c 2,0,-1
623 553 m 1,9,-1
 550 553 l 1,10,-1
 550 -8 l 1,11,-1
 474 -8 l 1,12,-1
 474 553 l 1,13,-1
 343 553 l 1,14,-1
 343 355 l 2,15,16
 343 293 343 293 301 245 c 0,17,18
 262 200 262 200 196 200 c 2,19,-1
 193 200 l 2,20,21
 131 200 131 200 88 242 c 0,22,23
 43 286 43 286 43 350 c 2,24,-1
 43 553 l 1,25,-1
 0 553 l 1,26,-1
 0 628 l 1,27,-1
 623 628 l 1,28,-1
 623 553 l 1,9,-1
EndSplineSet
Validated: 1
EndChar

StartChar: LetterTA
Encoding: 390 2340 134
Width: 578
GlyphClass: 2
Flags: W
AnchorPoint: "Anchor-1" 494 628 basechar 0
LayerCount: 2
Fore
SplineSet
578 553 m 1,0,-1
 505 553 l 1,1,-1
 505 -8 l 1,2,-1
 430 -8 l 1,3,-1
 430 371 l 1,4,-1
 184 371 l 2,5,6
 120 371 120 371 118 310 c 1,7,8
 118 242 118 242 197 145 c 1,9,10
 263 61 263 61 292 54 c 1,11,-1
 239 -1 l 1,12,13
 221 -1 221 -1 139 98 c 0,14,15
 43 214 43 214 43 319 c 0,16,17
 43 373 43 373 70 410 c 0,18,19
 96 446 96 446 150 446 c 2,20,-1
 430 446 l 1,21,-1
 430 553 l 1,22,-1
 0 553 l 1,23,-1
 0 628 l 1,24,-1
 578 628 l 1,25,-1
 578 553 l 1,0,-1
EndSplineSet
Validated: 1
EndChar

StartChar: LetterTHA
Encoding: 391 2341 135
Width: 676
GlyphClass: 2
Flags: W
LayerCount: 2
Fore
SplineSet
676 553 m 1,0,-1
 602 553 l 1,1,-1
 602 -8 l 1,2,-1
 527 -8 l 1,3,-1
 527 216 l 1,4,-1
 468 167 l 1,5,6
 395 116 395 116 312 116 c 0,7,8
 216 116 216 116 142 184 c 1,9,10
 43 269 43 269 43 337 c 1,11,12
 84 325 84 325 134 325 c 0,13,14
 301 325 301 325 301 451 c 0,15,16
 301 487 301 487 272 522 c 0,17,18
 246 553 246 553 200 553 c 0,19,20
 170 553 170 553 151 541 c 128,-1,21
 132 529 132 529 132 504 c 0,22,23
 132 455 132 455 192 455 c 0,24,25
 202 455 202 455 209 457 c 1,26,-1
 209 388 l 1,27,28
 56 388 56 388 56 506 c 2,29,-1
 56 508 l 2,30,31
 56 557 56 557 106 593 c 1,32,33
 154 625 154 625 203 625 c 2,34,-1
 206 625 l 2,35,36
 275 625 275 625 325 575 c 0,37,38
 376 524 376 524 376 451 c 2,39,-1
 376 449 l 2,40,41
 376 287 376 287 172 259 c 1,42,43
 218 192 218 192 311 192 c 0,44,45
 394 192 394 192 472 265 c 1,46,47
 493 283 493 283 527 331 c 1,48,-1
 527 553 l 1,49,-1
 421 553 l 1,50,-1
 421 628 l 1,51,-1
 676 628 l 1,52,-1
 676 553 l 1,0,-1
EndSplineSet
Validated: 1
EndChar

StartChar: LetterDa
Encoding: 392 2342 136
Width: 512
GlyphClass: 2
Flags: W
AnchorPoint: "Anchor-1" 438 626 basechar 0
AnchorPoint: "Anchor-0" 400 -38 basechar 0
LayerCount: 2
Fore
SplineSet
512 553 m 1,0,-1
 438 553 l 1,1,-1
 438 379 l 1,2,-1
 192 379 l 2,3,4
 158 379 158 379 139 356 c 1,5,6
 118 335 118 335 118 301 c 0,7,8
 118 217 118 217 208 181 c 0,9,10
 246 166 246 166 325 166 c 1,11,-1
 325 196 l 2,12,13
 325 264 325 264 396 264 c 2,14,-1
 400 264 l 2,15,16
 420 264 420 264 439 242 c 0,17,18
 457 221 457 221 457 196 c 0,19,20
 457 145 457 145 412 116 c 0,21,22
 412 115 412 115 442 58 c 1,23,24
 456 29 456 29 484 -10 c 1,25,-1
 508 -40 l 1,26,-1
 408 -40 l 1,27,-1
 374 24 l 1,28,-1
 348 91 l 1,29,30
 221 91 221 91 144 132 c 0,31,32
 43 186 43 186 43 301 c 0,33,34
 43 361 43 361 77 407 c 1,35,36
 110 455 110 455 167 455 c 2,37,-1
 362 455 l 1,38,-1
 362 553 l 1,39,-1
 0 553 l 1,40,-1
 0 628 l 1,41,-1
 512 628 l 1,42,-1
 512 553 l 1,0,-1
EndSplineSet
Validated: 1
EndChar

StartChar: LetterDHA
Encoding: 393 2343 137
Width: 607
GlyphClass: 2
Flags: W
AnchorPoint: "Anchor-1" 528 630 basechar 0
LayerCount: 2
Fore
SplineSet
607 553 m 1,0,-1
 533 553 l 1,1,-1
 533 -8 l 1,2,-1
 458 -8 l 1,3,-1
 458 202 l 1,4,5
 434 178 434 178 403 156 c 1,6,7
 325 104 325 104 244 104 c 0,8,9
 182 104 182 104 137 140 c 1,10,11
 86 178 86 178 86 238 c 2,12,-1
 86 244 l 2,13,14
 86 274 86 274 108 306 c 0,15,16
 116 319 116 319 142 341 c 1,17,18
 43 411 43 411 43 502 c 2,19,-1
 43 507 l 2,20,21
 43 554 43 554 78 590 c 0,22,23
 115 628 115 628 167 628 c 2,24,-1
 172 628 l 2,25,26
 210 628 210 628 246 594 c 0,27,28
 283 559 283 559 283 514 c 2,29,-1
 283 482 l 1,30,-1
 208 482 l 1,31,-1
 208 514 l 2,32,33
 208 553 208 553 167 553 c 0,34,35
 116 553 116 553 116 504 c 0,36,37
 116 466 116 466 152 419 c 0,38,39
 181 382 181 382 197 373 c 1,40,41
 244 389 244 389 296 389 c 2,42,-1
 331 389 l 1,43,-1
 364 318 l 1,44,45
 161 318 161 318 161 233 c 0,46,47
 161 205 161 205 193 193 c 0,48,49
 219 183 219 183 248 183 c 0,50,51
 315 183 315 183 394 240 c 0,52,53
 423 261 423 261 458 296 c 1,54,-1
 458 553 l 1,55,-1
 359 553 l 1,56,-1
 359 628 l 1,57,-1
 607 628 l 1,58,-1
 607 553 l 1,0,-1
EndSplineSet
Validated: 1
EndChar

StartChar: LetterNA
Encoding: 394 2344 138
Width: 582
GlyphClass: 2
Flags: W
AnchorPoint: "Anchor-1" 502 629 basechar 0
LayerCount: 2
Fore
SplineSet
582 553 m 1,0,-1
 509 553 l 1,1,-1
 509 -8 l 1,2,-1
 433 -8 l 1,3,-1
 433 335 l 1,4,-1
 204 335 l 1,5,-1
 204 245 l 2,6,7
 204 220 204 220 203 218 c 0,8,9
 196 208 196 208 170 208 c 0,10,11
 154 208 154 208 98 269 c 0,12,13
 43 329 43 329 43 350 c 0,14,15
 43 373 43 373 59 390 c 1,16,17
 74 409 74 409 95 409 c 2,18,-1
 433 409 l 1,19,-1
 433 553 l 1,20,-1
 0 553 l 1,21,-1
 0 628 l 1,22,-1
 582 628 l 1,23,-1
 582 553 l 1,0,-1
EndSplineSet
Validated: 1
EndChar

StartChar: LetterNNNA
Encoding: 395 2345 139
Width: 582
GlyphClass: 2
Flags: W
AnchorPoint: "Anchor-1" 505 629 basechar 0
LayerCount: 2
Fore
SplineSet
122 -28 m 1,0,-1
 84 38 l 1,1,-1
 145 73 l 1,2,-1
 183 7 l 1,3,-1
 122 -28 l 1,0,-1
582 553 m 1,4,-1
 509 553 l 1,5,-1
 509 -8 l 1,6,-1
 433 -8 l 1,7,-1
 433 335 l 1,8,-1
 204 335 l 1,9,-1
 204 245 l 2,10,11
 204 220 204 220 203 218 c 0,12,13
 196 208 196 208 170 208 c 0,14,15
 154 208 154 208 98 269 c 0,16,17
 43 329 43 329 43 350 c 0,18,19
 43 373 43 373 59 390 c 1,20,21
 74 409 74 409 95 409 c 2,22,-1
 433 409 l 1,23,-1
 433 553 l 1,24,-1
 0 553 l 1,25,-1
 0 628 l 1,26,-1
 582 628 l 1,27,-1
 582 553 l 1,4,-1
EndSplineSet
Validated: 1
EndChar

StartChar: LetterPA
Encoding: 396 2346 140
Width: 491
GlyphClass: 2
Flags: W
AnchorPoint: "Anchor-1" 404 628 basechar 0
LayerCount: 2
Fore
SplineSet
342 302 m 1,0,-1
 342 553 l 1,1,-1
 118 553 l 1,2,-1
 118 330 l 2,3,4
 118 290 118 290 152 266 c 0,5,6
 182 246 182 246 224 246 c 0,7,8
 263 246 263 246 294 263 c 1,9,10
 317 277 317 277 342 302 c 1,0,-1
491 553 m 1,11,-1
 416 553 l 1,12,-1
 416 -8 l 1,13,-1
 342 -8 l 1,14,-1
 342 210 l 1,15,16
 299 170 299 170 228 170 c 128,-1,17
 157 170 157 170 102 211 c 0,18,19
 43 256 43 256 43 326 c 2,20,-1
 43 553 l 1,21,-1
 0 553 l 1,22,-1
 0 628 l 1,23,-1
 491 628 l 1,24,-1
 491 553 l 1,11,-1
EndSplineSet
Validated: 1
EndChar

StartChar: LetterPHA
Encoding: 397 2347 141
Width: 751
GlyphClass: 2
Flags: W
AnchorPoint: "Anchor-1" 410 630 basechar 0
AnchorPoint: "Anchor-0" 374 -8 basechar 0
LayerCount: 2
Fore
SplineSet
342 295 m 1,0,-1
 342 553 l 1,1,-1
 118 553 l 1,2,-1
 118 330 l 2,3,4
 118 290 118 290 152 266 c 0,5,6
 182 246 182 246 224 246 c 0,7,8
 286 246 286 246 342 295 c 1,0,-1
751 553 m 1,9,-1
 416 553 l 1,10,-1
 416 362 l 1,11,12
 485 427 485 427 536 427 c 2,13,-1
 544 427 l 2,14,15
 607 427 607 427 654 382 c 0,16,17
 702 337 702 337 702 268 c 0,18,19
 702 210 702 210 641 120 c 1,20,21
 619 91 619 91 577 46 c 1,22,-1
 506 95 l 1,23,24
 537 111 537 111 574 157 c 0,25,26
 626 221 626 221 626 272 c 2,27,-1
 626 277 l 2,28,29
 626 305 626 305 601 329 c 128,-1,30
 576 353 576 353 545 353 c 0,31,32
 522 353 522 353 491 329 c 1,33,34
 473 317 473 317 416 264 c 1,35,-1
 416 -8 l 1,36,-1
 342 -8 l 1,37,-1
 342 206 l 1,38,39
 292 170 292 170 228 170 c 0,40,41
 157 170 157 170 102 211 c 0,42,43
 43 256 43 256 43 326 c 2,44,-1
 43 553 l 1,45,-1
 0 553 l 1,46,-1
 0 628 l 1,47,-1
 751 628 l 1,48,-1
 751 553 l 1,9,-1
EndSplineSet
Validated: 1
EndChar

StartChar: LetterBA
Encoding: 398 2348 142
Width: 504
GlyphClass: 2
Flags: W
AnchorPoint: "Anchor-1" 427 624 basechar 0
LayerCount: 2
Fore
SplineSet
294 214 m 1,0,-1
 125 335 l 1,1,2
 118 319 118 319 118 296 c 0,3,4
 118 250 118 250 146 223 c 1,5,6
 176 196 176 196 221 196 c 2,7,-1
 227 196 l 2,8,9
 230 196 230 196 232 196 c 128,-1,10
 234 196 234 196 236 196 c 0,11,12
 257 196 257 196 294 214 c 1,0,-1
504 553 m 1,13,-1
 430 553 l 1,14,-1
 430 -8 l 1,15,-1
 355 -8 l 1,16,-1
 355 170 l 1,17,18
 323 146 323 146 318 145 c 1,19,20
 275 122 275 122 226 120 c 1,21,22
 150 120 150 120 98 168 c 0,23,24
 43 219 43 219 43 290 c 2,25,-1
 43 296 l 1,26,-1
 43 301 l 2,27,28
 43 303 43 303 43 306 c 0,29,30
 43 363 43 363 89 414 c 1,31,32
 134 466 134 466 206 467 c 0,33,34
 220 467 220 467 292 455 c 1,35,-1
 312 373 l 1,36,37
 258 390 258 390 211 392 c 1,38,39
 185 392 185 392 158 376 c 1,40,-1
 341 246 l 1,41,42
 352 252 352 252 353 256 c 1,43,-1
 355 258 l 1,44,-1
 355 553 l 1,45,-1
 0 553 l 1,46,-1
 0 628 l 1,47,-1
 504 628 l 1,48,-1
 504 553 l 1,13,-1
EndSplineSet
Validated: 1
EndChar

StartChar: LetterBHA
Encoding: 399 2349 143
Width: 592
GlyphClass: 2
Flags: W
AnchorPoint: "Anchor-1" 516 630 basechar 0
LayerCount: 2
Fore
SplineSet
592 553 m 1,0,-1
 518 553 l 1,1,-1
 518 -8 l 1,2,-1
 443 -8 l 1,3,-1
 443 265 l 1,4,-1
 254 265 l 1,5,-1
 254 164 l 2,6,7
 254 134 254 134 238 134 c 0,8,9
 213 134 213 134 149 210 c 1,10,11
 98 268 98 268 98 293 c 0,12,13
 98 308 98 308 112 323 c 1,14,15
 124 341 124 341 137 341 c 2,16,-1
 179 341 l 1,17,-1
 179 499 l 2,18,19
 179 524 179 524 167 538.5 c 128,-1,20
 155 553 155 553 133 553 c 0,21,22
 80 553 80 553 80 504 c 0,23,24
 80 502 80 502 89 476 c 1,25,-1
 98 457 l 1,26,-1
 18 457 l 1,27,28
 18 467 18 467 12 485 c 1,29,-1
 6 514 l 1,30,31
 6 564 6 564 43 595 c 128,-1,32
 80 626 80 626 132 626 c 2,33,-1
 139 626 l 2,34,35
 182 626 182 626 220 600 c 1,36,37
 254 571 254 571 254 521 c 2,38,-1
 254 341 l 1,39,-1
 443 341 l 1,40,-1
 443 553 l 1,41,-1
 337 553 l 1,42,-1
 337 628 l 1,43,-1
 592 628 l 1,44,-1
 592 553 l 1,0,-1
EndSplineSet
Validated: 1
EndChar

StartChar: LetterMA
Encoding: 400 2350 144
Width: 530
GlyphClass: 2
Flags: W
LayerCount: 2
Fore
SplineSet
382 341 m 1,0,-1
 382 553 l 1,1,-1
 170 553 l 1,2,-1
 170 341 l 1,3,-1
 382 341 l 1,0,-1
530 553 m 1,4,-1
 457 553 l 1,5,-1
 457 -8 l 1,6,-1
 382 -8 l 1,7,-1
 382 265 l 1,8,-1
 170 265 l 1,9,-1
 170 185 l 2,10,11
 170 172 170 172 169 168 c 0,12,13
 164 144 164 144 148 144 c 0,14,15
 122 144 122 144 66 210 c 1,16,17
 17 266 17 266 14 293 c 1,18,19
 14 307 14 307 29 323 c 1,20,21
 41 341 41 341 54 341 c 2,22,-1
 96 341 l 1,23,-1
 96 553 l 1,24,-1
 0 553 l 1,25,-1
 0 628 l 1,26,-1
 530 628 l 1,27,-1
 530 553 l 1,4,-1
EndSplineSet
Validated: 1
EndChar

StartChar: LetterYA
Encoding: 401 2351 145
Width: 569
GlyphClass: 2
Flags: W
AnchorPoint: "Anchor-1" 494 630 basechar 0
LayerCount: 2
Fore
SplineSet
420 318 m 1,0,-1
 420 553 l 1,1,-1
 224 553 l 1,2,3
 266 508 266 508 266 456 c 0,4,5
 266 406 266 406 232 360 c 0,6,7
 197 313 197 313 145 313 c 1,8,9
 173 236 173 236 268 236 c 2,10,-1
 271 236 l 2,11,12
 329 236 329 236 383 280 c 0,13,14
 399 293 399 293 420 318 c 1,0,-1
569 553 m 1,15,-1
 496 553 l 1,16,-1
 496 -8 l 1,17,-1
 420 -8 l 1,18,-1
 420 215 l 1,19,20
 358 161 358 161 274 161 c 0,21,22
 176 161 176 161 110 224 c 0,23,24
 43 287 43 287 43 386 c 1,25,26
 47 386 47 386 65 380 c 1,27,-1
 94 376 l 1,28,29
 133 376 133 376 162 397 c 0,30,31
 192 419 192 419 192 458 c 0,32,33
 192 498 192 498 160 530 c 1,34,35
 154 539 154 539 134 553 c 1,36,-1
 0 553 l 1,37,-1
 0 628 l 1,38,-1
 569 628 l 1,39,-1
 569 553 l 1,15,-1
EndSplineSet
Validated: 1
EndChar

StartChar: LetterRA
Encoding: 402 2352 146
Width: 445
GlyphClass: 2
Flags: W
AnchorPoint: "Anchor-1" 362 628 basechar 0
AnchorPoint: "Anchor-0" 338 -12 basechar 0
LayerCount: 2
Fore
SplineSet
445 553 m 1,0,-1
 365 553 l 1,1,-1
 365 406 l 2,2,3
 365 353 365 353 325 318 c 1,4,5
 286 286 286 286 232 286 c 2,6,-1
 216 286 l 1,7,8
 215 284 215 284 203 286 c 1,9,-1
 238 238 l 1,10,11
 258 206 258 206 280 181 c 2,12,-1
 353 94 l 2,13,14
 392 48 392 48 402 42 c 1,15,-1
 350 -13 l 1,16,17
 256 82 256 82 164 212 c 1,18,-1
 29 407 l 1,19,-1
 89 449 l 1,20,-1
 121 402 l 2,21,22
 150 360 150 360 226 360 c 2,23,-1
 231 360 l 2,24,25
 290 360 290 360 290 408 c 2,26,-1
 290 553 l 1,27,-1
 0 553 l 1,28,-1
 0 628 l 1,29,-1
 445 628 l 1,30,-1
 445 553 l 1,0,-1
EndSplineSet
Validated: 1
EndChar

StartChar: LetterRRA
Encoding: 403 2353 147
Width: 445
GlyphClass: 2
Flags: W
AnchorPoint: "Anchor-1" 362 626 basechar 0
AnchorPoint: "Anchor-0" 350 -24 basechar 0
LayerCount: 2
Fore
SplineSet
445 553 m 1,0,-1
 365 553 l 1,1,-1
 365 406 l 2,2,3
 365 353 365 353 325 318 c 1,4,5
 286 286 286 286 232 286 c 2,6,-1
 216 286 l 1,7,8
 215 284 215 284 203 286 c 1,9,-1
 238 238 l 1,10,11
 258 206 258 206 280 181 c 2,12,-1
 353 94 l 2,13,14
 392 48 392 48 402 42 c 1,15,-1
 350 -13 l 1,16,17
 256 82 256 82 164 212 c 1,18,-1
 29 407 l 1,19,-1
 89 449 l 1,20,-1
 121 402 l 2,21,22
 150 360 150 360 226 360 c 2,23,-1
 231 360 l 2,24,25
 290 360 290 360 290 408 c 2,26,-1
 290 553 l 1,27,-1
 0 553 l 1,28,-1
 0 628 l 1,29,-1
 445 628 l 1,30,-1
 445 553 l 1,0,-1
129 54 m 1,31,-1
 72 -4 l 1,32,-1
 18 50 l 1,33,-1
 75 108 l 1,34,-1
 129 54 l 1,31,-1
EndSplineSet
Validated: 1
EndChar

StartChar: LetterLa
Encoding: 404 2354 148
Width: 672
GlyphClass: 2
Flags: W
LayerCount: 2
Fore
SplineSet
672 553 m 1,0,-1
 599 553 l 1,1,-1
 599 -8 l 1,2,-1
 523 -8 l 1,3,-1
 523 352 l 1,4,5
 486 348 486 348 431 295 c 1,6,7
 378 240 378 240 364 187 c 1,8,-1
 296 221 l 1,9,10
 296 245 296 245 310 265 c 1,11,12
 311 271 311 271 335 296 c 1,13,14
 305 324 305 324 277 340 c 1,15,16
 259 348 259 348 238 352 c 1,17,18
 186 352 186 352 151 328 c 1,19,20
 118 304 118 304 118 254 c 0,21,22
 118 181 118 181 214 110 c 0,23,24
 290 54 290 54 322 54 c 1,25,-1
 284 -11 l 1,26,27
 228 -11 228 -11 118 95 c 0,28,29
 43 167 43 167 43 257 c 2,30,-1
 43 260 l 2,31,32
 43 332 43 332 96 379 c 1,33,34
 146 426 146 426 222 426 c 2,35,-1
 224 426 l 1,36,37
 313 425 313 425 382 352 c 1,38,39
 451 425 451 425 523 426 c 1,40,-1
 523 553 l 1,41,-1
 0 553 l 1,42,-1
 0 628 l 1,43,-1
 672 628 l 1,44,-1
 672 553 l 1,0,-1
EndSplineSet
Validated: 1
EndChar

StartChar: LetterLLA
Encoding: 405 2355 149
Width: 677
GlyphClass: 2
Flags: W
AnchorPoint: "Anchor-1" 534 627 basechar 0
AnchorPoint: "Anchor-0" 477 30 basechar 0
LayerCount: 2
Fore
SplineSet
308 256 m 1,0,1
 302 301 302 301 277 330 c 1,2,3
 248 366 248 366 208 366 c 0,4,5
 120 366 120 366 120 254 c 2,6,-1
 120 249 l 2,7,8
 120 134 120 134 208 134 c 2,9,-1
 212 134 l 2,10,11
 251 134 251 134 278 174 c 0,12,13
 301 208 301 208 308 256 c 1,0,1
565 242 m 2,14,-1
 565 250 l 2,15,16
 565 299 565 299 553 326 c 0,17,18
 535 366 535 366 478 366 c 2,19,-1
 476 366 l 2,20,21
 430 366 430 366 402 314 c 0,22,23
 396 303 396 303 383 254 c 1,24,25
 383 217 383 217 416 170 c 1,26,27
 445 134 445 134 488 134 c 0,28,29
 523 134 523 134 546 172 c 0,30,31
 565 203 565 203 565 242 c 2,14,-1
677 553 m 1,32,-1
 533 553 l 1,33,-1
 533 440 l 1,34,35
 583 424 583 424 613 366 c 0,36,37
 641 312 641 312 641 257 c 0,38,39
 641 175 641 175 602 122 c 0,40,41
 559 64 559 64 480 64 c 0,42,43
 384 64 384 64 344 155 c 1,44,45
 302 59 302 59 205 59 c 0,46,47
 131 59 131 59 85 119 c 0,48,49
 46 170 46 170 46 253 c 2,50,-1
 46 262 l 2,51,52
 46 331 46 331 89 383 c 1,53,54
 136 442 136 442 210 442 c 0,55,56
 299 442 299 442 344 360 c 1,57,58
 358 389 358 389 391 414 c 0,59,60
 425 439 425 439 458 443 c 1,61,-1
 458 553 l 1,62,-1
 0 553 l 1,63,-1
 0 628 l 1,64,-1
 677 628 l 1,65,-1
 677 553 l 1,32,-1
EndSplineSet
Validated: 1
EndChar

StartChar: LetterLLLA
Encoding: 406 2356 150
Width: 677
GlyphClass: 2
Flags: W
AnchorPoint: "Anchor-1" 535 631 basechar 0
AnchorPoint: "Anchor-0" 462 -114 basechar 0
LayerCount: 2
Fore
SplineSet
308 256 m 1,0,1
 302 301 302 301 277 330 c 1,2,3
 248 366 248 366 208 366 c 0,4,5
 120 366 120 366 120 254 c 2,6,-1
 120 249 l 2,7,8
 120 134 120 134 208 134 c 2,9,-1
 212 134 l 2,10,11
 251 134 251 134 278 174 c 0,12,13
 301 208 301 208 308 256 c 1,0,1
565 242 m 2,14,-1
 565 250 l 2,15,16
 565 299 565 299 553 326 c 0,17,18
 535 366 535 366 478 366 c 2,19,-1
 476 366 l 2,20,21
 430 366 430 366 402 314 c 0,22,23
 396 303 396 303 383 254 c 1,24,25
 383 217 383 217 416 170 c 1,26,27
 445 134 445 134 488 134 c 0,28,29
 523 134 523 134 546 172 c 0,30,31
 565 203 565 203 565 242 c 2,14,-1
677 553 m 1,32,-1
 533 553 l 1,33,-1
 533 440 l 1,34,35
 583 424 583 424 613 366 c 0,36,37
 641 312 641 312 641 257 c 0,38,39
 641 175 641 175 602 122 c 0,40,41
 559 64 559 64 480 64 c 0,42,43
 384 64 384 64 344 155 c 1,44,45
 302 59 302 59 205 59 c 0,46,47
 131 59 131 59 85 119 c 0,48,49
 46 170 46 170 46 253 c 2,50,-1
 46 262 l 2,51,52
 46 331 46 331 89 383 c 1,53,54
 136 442 136 442 210 442 c 0,55,56
 299 442 299 442 344 360 c 1,57,58
 358 389 358 389 391 414 c 0,59,60
 425 439 425 439 458 443 c 1,61,-1
 458 553 l 1,62,-1
 0 553 l 1,63,-1
 0 628 l 1,64,-1
 677 628 l 1,65,-1
 677 553 l 1,32,-1
506 -82 m 1,66,-1
 406 -82 l 1,67,-1
 406 12 l 1,68,-1
 506 12 l 1,69,-1
 506 -82 l 1,66,-1
EndSplineSet
Validated: 1
EndChar

StartChar: LetterVA
Encoding: 407 2357 151
Width: 504
GlyphClass: 2
Flags: W
AnchorPoint: "Anchor-1" 422 626 basechar 0
AnchorPoint: "Anchor-0" 366 -8 basechar 0
LayerCount: 2
Fore
SplineSet
504 553 m 1,0,-1
 408 553 l 1,1,-1
 408 -8 l 1,2,-1
 333 -8 l 1,3,-1
 333 170 l 1,4,5
 308 151 308 151 296 145 c 0,6,7
 245 120 245 120 204 120 c 2,8,-1
 201 120 l 2,9,10
 130 120 130 120 76 168 c 0,11,12
 21 217 21 217 21 290 c 2,13,-1
 21 295 l 2,14,15
 21 357 21 357 67 414 c 0,16,17
 110 467 110 467 184 467 c 0,18,19
 198 467 198 467 270 455 c 1,20,-1
 290 373 l 1,21,-1
 259 382 l 2,22,23
 223 392 223 392 189 392 c 0,24,25
 147 392 147 392 123 365 c 0,26,27
 96 335 96 335 96 296 c 2,28,-1
 96 293 l 2,29,30
 96 249 96 249 124 223 c 0,31,32
 153 196 153 196 199 196 c 2,33,-1
 205 196 l 2,34,35
 250 196 250 196 295 227 c 0,36,37
 321 245 321 245 333 257 c 1,38,-1
 333 553 l 1,39,-1
 0 553 l 1,40,-1
 0 628 l 1,41,-1
 504 628 l 1,42,-1
 504 553 l 1,0,-1
EndSplineSet
Validated: 1
EndChar

StartChar: LetterSHA
Encoding: 408 2358 152
Width: 662
GlyphClass: 2
Flags: W
LayerCount: 2
Fore
SplineSet
318 473 m 1,0,1
 296 553 296 553 224 553 c 0,2,3
 198 553 198 553 178 533 c 0,4,5
 156 511 156 511 156 487 c 2,6,-1
 156 485 l 1,7,-1
 156 483 l 2,8,9
 156 462 156 462 175 445 c 1,10,11
 198 428 198 428 228 428 c 0,12,13
 250 428 250 428 288 451 c 1,14,-1
 318 473 l 1,0,1
431 628 m 1,15,-1
 662 628 l 1,16,-1
 662 553 l 1,17,-1
 583 553 l 1,18,-1
 583 5 l 1,19,-1
 510 5 l 1,20,-1
 510 553 l 1,21,-1
 359 553 l 1,22,23
 401 503 401 503 401 427 c 2,24,-1
 401 421 l 1,25,-1
 401 415 l 2,26,27
 401 338 401 338 346 269 c 1,28,29
 284 197 284 197 198 197 c 1,30,-1
 382 37 l 1,31,-1
 331 -16 l 1,32,-1
 41 238 l 1,33,-1
 88 292 l 1,34,-1
 136 251 l 1,35,36
 202 251 202 251 259 289 c 0,37,38
 324 332 324 332 324 396 c 1,39,40
 275 354 275 354 223 354 c 2,41,-1
 219 354 l 1,42,-1
 216 354 l 2,43,44
 167 354 167 354 125 382 c 0,45,46
 79 413 79 413 79 470 c 2,47,-1
 79 474 l 1,48,-1
 79 478 l 2,49,50
 79 522 79 522 100 553 c 1,51,-1
 0 553 l 1,52,-1
 0 628 l 1,53,-1
 431 628 l 1,15,-1
EndSplineSet
Validated: 1
EndChar

StartChar: LetterSSA
Encoding: 409 2359 153
Width: 491
GlyphClass: 2
Flags: W
LayerCount: 2
Fore
SplineSet
325 276 m 1,0,-1
 118 496 l 1,1,-1
 118 318 l 2,2,3
 118 278 118 278 152 254 c 0,4,5
 180 234 180 234 224 234 c 0,6,7
 265 234 265 234 290 247 c 0,8,9
 313 260 313 260 325 276 c 1,0,-1
342 337 m 1,10,-1
 342 553 l 1,11,-1
 138 553 l 1,12,-1
 342 337 l 1,10,-1
491 553 m 1,13,-1
 416 553 l 1,14,-1
 416 -1 l 1,15,-1
 342 -1 l 1,16,-1
 342 198 l 1,17,18
 299 158 299 158 228 158 c 0,19,20
 155 158 155 158 102 199 c 0,21,22
 43 244 43 244 43 314 c 2,23,-1
 43 553 l 1,24,-1
 0 553 l 1,25,-1
 0 628 l 1,26,-1
 491 628 l 1,27,-1
 491 553 l 1,13,-1
EndSplineSet
Validated: 1
EndChar

StartChar: LetterSA
Encoding: 410 2360 154
Width: 683
GlyphClass: 2
Flags: W
LayerCount: 2
Fore
SplineSet
534 367 m 1,0,-1
 534 553 l 1,1,-1
 365 553 l 1,2,-1
 365 406 l 2,3,4
 365 388 365 388 359 367 c 1,5,-1
 534 367 l 1,0,-1
683 553 m 1,6,-1
 610 553 l 1,7,-1
 610 -8 l 1,8,-1
 534 -8 l 1,9,-1
 534 293 l 1,10,-1
 366 293 l 1,11,-1
 338 331 l 1,12,13
 299 286 299 286 229 286 c 0,14,15
 211 286 211 286 203 288 c 1,16,-1
 238 238 l 1,17,18
 258 206 258 206 280 181 c 2,19,-1
 353 94 l 2,20,21
 392 48 392 48 402 42 c 1,22,-1
 350 -13 l 1,23,24
 256 82 256 82 164 212 c 1,25,-1
 29 407 l 1,26,-1
 89 449 l 1,27,-1
 121 402 l 2,28,29
 150 360 150 360 226 360 c 2,30,-1
 231 360 l 2,31,32
 290 360 290 360 290 408 c 2,33,-1
 290 553 l 1,34,-1
 0 553 l 1,35,-1
 0 628 l 1,36,-1
 683 628 l 1,37,-1
 683 553 l 1,6,-1
EndSplineSet
Validated: 1
EndChar

StartChar: LetterHA
Encoding: 411 2361 155
Width: 498
GlyphClass: 2
Flags: W
AnchorPoint: "Anchor-1" 414 628 basechar 0
AnchorPoint: "Anchor-0" 350 -76 basechar 0
LayerCount: 2
Fore
SplineSet
498 553 m 1,0,-1
 421 553 l 1,1,-1
 421 379 l 1,2,-1
 133 379 l 2,3,4
 125 379 125 379 125 372 c 0,5,6
 125 358 125 358 146 326 c 1,7,8
 168 295 168 295 186 280 c 1,9,10
 245 300 245 300 276 300 c 2,11,-1
 281 300 l 2,12,13
 356 300 356 300 409 268 c 1,14,15
 461 232 461 232 461 164 c 2,16,-1
 461 159 l 2,17,18
 461 125 461 125 432 92 c 1,19,-1
 400 62 l 1,20,-1
 340 110 l 1,21,22
 386 132 386 132 386 167 c 0,23,24
 386 199 386 199 336 216 c 1,25,26
 305 224 305 224 274 224 c 2,27,-1
 265 224 l 2,28,29
 218 224 218 224 174 194 c 0,30,31
 126 162 126 162 126 126 c 0,32,33
 126 68 126 68 232 22 c 0,34,35
 306 -10 306 -10 386 -10 c 1,36,-1
 373 -66 l 1,37,38
 368 -71 368 -71 354 -71 c 0,39,40
 315 -71 315 -71 211 -35 c 0,41,42
 52 20 52 20 52 132 c 2,43,-1
 52 135 l 2,44,45
 52 186 52 186 119 248 c 1,46,47
 43 325 43 325 43 386 c 2,48,-1
 43 392 l 2,49,50
 43 415 43 415 59 434 c 0,51,52
 76 455 76 455 103 455 c 2,53,-1
 347 455 l 1,54,-1
 347 553 l 1,55,-1
 0 553 l 1,56,-1
 0 628 l 1,57,-1
 498 628 l 1,58,-1
 498 553 l 1,0,-1
EndSplineSet
Validated: 1
EndChar

StartChar: SignNukta
Encoding: 412 2364 156
Width: 0
GlyphClass: 2
Flags: W
LayerCount: 2
Fore
SplineSet
-315 -81 m 1,0,-1
 -353 -16 l 1,1,-1
 -293 19 l 1,2,-1
 -255 -46 l 1,3,-1
 -315 -81 l 1,0,-1
EndSplineSet
Validated: 1
EndChar

StartChar: SignAvagraha
Encoding: 413 2365 157
Width: 451
GlyphClass: 2
Flags: W
LayerCount: 2
Fore
SplineSet
451 155 m 0,0,1
 451 80 451 80 391 38 c 0,2,3
 335 -1 335 -1 260 -1 c 2,4,-1
 258 -1 l 2,5,6
 191 -1 191 -1 102 58 c 0,7,8
 32 104 32 104 24 125 c 1,9,-1
 76 177 l 1,10,11
 166 73 166 73 258 73 c 2,12,-1
 267 73 l 2,13,14
 301 73 301 73 336 88 c 0,15,16
 378 106 378 106 378 148 c 0,17,18
 378 188 378 188 296 255 c 2,19,-1
 145 379 l 1,20,21
 62 451 62 451 62 500 c 0,22,23
 62 551 62 551 95 584 c 0,24,25
 138 628 138 628 178 628 c 2,26,-1
 451 628 l 1,27,-1
 451 550 l 1,28,-1
 175 550 l 2,29,30
 164 550 164 550 150 535.5 c 128,-1,31
 136 521 136 521 136 505 c 0,32,33
 136 483 136 483 217 416 c 0,34,35
 359 299 359 299 368 290 c 0,36,37
 451 212 451 212 451 155 c 0,0,1
EndSplineSet
Validated: 1
EndChar

StartChar: SignAA
Encoding: 414 2366 158
Width: 224
GlyphClass: 2
Flags: W
LayerCount: 2
Fore
SplineSet
224 553 m 1,0,-1
 145 553 l 1,1,-1
 145 1 l 1,2,-1
 72 1 l 1,3,-1
 72 553 l 1,4,-1
 0 553 l 1,5,-1
 0 628 l 1,6,-1
 224 628 l 1,7,-1
 224 553 l 1,0,-1
EndSplineSet
Validated: 1
EndChar

StartChar: SignI
Encoding: 415 2367 159
Width: 226
GlyphClass: 2
Flags: W
LayerCount: 2
Fore
SplineSet
656 628 m 1,0,-1
 570 628 l 1,1,2
 570 635 570 635 518 683 c 0,3,4
 466 732 466 732 391 775 c 1,5,6
 324 815 324 815 234 815 c 0,7,8
 125 815 125 815 125 702 c 0,9,10
 125 682 125 682 132 652 c 1,11,-1
 139 628 l 1,12,-1
 225 628 l 1,13,-1
 225 553 l 1,14,-1
 145 553 l 1,15,-1
 145 0 l 1,16,-1
 72 0 l 1,17,-1
 72 555 l 1,18,-1
 0 555 l 1,19,-1
 0 628 l 1,20,-1
 72 628 l 1,21,22
 57 673 57 673 52 708 c 0,23,24
 51 715 51 715 51 722 c 0,25,26
 51 785 51 785 103 835 c 0,27,28
 157 888 157 888 241 888 c 2,29,-1
 244 888 l 2,30,31
 346 888 346 888 440 830 c 0,32,33
 546 764 546 764 656 628 c 1,0,-1
EndSplineSet
Validated: 1
EndChar

StartChar: SignII
Encoding: 416 2368 160
Width: 224
GlyphClass: 2
Flags: W
LayerCount: 2
Fore
SplineSet
224 553 m 1,0,-1
 145 553 l 1,1,-1
 145 1 l 1,2,-1
 72 1 l 1,3,-1
 72 553 l 1,4,-1
 -7 553 l 1,5,-1
 -7 628 l 1,6,-1
 74 628 l 1,7,8
 77 649 77 649 77 659 c 0,9,10
 77 731 77 731 26 770 c 1,11,12
 -14 803 -14 803 -70 803 c 0,13,14
 -110 803 -110 803 -144 785 c 1,15,16
 -181 764 -181 764 -182 732 c 1,17,18
 -182 688 -182 688 -134 628 c 1,19,-1
 -214 628 l 1,20,21
 -256 680 -256 680 -256 737 c 0,22,23
 -256 793 -256 793 -199 835 c 0,24,25
 -144 876 -144 876 -72 876 c 0,26,27
 13 876 13 876 76 824 c 0,28,29
 146 766 146 766 146 660 c 0,30,31
 146 638 146 638 145 628 c 1,32,-1
 224 628 l 1,33,-1
 224 553 l 1,0,-1
EndSplineSet
Validated: 1
EndChar

StartChar: SignU
Encoding: 417 2369 161
Width: 0
GlyphClass: 2
Flags: W
AnchorPoint: "Anchor-2" -152 24 mark 0
AnchorPoint: "Anchor-0" -173 22 mark 0
LayerCount: 2
Fore
SplineSet
18 -122 m 2,0,-1
 18 -124 l 2,1,2
 18 -193 18 -193 -48 -236 c 0,3,4
 -103 -272 -103 -272 -180 -272 c 0,5,6
 -308 -272 -308 -272 -395 -162 c 0,7,8
 -437 -108 -437 -108 -473 -5 c 1,9,-1
 -400 -5 l 1,10,11
 -373 -88 -373 -88 -319 -139 c 0,12,13
 -257 -199 -257 -199 -178 -199 c 0,14,15
 -55 -199 -55 -199 -55 -121 c 2,16,-1
 -55 -119 l 2,17,18
 -55 -67 -55 -67 -110 -67 c 0,19,20
 -150 -67 -150 -67 -178 -78 c 0,21,22
 -192 -84 -192 -84 -208 -100 c 1,23,-1
 -263 -53 l 1,24,25
 -202 6 -202 6 -118 6 c 2,26,-1
 -114 6 l 2,27,28
 -55 6 -55 6 -19 -26 c 1,29,30
 18 -62 18 -62 18 -122 c 2,0,-1
EndSplineSet
Validated: 1
EndChar

StartChar: SignUU
Encoding: 418 2370 162
Width: 0
GlyphClass: 2
Flags: W
AnchorPoint: "Anchor-2" -130 8 mark 0
AnchorPoint: "Anchor-0" -144 6 mark 0
LayerCount: 2
Fore
SplineSet
167 -262 m 1,0,-1
 94 -262 l 1,1,2
 67 -179 67 -179 13 -127 c 0,3,4
 -49 -67 -49 -67 -128 -67 c 0,5,6
 -251 -67 -251 -67 -251 -145 c 2,7,-1
 -251 -147 l 2,8,9
 -251 -199 -251 -199 -196 -199 c 0,10,11
 -156 -199 -156 -199 -128 -188 c 1,12,13
 -115 -184 -115 -184 -98 -167 c 1,14,-1
 -43 -214 l 1,15,16
 -103 -272 -103 -272 -188 -272 c 2,17,-1
 -195 -272 l 2,18,19
 -250 -272 -250 -272 -287 -240 c 1,20,21
 -324 -204 -324 -204 -324 -144 c 2,22,-1
 -324 -142 l 2,23,24
 -324 -73 -324 -73 -258 -30 c 0,25,26
 -203 6 -203 6 -126 6 c 0,27,28
 4 6 4 6 89 -104 c 0,29,30
 131 -158 131 -158 167 -262 c 1,0,-1
EndSplineSet
Validated: 1
EndChar

StartChar: SignRu
Encoding: 419 2371 163
Width: 0
GlyphClass: 2
Flags: W
AnchorPoint: "Anchor-0" -148 7 mark 0
LayerCount: 2
Fore
SplineSet
-10 -221 m 1,0,1
 -50 -263 -50 -263 -130 -263 c 2,2,-1
 -134 -263 l 1,3,-1
 -137 -263 l 1,4,-1
 -250 -227 l 1,5,6
 -311 -188 -311 -188 -311 -126 c 0,7,8
 -311 -71 -311 -71 -275 -31 c 1,9,10
 -239 6 -239 6 -182 6 c 2,11,-1
 -83 6 l 1,12,-1
 -83 -67 l 1,13,-1
 -169 -67 l 2,14,15
 -238 -67 -238 -67 -238 -122 c 2,16,-1
 -238 -124 l 1,17,-1
 -238 -126 l 2,18,19
 -238 -155 -238 -155 -204 -174 c 0,20,21
 -176 -190 -176 -190 -140 -190 c 0,22,23
 -106 -190 -106 -190 -79 -178 c 1,24,25
 -77 -176 -77 -176 -49 -160 c 1,26,-1
 -10 -221 l 1,0,1
EndSplineSet
Validated: 1
EndChar

StartChar: SignVocalicRR
Encoding: 420 2372 164
Width: 0
GlyphClass: 2
Flags: W
AnchorPoint: "Anchor-0" -122 -32 mark 0
LayerCount: 2
Fore
SplineSet
-268 -320 m 0,0,1
 -268 -306 -268 -306 -266.5 -295.5 c 128,-1,2
 -265 -285 -265 -285 -264 -279 c 128,-1,3
 -263 -273 -263 -273 -257.5 -265.5 c 128,-1,4
 -252 -258 -252 -258 -251 -256 c 128,-1,5
 -250 -254 -250 -254 -240 -245 c 2,6,-1
 -229 -234 l 2,7,8
 -231 -236 -231 -236 -250 -229 c 0,9,10
 -311 -207 -311 -207 -311 -126 c 0,11,12
 -311 -70 -311 -70 -275 -31 c 1,13,14
 -239 6 -239 6 -182 6 c 2,15,-1
 -83 6 l 1,16,-1
 -83 -67 l 1,17,-1
 -169 -67 l 2,18,19
 -238 -67 -238 -67 -238 -122 c 2,20,-1
 -238 -124 l 2,21,22
 -238 -156 -238 -156 -204 -174 c 1,23,24
 -166 -196 -166 -196 -140 -196 c 0,25,26
 -133 -196 -133 -196 -79 -178 c 1,27,-1
 -49 -160 l 1,28,-1
 -10 -221 l 1,29,30
 -39 -248 -39 -248 -80 -254 c 1,31,-1
 -126 -262 l 1,32,33
 -194 -262 -194 -262 -194 -317 c 2,34,-1
 -194 -320 l 2,35,36
 -194 -349 -194 -349 -161 -368 c 0,37,38
 -133 -384 -133 -384 -97 -384 c 0,39,40
 -62 -384 -62 -384 -36 -372 c 1,41,-1
 -6 -354 l 1,42,-1
 34 -415 l 1,43,44
 -8 -457 -8 -457 -86 -457 c 2,45,-1
 -90 -457 l 2,46,47
 -152 -457 -152 -457 -206 -424 c 0,48,49
 -268 -386 -268 -386 -268 -320 c 0,0,1
EndSplineSet
Validated: 1
EndChar

StartChar: SignCandraE
Encoding: 421 2373 165
Width: 0
GlyphClass: 4
Flags: W
AnchorPoint: "Anchor-1" -117 630 mark 0
LayerCount: 2
Fore
SplineSet
76 847 m 1,0,1
 76 770 76 770 19 721 c 128,-1,2
 -38 672 -38 672 -116 672 c 2,3,-1
 -119 672 l 2,4,5
 -192 672 -192 672 -250 721 c 1,6,7
 -307 772 -307 772 -307 847 c 1,8,-1
 -234 847 l 1,9,10
 -234 803 -234 803 -198 774 c 128,-1,11
 -162 745 -162 745 -116 745 c 0,12,13
 -66 745 -66 745 -32 772 c 0,14,15
 1 798 1 798 1 847 c 1,16,-1
 76 847 l 1,0,1
EndSplineSet
Validated: 1
EndChar

StartChar: SignShortE
Encoding: 422 2374 166
Width: 0
GlyphClass: 4
Flags: W
AnchorPoint: "Anchor-1" 91 627 mark 0
LayerCount: 2
Fore
SplineSet
70 626 m 1,0,-1
 6 626 l 1,1,-1
 6 678 l 2,2,3
 6 733 6 733 -44 741 c 0,4,5
 -50 742 -50 742 -57 741 c 2,6,-1
 -78 738 l 1,7,8
 -173 712 -173 712 -191 709 c 0,9,10
 -198 708 -198 708 -206 709 c 0,11,12
 -252 715 -252 715 -268 726 c 0,13,14
 -308 754 -308 754 -308 798 c 2,15,-1
 -308 877 l 1,16,-1
 -241 877 l 1,17,-1
 -241 822 l 2,18,19
 -241 775 -241 775 -200 775 c 2,20,-1
 -198 775 l 2,21,22
 -183 775 -183 775 -116 794 c 0,23,24
 -77 805 -77 805 -51 805 c 0,25,26
 -33 805 -33 805 -17 800 c 0,27,28
 45 781 45 781 64 741 c 0,29,30
 70 729 70 729 70 714 c 2,31,-1
 70 626 l 1,0,-1
EndSplineSet
Validated: 1
EndChar

StartChar: SignE
Encoding: 423 2375 167
Width: 0
GlyphClass: 2
Flags: W
AnchorPoint: "Anchor-1" -66 597 mark 0
LayerCount: 2
Fore
SplineSet
-78 601 m 1,0,-1
 -155 601 l 1,1,-1
 -397 845 l 1,2,-1
 -335 905 l 1,3,-1
 -78 601 l 1,0,-1
EndSplineSet
Validated: 1
EndChar

StartChar: SignAI
Encoding: 424 2376 168
Width: 0
GlyphClass: 4
Flags: W
AnchorPoint: "Anchor-1" -66 603 mark 0
LayerCount: 2
Fore
SplineSet
-74 602 m 1,0,-1
 -138 602 l 1,1,-1
 -446 760 l 1,2,-1
 -396 816 l 1,3,-1
 -178 680 l 1,4,-1
 -280 895 l 1,5,-1
 -216 931 l 1,6,-1
 -74 602 l 1,0,-1
EndSplineSet
Validated: 1
EndChar

StartChar: SignCandraO
Encoding: 425 2377 169
Width: 230
GlyphClass: 2
Flags: W
LayerCount: 2
Fore
SplineSet
228 785 m 1,0,1
 228 730 228 730 188 697 c 0,2,3
 148 663 148 663 93 662 c 1,4,-1
 91 662 l 2,5,6
 40 662 40 662 0 697 c 0,7,8
 -40 733 -40 733 -40 785 c 1,9,-1
 12 785 l 1,10,11
 12 754 12 754 37 733.5 c 128,-1,12
 62 713 62 713 93 713 c 0,13,14
 129 713 129 713 152 732 c 1,15,16
 176 750 176 750 176 785 c 1,17,-1
 228 785 l 1,0,1
230 553 m 1,18,-1
 151 553 l 1,19,-1
 151 1 l 1,20,-1
 78 1 l 1,21,-1
 78 553 l 1,22,-1
 -1 553 l 1,23,-1
 -1 628 l 1,24,-1
 230 628 l 1,25,-1
 230 553 l 1,18,-1
EndSplineSet
Validated: 1
EndChar

StartChar: uni094A
Encoding: 426 2378 170
Width: 232
GlyphClass: 2
Flags: W
LayerCount: 2
Fore
SplineSet
141 630 m 1,0,-1
 77 630 l 1,1,-1
 77 682 l 2,2,3
 77 737 77 737 27 745 c 0,4,5
 21 746 21 746 16 745 c 2,6,-1
 -9 742 l 1,7,8
 -103 715 -103 715 -119 713 c 0,9,10
 -127 712 -127 712 -136 713 c 0,11,12
 -178 718 -178 718 -196 730 c 0,13,14
 -237 756 -237 756 -237 802 c 2,15,-1
 -237 881 l 1,16,-1
 -170 881 l 1,17,-1
 -170 826 l 2,18,19
 -170 779 -170 779 -129 779 c 2,20,-1
 -127 779 l 2,21,22
 -111 779 -111 779 -45 798 c 0,23,24
 -7 809 -7 809 20 809 c 0,25,26
 39 809 39 809 55 804 c 0,27,28
 117 785 117 785 135 745 c 0,29,30
 141 733 141 733 141 718 c 2,31,-1
 141 630 l 1,0,-1
232 553 m 1,32,-1
 153 553 l 1,33,-1
 153 1 l 1,34,-1
 80 1 l 1,35,-1
 80 553 l 1,36,-1
 1 553 l 1,37,-1
 1 628 l 1,38,-1
 232 628 l 1,39,-1
 232 553 l 1,32,-1
EndSplineSet
Validated: 1
EndChar

StartChar: SignO
Encoding: 427 2379 171
Width: 231
GlyphClass: 2
Flags: W
LayerCount: 2
Fore
SplineSet
231 553 m 1,0,-1
 152 553 l 1,1,-1
 152 -2 l 1,2,-1
 79 -2 l 1,3,-1
 79 553 l 1,4,-1
 0 553 l 1,5,-1
 0 628 l 1,6,-1
 62 628 l 1,7,-1
 -168 859 l 1,8,-1
 -106 919 l 1,9,-1
 140 628 l 1,10,-1
 231 628 l 1,11,-1
 231 553 l 1,0,-1
EndSplineSet
Validated: 1
EndChar

StartChar: SignAO
Encoding: 428 2380 172
Width: 232
GlyphClass: 2
Flags: W
LayerCount: 2
Fore
SplineSet
232 553 m 1,0,-1
 153 553 l 1,1,-1
 153 1 l 1,2,-1
 80 1 l 1,3,-1
 80 553 l 1,4,-1
 1 553 l 1,5,-1
 1 628 l 1,6,-1
 68 628 l 1,7,-1
 -209 773 l 1,8,-1
 -159 829 l 1,9,-1
 60 694 l 1,10,-1
 -42 908 l 1,11,-1
 21 944 l 1,12,-1
 148 628 l 1,13,-1
 232 628 l 1,14,-1
 232 553 l 1,0,-1
EndSplineSet
Validated: 1
EndChar

StartChar: SignHalant
Encoding: 429 2381 173
Width: 0
GlyphClass: 4
Flags: W
AnchorPoint: "Anchor-0" -153 -24 mark 0
LayerCount: 2
Fore
SplineSet
58 -203 m 1,0,-1
 25 -236 l 1,1,-1
 -166 -26 l 1,2,-1
 -77 -26 l 1,3,-1
 58 -203 l 1,0,-1
EndSplineSet
Validated: 1
EndChar

StartChar: uni094E
Encoding: 430 2382 174
Width: 157
GlyphClass: 2
Flags: W
LayerCount: 2
Fore
SplineSet
157 553 m 1,0,-1
 78 553 l 1,1,-1
 78 -1 l 1,2,-1
 5 -1 l 1,3,-1
 5 553 l 1,4,-1
 0 552 l 1,5,-1
 0 628 l 1,6,-1
 157 628 l 1,7,-1
 157 553 l 1,0,-1
EndSplineSet
Validated: 1
EndChar

StartChar: uni094F
Encoding: 431 2383 175
Width: 257
GlyphClass: 2
Flags: W
LayerCount: 2
Fore
SplineSet
151 860 m 0,0,1
 173 843 173 843 187 788 c 0,2,3
 192 768 192 768 192 729 c 0,4,5
 192 712 192 712 191 694 c 1,6,-1
 191 628 l 1,7,-1
 257 628 l 1,8,-1
 257 553 l 1,9,-1
 178 553 l 1,10,-1
 178 1 l 1,11,-1
 105 1 l 1,12,-1
 105 553 l 1,13,-1
 -1 553 l 1,14,-1
 -1 628 l 1,15,-1
 111 628 l 1,16,-1
 111 670 l 1,17,18
 96 692 96 692 66 692 c 0,19,20
 53 692 53 692 37 688 c 0,21,22
 -58 663 -58 663 -76 660 c 0,23,24
 -83 659 -83 659 -91 659 c 0,25,26
 -126 659 -126 659 -153 676 c 0,27,28
 -193 702 -193 702 -193 748 c 2,29,-1
 -193 827 l 1,30,-1
 -126 827 l 1,31,-1
 -126 772 l 2,32,33
 -126 728 -126 728 -85 725 c 1,34,-1
 -83 725 l 2,35,36
 -66 725 -66 725 0 743 c 1,37,-1
 71 758 l 1,38,39
 123 751 123 751 123 729 c 1,40,41
 125 746 125 746 125 759 c 0,42,43
 125 832 125 832 75 840 c 0,44,45
 68 841 68 841 61 841 c 0,46,47
 50 841 50 841 41 838 c 2,48,-1
 8 827 l 1,49,50
 1 826 1 826 -7 826 c 0,51,52
 -42 826 -42 826 -69 843 c 0,53,54
 -109 868 -109 868 -109 915 c 2,55,-1
 -109 994 l 1,56,-1
 -42 994 l 1,57,-1
 -42 939 l 2,58,59
 -42 889 -42 889 15 884 c 1,60,61
 33 888 33 888 51 889 c 1,62,-1
 58 889 l 2,63,64
 113 889 113 889 151 860 c 0,0,1
EndSplineSet
Validated: 1
EndChar

StartChar: LetterOM
Encoding: 432 2384 176
Width: 844
GlyphClass: 2
Flags: W
LayerCount: 2
Fore
SplineSet
587 669 m 1,0,-1
 549 735 l 1,1,-1
 610 770 l 1,2,-1
 648 704 l 1,3,-1
 587 669 l 1,0,-1
844 230 m 2,4,-1
 844 226 l 2,5,6
 844 150 844 150 810 91 c 0,7,8
 770 22 770 22 694 22 c 0,9,10
 635 22 635 22 592 72 c 1,11,-1
 624 144 l 1,12,13
 635 128 635 128 644 120 c 0,14,15
 670 95 670 95 694 95 c 0,16,17
 732 95 732 95 754 134 c 0,18,19
 772 167 772 167 772 209 c 0,20,21
 772 365 772 365 689 365 c 0,22,23
 667 365 667 365 598 286 c 0,24,25
 527 205 527 205 452 205 c 2,26,-1
 433 205 l 1,27,-1
 442 180 l 1,28,-1
 442 154 l 2,29,30
 442 77 442 77 402 36 c 0,31,32
 351 -17 351 -17 294 -17 c 0,33,34
 185 -17 185 -17 58 181 c 0,35,36
 22 237 22 237 22 250 c 1,37,-1
 80 284 l 1,38,39
 120 214 120 214 148 176 c 0,40,41
 230 67 230 67 288 67 c 2,42,-1
 290 67 l 2,43,44
 371 67 371 67 371 154 c 2,45,-1
 371 157 l 2,46,47
 371 203 371 203 341 230 c 0,48,49
 308 259 308 259 259 259 c 2,50,-1
 235 259 l 1,51,-1
 209 251 l 1,52,-1
 172 324 l 1,53,54
 219 324 219 324 264 348 c 0,55,56
 317 377 317 377 317 420 c 2,57,-1
 317 424 l 2,58,59
 317 456 317 456 300 482 c 0,60,61
 282 510 282 510 246 510 c 2,62,-1
 244 510 l 2,63,64
 208 510 208 510 161 475 c 1,65,-1
 122 439 l 1,66,-1
 65 480 l 1,67,68
 65 486 65 486 95 515 c 0,69,70
 167 583 167 583 248 583 c 0,71,72
 311 583 311 583 350.5 535 c 128,-1,73
 390 487 390 487 390 424 c 0,74,75
 390 352 390 352 336 313 c 1,76,-1
 362 304 l 2,77,78
 379 298 379 298 398 286 c 1,79,80
 422 275 422 275 440 275 c 0,81,82
 484 275 484 275 566 355 c 1,83,84
 647 438 647 438 691 438 c 2,85,-1
 693 438 l 2,86,87
 761 438 761 438 805 373 c 0,88,89
 844 315 844 315 844 230 c 2,4,-1
827 755 m 1,90,91
 827 667 827 667 761 610 c 0,92,93
 696 553 696 553 607 553 c 0,94,95
 520 553 520 553 455 610 c 128,-1,96
 390 667 390 667 390 755 c 1,97,-1
 462 755 l 1,98,99
 462 701 462 701 509 662 c 1,100,101
 555 626 555 626 607 626 c 2,102,-1
 610 626 l 2,103,104
 652 626 652 626 701 659 c 0,105,106
 755 695 755 695 755 755 c 1,107,-1
 827 755 l 1,90,91
EndSplineSet
Validated: 1
EndChar

StartChar: StreeSignUdatta
Encoding: 433 2385 177
Width: 0
GlyphClass: 4
Flags: W
AnchorPoint: "Anchor-1" -87 501 mark 0
LayerCount: 2
Fore
SplineSet
-54 842 m 1,0,-1
 -54 536 l 1,1,-1
 -124 536 l 1,2,-1
 -124 841 l 1,3,-1
 -54 842 l 1,0,-1
EndSplineSet
Validated: 1
EndChar

StartChar: StressSignAnudatta
Encoding: 434 2386 178
Width: 0
GlyphClass: 4
Flags: W
LayerCount: 2
Fore
SplineSet
6 -263 m 1,0,-1
 -557 -263 l 1,1,-1
 -557 -211 l 1,2,-1
 6 -211 l 1,3,-1
 6 -263 l 1,0,-1
EndSplineSet
Validated: 1
EndChar

StartChar: GraveAccent
Encoding: 435 2387 179
Width: 0
GlyphClass: 4
Flags: W
LayerCount: 2
Fore
SplineSet
-211 870 m 1,0,-1
 -262 870 l 1,1,-1
 -307 934 l 2,2,3
 -322 955 -322 955 -335 961 c 1,4,-1
 -336 964 l 1,5,-1
 -338 964 l 1,6,-1
 -388 964 l 2,7,8
 -437 964 -437 964 -479 943 c 1,9,10
 -457 994 -457 994 -422 1032 c 1,11,-1
 -389 1032 l 2,12,13
 -326 1032 -326 1032 -300 1015 c 0,14,15
 -280 1002 -280 1002 -254 953 c 2,16,-1
 -211 870 l 1,0,-1
EndSplineSet
Validated: 1
EndChar

StartChar: AcuteAccent
Encoding: 436 2388 180
Width: 0
GlyphClass: 4
Flags: W
LayerCount: 2
Fore
SplineSet
131 863 m 1,0,-1
 184 941 l 1,1,2
 203 967 203 967 220 977 c 0,3,4
 245 991 245 991 317 1010 c 1,5,-1
 350 1010 l 1,6,7
 385 973 385 973 407 924 c 1,8,9
 362 948 362 948 316 948 c 1,10,11
 301 941 301 941 276 934 c 1,12,-1
 241 918 l 1,13,14
 226 907 226 907 180 857 c 1,15,-1
 131 863 l 1,0,-1
EndSplineSet
Validated: 1
EndChar

StartChar: SignCandraLongE
Encoding: 437 2389 181
Width: 0
GlyphClass: 4
Flags: W
AnchorPoint: "Anchor-1" -193 630 mark 0
LayerCount: 2
Fore
SplineSet
0 847 m 1,0,1
 0 769 0 769 -57 721 c 128,-1,2
 -114 673 -114 673 -192 672 c 1,3,-1
 -195 672 l 2,4,5
 -270 672 -270 672 -326 721 c 1,6,7
 -380 772 -380 772 -383 892 c 1,8,-1
 -310 892 l 1,9,10
 -310 848 -310 848 -274 796.5 c 128,-1,11
 -238 745 -238 745 -192 745 c 0,12,13
 -141 745 -141 745 -108 772 c 0,14,15
 -76 798 -76 798 -75 847 c 1,16,-1
 0 847 l 1,0,1
EndSplineSet
Validated: 1
Ligature2: "'abvs' Above Base Substitutions in Devanagari lookup 10 subtable" SignCandraE Signanusvara
EndChar

StartChar: LetterQa
Encoding: 438 2392 182
Width: 767
GlyphClass: 3
Flags: W
AnchorPoint: "Anchor-1" 436 624 basechar 0
AnchorPoint: "Anchor-0" 394 -6 basechar 0
LayerCount: 2
Fore
SplineSet
139 -30 m 1,0,-1
 101 35 l 1,1,-1
 161 70 l 1,2,-1
 199 5 l 1,3,-1
 139 -30 l 1,0,-1
767 553 m 1,4,-1
 430 553 l 1,5,-1
 430 371 l 1,6,7
 487 452 487 452 551 452 c 2,8,-1
 557 452 l 2,9,10
 560 452 560 452 562 452 c 0,11,12
 622 452 622 452 667 407 c 0,13,14
 713 361 713 361 715 293 c 1,15,-1
 715 288 l 2,16,17
 715 286 715 286 715 283 c 0,18,19
 715 231 715 231 654 145 c 0,20,21
 637 121 637 121 592 70 c 1,22,-1
 520 119 l 1,23,24
 547 133 547 133 587 182 c 0,25,26
 638 244 638 244 641 298 c 1,27,28
 641 331 641 331 617 354 c 128,-1,29
 593 377 593 377 558 377 c 2,30,-1
 556 377 l 2,31,32
 555 377 555 377 554 377 c 0,33,34
 503 377 503 377 430 256 c 1,35,-1
 430 -8 l 1,36,-1
 355 -8 l 1,37,-1
 355 162 l 1,38,39
 303 108 303 108 226 108 c 2,40,-1
 223 108 l 1,41,-1
 220 108 l 2,42,43
 153 108 153 108 98 156 c 128,-1,44
 43 204 43 204 43 277 c 2,45,-1
 43 280 l 1,46,-1
 43 283 l 2,47,48
 43 349 43 349 89 401 c 0,49,50
 136 454 136 454 206 455 c 0,51,52
 208 455 208 455 292 443 c 1,53,-1
 312 361 l 1,54,55
 285 369 285 369 281 370 c 0,56,57
 242 379 242 379 211 379 c 2,58,-1
 203 379 l 2,59,60
 200 379 200 379 197 379 c 0,61,62
 168 379 168 379 145 353 c 0,63,64
 120 324 120 324 118 284 c 1,65,66
 118 236 118 236 146 211 c 0,67,68
 176 184 176 184 221 184 c 0,69,70
 257 184 257 184 295 204 c 1,71,72
 334 226 334 226 355 258 c 1,73,-1
 355 553 l 1,74,-1
 0 553 l 1,75,-1
 0 628 l 1,76,-1
 767 628 l 1,77,-1
 767 553 l 1,4,-1
EndSplineSet
Validated: 1
Ligature2: "'nukt' Nukta Forms in Devanagari lookup 1 subtable" LetterKA SignNukta
EndChar

StartChar: LetterKHHA
Encoding: 439 2393 183
Width: 799
GlyphClass: 3
Flags: W
LayerCount: 2
Fore
SplineSet
387 -101 m 1,0,-1
 349 -35 l 1,1,-1
 410 0 l 1,2,-1
 448 -66 l 1,3,-1
 387 -101 l 1,0,-1
482 115 m 0,4,5
 484 115 484 115 557 151 c 0,6,7
 617 181 617 181 650 205 c 1,8,-1
 650 257 l 1,9,10
 610 221 610 221 588 214 c 0,11,12
 575 210 575 210 527 210 c 0,13,14
 475 210 475 210 460 220 c 1,15,-1
 458 220 l 1,16,-1
 434 236 l 1,17,-1
 402 262 l 1,18,19
 382 305 382 305 382 338 c 0,20,21
 382 349 382 349 384 360 c 0,22,23
 391 399 391 399 395 404 c 2,24,-1
 400 409 l 1,25,26
 407 432 407 432 428 450 c 0,27,28
 457 476 457 476 482 476 c 2,29,-1
 484 476 l 1,30,31
 494 479 494 479 532 479 c 0,32,33
 548 479 548 479 593 464 c 1,34,-1
 614 392 l 1,35,36
 546 398 546 398 539 404 c 1,37,-1
 482 396 l 1,38,39
 444 372 444 372 444 346 c 2,40,-1
 444 344 l 2,41,42
 444 320 444 320 488 288 c 1,43,44
 494 287 494 287 536 278 c 0,45,46
 546 276 546 276 555 276 c 0,47,48
 583 276 583 276 608 294 c 1,49,50
 622 302 622 302 650 342 c 1,51,-1
 650 553 l 1,52,-1
 300 553 l 1,53,-1
 300 394 l 2,54,55
 300 360 300 360 290 343 c 1,56,57
 253 306 253 306 250 302 c 1,58,-1
 212 288 l 1,59,60
 205 287 205 287 184 287 c 1,61,-1
 166 289 l 1,62,63
 166 289 166 289 199 214 c 1,64,-1
 200 212 l 1,65,-1
 202 212 l 1,66,67
 219 176 219 176 320 116 c 0,68,69
 347 100 347 100 387.5 100 c 128,-1,70
 428 100 428 100 482 115 c 0,4,5
594 86 m 1,71,-1
 533 56 l 1,72,73
 478 31 478 31 431 30 c 1,74,-1
 402 30 l 1,75,76
 387 26 387 26 372 26 c 0,77,78
 358 26 358 26 344 30 c 2,79,-1
 288 44 l 1,80,-1
 242 72 l 1,81,82
 179 113 179 113 161 136 c 1,83,84
 134 168 134 168 96 257 c 0,85,86
 89 274 89 274 66 334 c 0,87,88
 43 396 43 396 43 407 c 1,89,-1
 104 443 l 1,90,-1
 119 396 l 2,91,92
 130 361 130 361 185 361 c 2,93,-1
 191 361 l 1,94,95
 211 360 211 360 217 368 c 1,96,-1
 217 370 l 1,97,98
 221 376 221 376 224 408 c 1,99,-1
 224 553 l 1,100,-1
 0 553 l 1,101,-1
 0 628 l 1,102,-1
 799 628 l 1,103,-1
 799 553 l 1,104,-1
 725 553 l 1,105,-1
 725 -8 l 1,106,-1
 650 -8 l 1,107,-1
 650 116 l 1,108,-1
 594 86 l 1,71,-1
EndSplineSet
Validated: 1
Ligature2: "'nukt' Nukta Forms in Devanagari lookup 1 subtable" LetterKHA SignNukta
EndChar

StartChar: LetterGHHA
Encoding: 440 2394 184
Width: 535
GlyphClass: 3
Flags: W
LayerCount: 2
Fore
SplineSet
168 62 m 1,0,-1
 130 128 l 1,1,-1
 191 163 l 1,2,-1
 229 97 l 1,3,-1
 168 62 l 1,0,-1
535 553 m 1,4,-1
 462 553 l 1,5,-1
 462 -8 l 1,6,-1
 388 -8 l 1,7,-1
 388 553 l 1,8,-1
 218 553 l 1,9,-1
 218 271 l 2,10,11
 218 246 218 246 216 242 c 1,12,13
 211 218 211 218 187 217 c 1,14,15
 154 217 154 217 98 272 c 1,16,17
 43 331 43 331 43 362 c 2,18,-1
 43 364 l 2,19,20
 43 365 43 365 43 366 c 0,21,22
 43 388 43 388 84 391 c 1,23,-1
 144 391 l 1,24,-1
 144 553 l 1,25,-1
 0 553 l 1,26,-1
 0 628 l 1,27,-1
 535 628 l 1,28,-1
 535 553 l 1,4,-1
EndSplineSet
Validated: 1
Ligature2: "'nukt' Nukta Forms in Devanagari lookup 1 subtable" LetterGA SignNukta
EndChar

StartChar: LetterZA
Encoding: 441 2395 185
Width: 720
GlyphClass: 3
Flags: W
LayerCount: 2
Fore
SplineSet
378 -11 m 1,0,-1
 340 55 l 1,1,-1
 401 90 l 1,2,-1
 439 24 l 1,3,-1
 378 -11 l 1,0,-1
720 553 m 1,4,-1
 647 553 l 1,5,-1
 647 -8 l 1,6,-1
 571 -8 l 1,7,-1
 571 359 l 1,8,-1
 422 359 l 1,9,10
 458 317 458 317 458 259 c 0,11,12
 458 187 458 187 421 149 c 1,13,14
 360 83 360 83 301 83 c 0,15,16
 184 83 184 83 72 336 c 0,17,18
 43 402 43 402 43 421 c 1,19,-1
 103 464 l 1,20,21
 118 372 118 372 194 266 c 1,22,23
 256 182 256 182 319 182 c 0,24,25
 383 182 383 182 383 254 c 0,26,27
 383 256 383 256 383 258 c 0,28,29
 383 299 383 299 340 364 c 1,30,31
 326 379 326 379 295 421 c 1,32,-1
 295 433 l 1,33,-1
 571 433 l 1,34,-1
 571 553 l 1,35,-1
 0 553 l 1,36,-1
 0 628 l 1,37,-1
 720 628 l 1,38,-1
 720 553 l 1,4,-1
EndSplineSet
Validated: 1
Ligature2: "'nukt' Nukta Forms in Devanagari lookup 1 subtable" LetterJA SignNukta
EndChar

StartChar: LetterDDDHA
Encoding: 442 2396 186
Width: 627
GlyphClass: 3
Flags: W
AnchorPoint: "Anchor-1" 534 628 basechar 0
LayerCount: 2
Fore
SplineSet
287 -109 m 1,0,-1
 249 -43 l 1,1,-1
 310 -8 l 1,2,-1
 348 -74 l 1,3,-1
 287 -109 l 1,0,-1
627 553 m 1,4,-1
 536 553 l 1,5,-1
 536 379 l 1,6,-1
 278 379 l 1,7,-1
 305 318 l 1,8,9
 349 264 349 264 376 264 c 0,10,11
 379 264 379 264 382 265 c 2,12,-1
 464 286 l 1,13,-1
 518 292 l 1,14,15
 543 292 543 292 567 250 c 1,16,17
 586 212 586 212 586 184 c 2,18,-1
 586 181 l 2,19,20
 586 94 586 94 536 44 c 1,21,22
 469 -19 469 -19 394 -19 c 0,23,24
 255 -18 255 -18 93 198 c 0,25,26
 45 262 45 262 44 272 c 1,27,-1
 95 320 l 1,28,29
 94 317 94 317 94 314 c 0,30,31
 94 276 94 276 237 148 c 1,32,33
 322 70 322 70 395 67 c 1,34,35
 510 67 510 67 512 181 c 0,36,37
 512 183 512 183 512 184 c 0,38,39
 512 212 512 212 479 216 c 1,40,41
 465 216 465 216 411 199 c 0,42,43
 398 194 398 194 374 191 c 1,44,45
 315 191 315 191 251 266 c 1,46,47
 195 336 195 336 195 386 c 0,48,49
 195 389 195 389 195 392 c 0,50,51
 195 415 195 415 214 434 c 1,52,53
 237 455 237 455 263 455 c 2,54,-1
 461 455 l 1,55,-1
 461 553 l 1,56,-1
 0 553 l 1,57,-1
 0 628 l 1,58,-1
 627 628 l 1,59,-1
 627 553 l 1,4,-1
EndSplineSet
Validated: 1
Ligature2: "'nukt' Nukta Forms in Devanagari lookup 1 subtable" LetterDDA SignNukta
EndChar

StartChar: LetterRHA
Encoding: 443 2397 187
Width: 551
GlyphClass: 3
Flags: W
AnchorPoint: "Anchor-1" 434 630 basechar 0
LayerCount: 2
Fore
SplineSet
284 -126 m 1,0,-1
 246 -60 l 1,1,-1
 307 -25 l 1,2,-1
 345 -91 l 1,3,-1
 284 -126 l 1,0,-1
439 138 m 1,4,5
 439 197 439 197 388 199 c 1,6,-1
 383 199 l 1,7,-1
 379 199 l 2,8,9
 377 199 377 199 375 199 c 0,10,11
 341 199 341 199 341 146 c 0,12,13
 341 96 341 96 376 68 c 1,14,15
 398 73 398 73 418 95 c 0,16,17
 436 115 436 115 439 138 c 1,4,5
551 553 m 1,18,-1
 439 553 l 1,19,-1
 439 371 l 1,20,-1
 218 371 l 2,21,22
 175 371 175 371 150 338 c 128,-1,23
 125 305 125 305 125 260 c 0,24,25
 125 179 125 179 192 121 c 1,26,27
 240 82 240 82 295 68 c 1,28,29
 270 104 270 104 268 154 c 1,30,31
 268 216 268 216 312 252 c 1,32,33
 341 274 341 274 385 274 c 2,34,-1
 388 274 l 1,35,-1
 391 274 l 1,36,-1
 393 274 l 2,37,38
 437 274 437 274 474 239 c 1,39,40
 514 198 514 198 514 146 c 2,41,-1
 514 141 l 1,42,-1
 514 137 l 2,43,44
 514 135 514 135 514 133 c 0,45,46
 514 71 514 71 456 31 c 0,47,48
 404 -6 404 -6 326 -6 c 0,49,50
 220 -6 220 -6 134 72 c 0,51,52
 50 149 50 149 50 258 c 0,53,54
 50 329 50 329 94 385 c 1,55,56
 139 446 139 446 208 446 c 2,57,-1
 364 446 l 1,58,-1
 364 553 l 1,59,-1
 0 553 l 1,60,-1
 0 628 l 1,61,-1
 551 628 l 1,62,-1
 551 553 l 1,18,-1
EndSplineSet
Validated: 1
Ligature2: "'nukt' Nukta Forms in Devanagari lookup 1 subtable" LetterDDHA SignNukta
EndChar

StartChar: LetterFA
Encoding: 444 2398 188
Width: 751
GlyphClass: 3
Flags: W
AnchorPoint: "Anchor-1" 416 628 basechar 0
AnchorPoint: "Anchor-0" 372 -8 basechar 0
LayerCount: 2
Fore
SplineSet
226 12 m 1,0,-1
 188 78 l 1,1,-1
 249 113 l 1,2,-1
 287 47 l 1,3,-1
 226 12 l 1,0,-1
342 295 m 1,4,-1
 342 553 l 1,5,-1
 118 553 l 1,6,-1
 118 330 l 2,7,8
 118 290 118 290 152 266 c 0,9,10
 182 246 182 246 224 246 c 0,11,12
 286 246 286 246 342 295 c 1,4,-1
751 553 m 1,13,-1
 416 553 l 1,14,-1
 416 362 l 1,15,16
 485 427 485 427 536 427 c 2,17,-1
 544 427 l 2,18,19
 548 427 548 427 551 427 c 0,20,21
 609 427 609 427 654 382 c 0,22,23
 700 337 700 337 702 268 c 1,24,25
 702 210 702 210 641 120 c 1,26,27
 619 91 619 91 577 46 c 1,28,-1
 506 95 l 1,29,30
 537 111 537 111 574 157 c 0,31,32
 626 221 626 221 626 272 c 2,33,-1
 626 277 l 2,34,35
 626 279 626 279 626 281 c 0,36,37
 626 307 626 307 602 329 c 0,38,39
 576 353 576 353 545 353 c 0,40,41
 522 353 522 353 491 329 c 1,42,43
 473 317 473 317 416 264 c 1,44,-1
 416 -8 l 1,45,-1
 342 -8 l 1,46,-1
 342 206 l 1,47,48
 292 170 292 170 228 170 c 0,49,50
 157 170 157 170 102 211 c 0,51,52
 43 256 43 256 43 326 c 2,53,-1
 43 553 l 1,54,-1
 0 553 l 1,55,-1
 0 628 l 1,56,-1
 751 628 l 1,57,-1
 751 553 l 1,13,-1
EndSplineSet
Validated: 1
Ligature2: "'nukt' Nukta Forms in Devanagari lookup 1 subtable" LetterPHA SignNukta
EndChar

StartChar: LetterYYA
Encoding: 445 2399 189
Width: 569
GlyphClass: 3
Flags: W
LayerCount: 2
Fore
SplineSet
246 -16 m 1,0,-1
 208 50 l 1,1,-1
 269 85 l 1,2,-1
 307 19 l 1,3,-1
 246 -16 l 1,0,-1
420 318 m 1,4,-1
 420 553 l 1,5,-1
 224 553 l 1,6,7
 266 508 266 508 266 456 c 128,-1,8
 266 404 266 404 232 360 c 0,9,10
 197 314 197 314 145 313 c 1,11,12
 173 236 173 236 268 236 c 2,13,-1
 271 236 l 2,14,15
 331 236 331 236 383 280 c 0,16,17
 394 288 394 288 420 318 c 1,4,-1
569 553 m 1,18,-1
 496 553 l 1,19,-1
 496 -8 l 1,20,-1
 420 -8 l 1,21,-1
 420 215 l 1,22,23
 358 161 358 161 274 161 c 0,24,25
 176 161 176 161 110 224 c 1,26,27
 46 287 46 287 43 386 c 1,28,29
 47 386 47 386 65 380 c 1,30,-1
 94 376 l 1,31,32
 133 376 133 376 162 397 c 1,33,34
 190 419 190 419 192 458 c 1,35,36
 192 498 192 498 160 530 c 1,37,38
 154 539 154 539 134 553 c 1,39,-1
 0 553 l 1,40,-1
 0 628 l 1,41,-1
 569 628 l 1,42,-1
 569 553 l 1,18,-1
EndSplineSet
Validated: 1
Ligature2: "'nukt' Nukta Forms in Devanagari lookup 1 subtable" LetterYA SignNukta
EndChar

StartChar: LetterVocalicRR
Encoding: 446 2400 190
Width: 922
GlyphClass: 3
Flags: W
LayerCount: 2
Fore
SplineSet
747 8 m 0,0,1
 692 7 692 7 692 -52 c 0,2,3
 692 -83 692 -83 726 -102 c 0,4,5
 754 -118 754 -118 790 -118 c 0,6,7
 824 -118 824 -118 851 -106 c 1,8,-1
 881 -88 l 1,9,-1
 920 -149 l 1,10,11
 880 -190 880 -190 800 -191 c 1,12,-1
 796 -191 l 2,13,14
 731 -191 731 -191 680 -157 c 0,15,16
 620 -117 620 -117 620 -8 c 1,17,-1
 651 40 l 1,18,19
 607 58 607 58 607 147 c 0,20,21
 607 151 607 151 607 154 c 0,22,23
 607 187 607 187 634 221 c 1,24,25
 660 256 660 256 702 265 c 1,26,-1
 679 307 l 1,27,-1
 533 245 l 1,28,-1
 533 6 l 1,29,-1
 460 6 l 1,30,-1
 460 218 l 1,31,-1
 182 59 l 1,32,-1
 138 118 l 1,33,-1
 401 270 l 1,34,35
 301 380 301 380 270 385 c 1,36,37
 242 385 242 385 162 346 c 0,38,39
 142 336 142 336 86 306 c 1,40,-1
 42 362 l 1,41,42
 48 373 48 373 151 415 c 0,43,44
 255 457 255 457 277 458 c 0,45,46
 278 458 278 458 279 458 c 0,47,48
 310 458 310 458 391 384 c 0,49,50
 414 363 414 363 460 316 c 1,51,-1
 460 553 l 1,52,-1
 0 553 l 1,53,-1
 0 628 l 1,54,-1
 922 628 l 1,55,-1
 922 553 l 1,56,-1
 533 553 l 1,57,-1
 533 324 l 1,58,-1
 658 378 l 1,59,-1
 658 404 l 2,60,61
 658 480 658 480 726 480 c 0,62,63
 752 480 752 480 768 455 c 1,64,65
 780 433 780 433 780 404 c 0,66,67
 780 359 780 359 750 330 c 1,68,-1
 805 229 l 1,69,70
 763 229 763 229 725 208 c 1,71,72
 682 182 682 182 680 144 c 1,73,74
 680 112 680 112 701 96 c 1,75,76
 720 79 720 79 755 78 c 0,77,78
 759 78 759 78 763 78 c 0,79,80
 791 78 791 78 804 84 c 0,81,82
 823 94 823 94 828 124 c 1,83,-1
 886 61 l 1,84,85
 834 10 834 10 747 8 c 0,0,1
EndSplineSet
Validated: 1
EndChar

StartChar: LetterVocalicLL
Encoding: 447 2401 191
Width: 640
GlyphClass: 3
Flags: W
LayerCount: 2
Fore
SplineSet
404 141 m 1,0,1
 445 158 445 158 491 218 c 0,2,3
 543 285 543 285 543 324 c 0,4,5
 543 383 543 383 430 383 c 0,6,7
 429 383 429 383 428 383 c 0,8,9
 402 383 402 383 376 360 c 0,10,11
 349 336 349 336 349 304 c 2,12,-1
 349 234 l 1,13,-1
 276 234 l 1,14,-1
 276 318 l 2,15,16
 276 346 276 346 253 364 c 128,-1,17
 230 382 230 382 203 383 c 0,18,19
 202 383 202 383 200 383 c 0,20,21
 160 383 160 383 138 355 c 1,22,23
 115 328 115 328 115 284 c 0,24,25
 115 208 115 208 186 134 c 1,26,27
 238 82 238 82 269 72 c 1,28,-1
 224 8 l 1,29,30
 164 32 164 32 97 128 c 0,31,32
 43 206 43 206 42 290 c 1,33,-1
 42 293 l 2,34,35
 42 357 42 357 85 406 c 0,36,37
 130 456 130 456 194 456 c 0,38,39
 275 456 275 456 319 400 c 1,40,41
 342 451 342 451 418 456 c 1,42,-1
 418 553 l 1,43,-1
 0 553 l 1,44,-1
 0 628 l 1,45,-1
 641 628 l 1,46,-1
 641 553 l 1,47,-1
 491 553 l 1,48,-1
 491 452 l 1,49,50
 603 426 603 426 605 302 c 1,51,-1
 605 300 l 2,52,53
 605 271 605 271 558 195 c 0,54,55
 542 169 542 169 499 130 c 1,56,57
 499 130 499 130 454 100 c 1,58,-1
 452 83 l 1,59,60
 452 62 452 62 475 46 c 1,61,62
 494 29 494 29 529 28 c 0,63,64
 533 28 533 28 537 28 c 0,65,66
 565 28 565 28 578 34 c 0,67,68
 597 44 597 44 602 74 c 1,69,-1
 660 11 l 1,70,71
 608 -41 608 -41 521 -42 c 0,72,73
 466 -43 466 -43 466 -102 c 0,74,75
 466 -133 466 -133 500 -152 c 0,76,77
 528 -168 528 -168 564 -168 c 0,78,79
 598 -168 598 -168 625 -156 c 1,80,-1
 655 -138 l 1,81,-1
 694 -199 l 1,82,83
 654 -240 654 -240 574 -241 c 1,84,-1
 570 -241 l 2,85,86
 505 -241 505 -241 454 -207 c 0,87,88
 394 -167 394 -167 394 -58 c 1,89,-1
 425 -10 l 1,90,91
 386 -3 386 -3 378 97 c 1,92,-1
 404 141 l 1,0,1
EndSplineSet
Validated: 1
EndChar

StartChar: LetterHalfVocalicL
Encoding: 448 2402 192
Width: 0
GlyphClass: 4
Flags: W
AnchorPoint: "Anchor-0" -119 4 mark 0
LayerCount: 2
Fore
SplineSet
-113 -267 m 1,0,1
 -134 -285 -134 -285 -136 -314 c 1,2,3
 -135 -332 -135 -332 -111 -352 c 1,4,5
 -90 -364 -90 -364 -63 -364 c 0,6,7
 -37 -364 -37 -364 -17 -356 c 1,8,-1
 5 -342 l 1,9,-1
 35 -388 l 1,10,11
 3 -419 3 -419 -49 -419 c 2,12,-1
 -73 -419 l 1,13,14
 -93 -418 -93 -418 -145 -394 c 0,15,16
 -191 -373 -191 -373 -191 -316 c 0,17,18
 -191 -273 -191 -273 -157 -236 c 1,19,-1
 -95 -180 l 1,20,21
 -65 -141 -65 -141 -65 -106 c 0,22,23
 -65 -56 -65 -56 -141 -56 c 0,24,25
 -162 -56 -162 -56 -182 -74 c 128,-1,26
 -202 -92 -202 -92 -202 -116 c 2,27,-1
 -202 -168 l 1,28,-1
 -257 -168 l 1,29,-1
 -257 -105 l 2,30,31
 -257 -84 -257 -84 -274 -70.5 c 128,-1,32
 -291 -57 -291 -57 -311 -56 c 1,33,34
 -341 -56 -341 -56 -360 -77 c 1,35,36
 -377 -98 -377 -98 -377 -130 c 0,37,38
 -377 -188 -377 -188 -324 -243 c 1,39,40
 -285 -282 -285 -282 -262 -290 c 1,41,-1
 -295 -338 l 1,42,43
 -340 -320 -340 -320 -391 -248 c 0,44,45
 -431 -191 -431 -191 -432 -123 c 1,46,-1
 -427 -85 l 1,47,48
 -419 -67 -419 -67 -413 -59 c 0,49,50
 -370 -2 -370 -2 -318 -2 c 0,51,52
 -257 -2 -257 -2 -224 -44 c 1,53,54
 -205 -8 -205 -8 -150 0 c 1,55,-1
 -95 0 l 1,56,57
 -10 -19 -10 -19 -10 -117 c 2,58,-1
 -10 -119 l 2,59,60
 -10 -166 -10 -166 -51 -214 c 0,61,62
 -80 -248 -80 -248 -113 -267 c 1,0,1
EndSplineSet
Validated: 1
EndChar

StartChar: LetterHalfVocalicLL
Encoding: 449 2403 193
Width: 0
GlyphClass: 4
Flags: W
AnchorPoint: "Anchor-0" -143 0 mark 0
LayerCount: 2
Fore
SplineSet
-185 -313 m 0,0,1
 -185 -281 -185 -281 -154 -243 c 1,2,-1
 -97 -196 l 1,3,4
 -58 -157 -58 -157 -58 -110 c 0,5,6
 -58 -109 -58 -109 -58 -108 c 0,7,8
 -58 -60 -58 -60 -134 -60 c 0,9,10
 -155 -60 -155 -60 -175 -78 c 128,-1,11
 -195 -96 -195 -96 -195 -120 c 2,12,-1
 -195 -172 l 1,13,-1
 -250 -172 l 1,14,-1
 -250 -109 l 2,15,16
 -250 -88 -250 -88 -267 -74.5 c 128,-1,17
 -284 -61 -284 -61 -304 -60 c 1,18,19
 -334 -60 -334 -60 -353 -81 c 1,20,21
 -370 -102 -370 -102 -370 -134 c 0,22,23
 -370 -192 -370 -192 -317 -247 c 1,24,25
 -278 -286 -278 -286 -255 -294 c 1,26,-1
 -288 -342 l 1,27,28
 -336 -323 -336 -323 -384 -252 c 0,29,30
 -425 -192 -425 -192 -425 -130 c 2,31,-1
 -425 -127 l 1,32,-1
 -425 -124 l 2,33,34
 -425 -79 -425 -79 -393 -43 c 0,35,36
 -360 -6 -360 -6 -311 -6 c 0,37,38
 -250 -6 -250 -6 -217 -48 c 1,39,40
 -198 -9 -198 -9 -143 -1 c 1,41,-1
 -88 -4 l 1,42,43
 -3 -23 -3 -23 -3 -121 c 2,44,-1
 -3 -123 l 1,45,-1
 -3 -125 l 2,46,47
 -3 -169 -3 -169 -44 -218 c 0,48,49
 -72 -251 -72 -251 -106 -271 c 0,50,51
 -124 -281 -124 -281 -129 -318 c 1,52,53
 -128 -336 -128 -336 -104 -356 c 1,54,55
 -83 -368 -83 -368 -56 -368 c 0,56,57
 -30 -368 -30 -368 -10 -360 c 1,58,-1
 12 -346 l 1,59,-1
 42 -392 l 1,60,61
 9 -423 9 -423 -59 -424 c 0,62,63
 -110 -425 -110 -425 -110 -465 c 2,64,-1
 -110 -467 l 2,65,66
 -110 -468 -110 -468 -110 -469 c 128,-1,67
 -110 -470 -110 -470 -110 -471 c 0,68,69
 -110 -492 -110 -492 -84 -504 c 1,70,71
 -64 -516 -64 -516 -37 -516 c 128,-1,72
 -10 -516 -10 -516 8 -506 c 2,73,-1
 31 -493 l 1,74,-1
 61 -540 l 1,75,76
 29 -571 29 -571 -29 -571 c 2,77,-1
 -33 -571 l 2,78,79
 -35 -571 -35 -571 -36 -571 c 0,80,81
 -38 -571 -38 -571 -39 -571 c 0,82,83
 -79 -571 -79 -571 -119 -546 c 0,84,85
 -161 -519 -161 -519 -168 -473 c 0,86,87
 -169 -466 -169 -466 -169 -460 c 0,88,89
 -168 -425 -168 -425 -147 -406 c 1,90,91
 -185 -354 -185 -354 -185 -313 c 0,0,1
EndSplineSet
Validated: 1
EndChar

StartChar: SinglePoornaViraam
Encoding: 450 2404 194
Width: 449
GlyphClass: 2
Flags: W
LayerCount: 2
Fore
SplineSet
449 585 m 1,0,-1
 449 -98 l 1,1,-1
 380 -28 l 1,2,-1
 380 655 l 1,3,-1
 449 585 l 1,0,-1
EndSplineSet
Validated: 1
EndChar

StartChar: DoublePoornaViraam
Encoding: 451 2405 195
Width: 530
GlyphClass: 2
Flags: W
LayerCount: 2
Fore
SplineSet
530 601 m 1,0,-1
 530 -82 l 1,1,-1
 460 -12 l 1,2,-1
 460 671 l 1,3,-1
 530 601 l 1,0,-1
313 601 m 1,4,-1
 313 -82 l 1,5,-1
 244 -12 l 1,6,-1
 244 671 l 1,7,-1
 313 601 l 1,4,-1
EndSplineSet
Validated: 1
EndChar

StartChar: DigitZero
Encoding: 452 2406 196
Width: 496
GlyphClass: 2
Flags: W
LayerCount: 2
Fore
SplineSet
421 305 m 2,0,-1
 421 308 l 2,1,2
 421 359 421 359 383 396 c 1,3,4
 342 434 342 434 293 434 c 0,5,6
 289 434 289 434 285 434 c 0,7,8
 231 434 231 434 200 398 c 0,9,10
 167 361 167 361 167 301 c 0,11,12
 167 246 167 246 202 208 c 0,13,14
 238 169 238 169 293 169 c 128,-1,15
 348 169 348 169 384 210 c 0,16,17
 421 251 421 251 421 305 c 2,0,-1
496 302 m 0,18,19
 496 217 496 217 437 156 c 0,20,21
 379 97 379 97 293 95 c 1,22,-1
 290 95 l 2,23,24
 205 95 205 95 149 156 c 1,25,26
 92 216 92 216 92 302 c 0,27,28
 92 305 92 305 92 308 c 0,29,30
 92 394 92 394 148 450 c 1,31,32
 203 508 203 508 293 510 c 0,33,34
 296 510 296 510 298 510 c 0,35,36
 378 510 378 510 436 449 c 0,37,38
 496 385 496 385 496 302 c 0,18,19
EndSplineSet
Validated: 1
EndChar

StartChar: DigitOne
Encoding: 453 2407 197
Width: 458
GlyphClass: 2
Flags: W
LayerCount: 2
Fore
SplineSet
284 368 m 0,0,1
 383 368 383 368 383 462 c 0,2,3
 383 498 383 498 352 526 c 1,4,5
 318 553 318 553 284 553 c 0,6,7
 252 553 252 553 222 523 c 128,-1,8
 192 493 192 493 192 461 c 2,9,-1
 192 455 l 2,10,11
 192 420 192 420 217 394 c 128,-1,12
 242 368 242 368 284 368 c 0,0,1
458 4 m 1,13,-1
 383 4 l 1,14,-1
 383 323 l 1,15,16
 346 294 346 294 289 294 c 0,17,18
 214 294 214 294 167 340 c 1,19,20
 116 384 116 384 116 457 c 0,21,22
 116 526 116 526 167 575 c 1,23,24
 217 628 217 628 284 628 c 2,25,-1
 287 628 l 2,26,27
 362 628 362 628 410 573.5 c 128,-1,28
 458 519 458 519 458 438 c 2,29,-1
 458 4 l 1,13,-1
EndSplineSet
Validated: 1
EndChar

StartChar: DigitTwo
Encoding: 454 2408 198
Width: 511
GlyphClass: 2
Flags: W
LayerCount: 2
Fore
SplineSet
510 425 m 0,0,1
 510 421 510 421 510 419 c 0,2,3
 510 322 510 322 442 250 c 0,4,5
 400 206 400 206 343 184 c 1,6,-1
 473 -26 l 1,7,-1
 412 -70 l 1,8,-1
 269 158 l 1,9,-1
 254 154 l 1,10,11
 238 154 238 154 232 152 c 1,12,13
 193 152 193 152 162 169 c 1,14,15
 127 191 127 191 125 227 c 1,16,17
 125 281 125 281 192 284 c 1,18,19
 253 284 253 284 301 236 c 1,20,21
 335 246 335 246 376 290 c 0,22,23
 434 352 434 352 437 425 c 1,24,25
 437 484 437 484 395 517 c 1,26,27
 354 551 354 551 293 553 c 1,28,29
 252 553 252 553 196 529 c 1,30,31
 179 523 179 523 142 505 c 1,32,-1
 90 560 l 1,33,34
 116 583 116 583 187 608 c 0,35,36
 245 628 245 628 290 628 c 2,37,-1
 293 628 l 2,38,39
 378 628 378 628 444 571 c 1,40,41
 509 512 509 512 510 425 c 0,0,1
EndSplineSet
Validated: 1
EndChar

StartChar: DigitThree
Encoding: 455 2409 199
Width: 498
GlyphClass: 2
Flags: W
LayerCount: 2
Fore
SplineSet
200 325 m 1,0,-1
 155 401 l 1,1,-1
 264 401 l 2,2,3
 379 401 379 401 379 480 c 0,4,5
 379 550 379 550 274 553 c 1,6,7
 238 553 238 553 191 539 c 1,8,9
 150 524 150 524 148 508 c 1,10,-1
 102 576 l 1,11,-1
 166 602 l 1,12,13
 235 628 235 628 281 628 c 0,14,15
 353 628 353 628 402 593 c 1,16,17
 455 551 455 551 455 482 c 0,18,19
 455 432 455 432 431 398 c 1,20,21
 419 378 419 378 389 362 c 1,22,23
 436 344 436 344 467 304 c 1,24,25
 497 262 497 262 498 212 c 1,26,27
 498 143 498 143 456 96 c 0,28,29
 412 48 412 48 344 36 c 1,30,-1
 426 -83 l 1,31,-1
 370 -132 l 1,32,-1
 256 31 l 1,33,34
 138 46 138 46 138 110 c 0,35,36
 138 112 138 112 138 114 c 0,37,38
 138 173 138 173 193 174 c 0,39,40
 194 174 194 174 195 174 c 0,41,42
 221 174 221 174 254 154 c 1,43,44
 288 132 288 132 306 100 c 1,45,46
 350 100 350 100 385 133 c 0,47,48
 422 168 422 168 422 210 c 0,49,50
 422 212 422 212 422 213 c 0,51,52
 422 259 422 259 367 294 c 0,53,54
 318 325 318 325 266 325 c 2,55,-1
 200 325 l 1,0,-1
EndSplineSet
Validated: 1
EndChar

StartChar: DigitFour
Encoding: 456 2410 200
Width: 522
GlyphClass: 2
Flags: W
LayerCount: 2
Fore
SplineSet
397 156 m 0,0,1
 397 214 397 214 307 272 c 1,2,3
 278 252 278 252 242 211 c 1,4,5
 212 180 212 180 212 156 c 0,6,7
 212 79 212 79 302 79 c 0,8,9
 397 79 397 79 397 156 c 0,0,1
522 509 m 2,10,-1
 522 507 l 2,11,12
 522 453 522 453 455 386 c 1,13,14
 421 354 421 354 362 314 c 1,15,16
 401 283 401 283 424 257 c 0,17,18
 472 202 472 202 472 151 c 0,19,20
 472 82 472 82 420 42 c 0,21,22
 372 4 372 4 302 4 c 0,23,24
 234 4 234 4 186 44 c 0,25,26
 138 85 138 85 138 154 c 0,27,28
 138 202 138 202 181 256 c 0,29,30
 204 284 204 284 242 316 c 1,31,32
 146 384 146 384 121 412 c 1,33,34
 80 462 80 462 80 511 c 2,35,-1
 80 513 l 2,36,37
 80 551 80 551 112 590 c 1,38,39
 137 617 137 617 150 624 c 1,40,-1
 214 587 l 1,41,42
 198 583 198 583 176 551 c 1,43,44
 166 533 166 533 166 509 c 0,45,46
 166 508 166 508 166 506 c 0,47,48
 166 467 166 467 224 418 c 1,49,50
 275 377 275 377 302 362 c 1,51,52
 347 391 347 391 378 418 c 1,53,54
 446 473 446 473 448 509 c 0,55,56
 448 522 448 522 432 548 c 1,57,58
 412 576 412 576 397 599 c 1,59,-1
 467 628 l 1,60,61
 482 610 482 610 494 590 c 0,62,63
 522 542 522 542 522 509 c 2,10,-1
EndSplineSet
Validated: 1
EndChar

StartChar: DigitFive
Encoding: 457 2411 201
Width: 548
GlyphClass: 2
Flags: W
LayerCount: 2
Fore
SplineSet
548 -4 m 1,0,-1
 469 -4 l 1,1,-1
 391 246 l 1,2,3
 379 238 379 238 364 229 c 1,4,5
 324 214 324 214 296 214 c 0,6,7
 293 214 293 214 291 214 c 0,8,9
 207 214 207 214 154 275 c 1,10,11
 107 332 107 332 104 426 c 0,12,13
 104 428 104 428 104 430 c 0,14,15
 104 485 104 485 134 564 c 0,16,17
 146 596 146 596 164 629 c 1,18,-1
 233 594 l 1,19,20
 210 574 210 574 194 514 c 0,21,22
 180 460 180 460 180 424 c 0,23,24
 180 365 180 365 209 329 c 0,25,26
 241 289 241 289 298 289 c 0,27,28
 304 289 304 289 309 289 c 0,29,30
 328 289 328 289 341 294 c 0,31,32
 356 301 356 301 364 308 c 1,33,34
 358 318 358 318 350 349 c 1,35,36
 344 385 344 385 344 396 c 0,37,38
 344 493 344 493 403 494 c 0,39,40
 437 494 437 494 457 467 c 1,41,42
 481 437 481 437 481 403 c 0,43,44
 481 396 481 396 481 389 c 0,45,46
 481 329 481 329 458 286 c 1,47,-1
 548 -4 l 1,0,-1
EndSplineSet
Validated: 1
EndChar

StartChar: DigitSix
Encoding: 458 2412 202
Width: 496
GlyphClass: 2
Flags: W
LayerCount: 2
Fore
SplineSet
311 308 m 2,0,1
 266 308 266 308 233 272 c 1,2,3
 200 238 200 238 198 192 c 0,4,5
 198 191 198 191 198 189 c 0,6,7
 198 159 198 159 220 134 c 0,8,9
 241 109 241 109 275 100 c 0,10,11
 290 95 290 95 312 95 c 0,12,13
 340 95 340 95 352 104 c 1,14,15
 352 108 352 108 349 134 c 1,16,17
 349 222 349 222 415 222 c 0,18,19
 475 222 475 222 476 150 c 0,20,21
 476 145 476 145 476 141 c 0,22,23
 476 115 476 115 466 96 c 1,24,25
 449 71 449 71 438 60 c 1,26,-1
 496 -71 l 1,27,-1
 427 -106 l 1,28,-1
 370 28 l 1,29,30
 359 28 359 28 343 23 c 1,31,32
 325 19 325 19 317 19 c 0,33,34
 236 19 236 19 180 68 c 1,35,36
 125 118 125 118 122 194 c 1,37,38
 122 293 122 293 210 343 c 1,39,40
 106 397 106 397 104 490 c 0,41,42
 104 492 104 492 104 494 c 0,43,44
 104 552 104 552 156 592 c 1,45,46
 208 628 208 628 269 628 c 0,47,48
 273 628 273 628 278 628 c 0,49,50
 343 628 343 628 377 614 c 1,51,-1
 394 544 l 1,52,53
 352 553 352 553 280 553 c 0,54,55
 246 553 246 553 215 536 c 0,56,57
 180 518 180 518 180 484 c 0,58,59
 180 483 180 483 180 481 c 0,60,61
 180 450 180 450 226 416 c 0,62,63
 272 383 272 383 305 383 c 2,64,-1
 379 383 l 1,65,-1
 403 308 l 1,66,-1
 311 308 l 2,0,1
EndSplineSet
Validated: 1
EndChar

StartChar: DigitSeven
Encoding: 459 2413 203
Width: 523
GlyphClass: 2
Flags: W
LayerCount: 2
Fore
SplineSet
448 372 m 1,0,1
 448 427 448 427 439 457 c 0,2,3
 424 502 424 502 376 503 c 1,4,5
 322 503 322 503 318 408 c 1,6,7
 318 355 318 355 350 319 c 1,8,9
 384 283 384 283 438 275 c 1,10,-1
 438 277 l 1,11,-1
 445 348 l 1,12,-1
 448 372 l 1,0,1
522 370 m 0,13,14
 522 364 522 364 522 358 c 0,15,16
 522 8 522 8 286 6 c 0,17,18
 285 6 285 6 284 6 c 0,19,20
 107 6 107 6 49 313 c 0,21,22
 30 416 30 416 30 533 c 0,23,24
 30 565 30 565 31 576 c 1,25,26
 31 598 31 598 35 618 c 1,27,-1
 104 618 l 1,28,-1
 104 586 l 2,29,30
 104 409 104 409 131 292 c 1,31,32
 174 82 174 82 287 82 c 0,33,34
 401 82 401 82 424 210 c 1,35,36
 346 210 346 210 295 269 c 1,37,38
 246 329 246 329 246 408 c 0,39,40
 246 473 246 473 278 521 c 1,41,42
 317 577 317 577 378 577 c 0,43,44
 452 577 452 577 492 508 c 1,45,46
 522 452 522 452 522 370 c 0,13,14
EndSplineSet
Validated: 1
EndChar

StartChar: DigitEight
Encoding: 460 2414 204
Width: 469
GlyphClass: 2
Flags: W
LayerCount: 2
Fore
SplineSet
469 182 m 1,0,1
 451 8 451 8 298 6 c 0,2,3
 294 6 294 6 291 6 c 0,4,5
 224 6 224 6 180 42 c 1,6,7
 133 78 133 78 133 150 c 0,8,9
 133 190 133 190 149 239 c 2,10,-1
 275 626 l 1,11,-1
 354 626 l 1,12,-1
 221 222 l 2,13,14
 206 178 206 178 206 151 c 0,15,16
 206 82 206 82 298 82 c 0,17,18
 301 82 301 82 303 82 c 0,19,20
 394 82 394 82 394 182 c 1,21,-1
 469 182 l 1,0,1
EndSplineSet
Validated: 1
EndChar

StartChar: DigitNine
Encoding: 461 2415 205
Width: 469
GlyphClass: 2
Flags: W
LayerCount: 2
Fore
SplineSet
395 467 m 1,0,1
 395 506 395 506 370 529 c 1,2,3
 342 553 342 553 304 553 c 0,4,5
 208 553 208 553 208 462 c 0,6,7
 208 415 208 415 235 398 c 0,8,9
 254 385 254 385 305 383 c 1,10,11
 343 383 343 383 367 406 c 0,12,13
 392 430 392 430 395 467 c 1,0,1
469 473 m 0,14,15
 469 398 469 398 415 349 c 1,16,17
 360 302 360 302 283 301 c 1,18,-1
 440 31 l 1,19,20
 452 6 452 6 454 -16 c 0,21,22
 454 -17 454 -17 454 -18 c 0,23,24
 454 -47 454 -47 430 -70 c 0,25,26
 406 -94 406 -94 374 -94 c 0,27,28
 353 -94 353 -94 346 -79 c 1,29,30
 338 -67 338 -67 361 -56 c 1,31,32
 383 -47 383 -47 385 -32 c 1,33,34
 385 -22 385 -22 376 -6 c 2,35,-1
 149 388 l 2,36,37
 143 398 143 398 140 412 c 0,38,39
 132 445 132 445 132 469 c 0,40,41
 132 473 132 473 132 477 c 0,42,43
 132 564 132 564 217 612 c 0,44,45
 246 628 246 628 288 628 c 0,46,47
 290 628 290 628 292 628 c 0,48,49
 336 628 336 628 379 607 c 0,50,51
 426 584 426 584 446 548 c 1,52,53
 469 511 469 511 469 473 c 0,14,15
EndSplineSet
Validated: 1
EndChar

StartChar: DevAbbreviationSign
Encoding: 462 2416 206
Width: 304
GlyphClass: 2
Flags: W
LayerCount: 2
Fore
SplineSet
191 112 m 0,0,1
 236 112 236 112 254 128 c 0,2,3
 277 148 277 148 277 191 c 0,4,5
 277 218 277 218 262 235 c 1,6,7
 244 253 244 253 218 253 c 0,8,9
 179 253 179 253 166 245 c 2,10,-1
 156 238 l 1,11,12
 134 216 134 216 134 170 c 0,13,14
 134 148 134 148 151 128 c 1,15,16
 168 112 168 112 191 112 c 0,0,1
179 283 m 1,17,18
 227 283 227 283 259 254 c 1,19,-1
 268 248 l 1,20,21
 304 215 304 215 304 163 c 0,22,23
 304 142 304 142 293 126 c 1,24,25
 255 88 255 88 236 84 c 1,26,-1
 226 84 l 2,27,28
 182 84 182 84 155 103 c 1,29,-1
 142 116 l 2,30,31
 109 150 109 150 109 204 c 0,32,33
 109 230 109 230 127 254 c 1,34,35
 128 257 128 257 130 258 c 0,36,37
 148 281 148 281 169 282 c 1,38,-1
 179 283 l 1,17,18
EndSplineSet
Validated: 1
EndChar

StartChar: uni0971
Encoding: 463 2417 207
Width: 0
GlyphClass: 3
Flags: W
LayerCount: 2
Fore
SplineSet
-322 639 m 1,0,-1
 -360 705 l 1,1,-1
 -299 740 l 1,2,-1
 -261 674 l 1,3,-1
 -322 639 l 1,0,-1
EndSplineSet
Validated: 1
EndChar

StartChar: uni0972
Encoding: 464 2418 208
Width: 736
GlyphClass: 3
Flags: W
LayerCount: 2
Fore
SplineSet
734 553 m 1,0,-1
 646 553 l 1,1,-1
 646 -1 l 1,2,-1
 570 -1 l 1,3,-1
 570 268 l 1,4,5
 566 266 566 266 536 260 c 0,6,7
 522 257 522 257 503 257 c 0,8,9
 473 257 473 257 454 269 c 1,10,11
 461 247 461 247 461 216 c 0,12,13
 461 60 461 60 301 59 c 1,14,-1
 299 59 l 2,15,16
 205 59 205 59 110 169 c 0,17,18
 34 257 34 257 31 299 c 1,19,-1
 91 335 l 1,20,21
 132 264 132 264 155 235 c 0,22,23
 234 136 234 136 301 134 c 0,24,25
 303 134 303 134 305 134 c 0,26,27
 386 134 386 134 386 216 c 0,28,29
 386 269 386 269 354 299 c 0,30,31
 322 328 322 328 274 328 c 0,32,33
 229 328 229 328 211 318 c 1,34,-1
 186 380 l 1,35,36
 202 380 202 380 210 379 c 1,37,38
 264 379 264 379 298 406 c 0,39,40
 333 434 333 434 334 482 c 1,41,-1
 334 484 l 2,42,43
 334 553 334 553 260 553 c 0,44,45
 206 553 206 553 161 511 c 0,46,47
 145 496 145 496 133 478 c 1,48,-1
 73 523 l 1,49,50
 73 536 73 536 127 577 c 0,51,52
 193 627 193 627 263 628 c 1,53,-1
 266 628 l 2,54,55
 324 628 324 628 366 586 c 128,-1,56
 408 544 408 544 408 481 c 0,57,58
 408 415 408 415 349 372 c 1,59,60
 357 370 357 370 385 359 c 2,61,-1
 402 352 l 1,62,-1
 442 335 l 2,63,64
 458 328 458 328 491 328 c 0,65,66
 498 328 498 328 544 338 c 0,67,68
 557 341 557 341 570 346 c 1,69,-1
 570 553 l 1,70,-1
 464 553 l 1,71,-1
 464 628 l 1,72,-1
 734 628 l 1,73,-1
 734 553 l 1,0,-1
792 826 m 1,74,75
 792 748 792 748 735 700 c 128,-1,76
 678 652 678 652 600 651 c 1,77,-1
 597 651 l 2,78,79
 522 651 522 651 466 700 c 1,80,81
 412 751 412 751 409 871 c 1,82,-1
 482 871 l 1,83,84
 482 827 482 827 518 775.5 c 128,-1,85
 554 724 554 724 600 724 c 0,86,87
 651 724 651 724 684 751 c 0,88,89
 716 777 716 777 717 826 c 1,90,-1
 792 826 l 1,74,75
EndSplineSet
Validated: 1
EndChar

StartChar: uni0973
Encoding: 465 2419 209
Width: 734
GlyphClass: 3
Flags: W
LayerCount: 2
Fore
SplineSet
734 553 m 1,0,-1
 646 553 l 1,1,-1
 646 -1 l 1,2,-1
 570 -1 l 1,3,-1
 570 268 l 1,4,5
 566 266 566 266 536 260 c 0,6,7
 522 257 522 257 503 257 c 0,8,9
 473 257 473 257 454 269 c 1,10,11
 461 247 461 247 461 216 c 0,12,13
 461 60 461 60 301 59 c 1,14,-1
 299 59 l 2,15,16
 205 59 205 59 110 169 c 0,17,18
 34 257 34 257 31 299 c 1,19,-1
 91 335 l 1,20,21
 132 264 132 264 155 235 c 0,22,23
 234 136 234 136 301 134 c 0,24,25
 303 134 303 134 305 134 c 0,26,27
 386 134 386 134 386 216 c 0,28,29
 386 269 386 269 354 299 c 0,30,31
 322 328 322 328 274 328 c 0,32,33
 229 328 229 328 211 318 c 1,34,-1
 186 380 l 1,35,36
 202 380 202 380 210 379 c 1,37,38
 264 379 264 379 298 406 c 0,39,40
 333 434 333 434 334 482 c 1,41,-1
 334 484 l 2,42,43
 334 553 334 553 260 553 c 0,44,45
 206 553 206 553 161 511 c 0,46,47
 145 496 145 496 133 478 c 1,48,-1
 73 523 l 1,49,50
 73 536 73 536 127 577 c 0,51,52
 193 627 193 627 263 628 c 1,53,-1
 266 628 l 2,54,55
 324 628 324 628 366 586 c 128,-1,56
 408 544 408 544 408 481 c 0,57,58
 408 415 408 415 349 372 c 1,59,60
 357 370 357 370 385 359 c 2,61,-1
 402 352 l 1,62,-1
 442 335 l 2,63,64
 458 328 458 328 491 328 c 0,65,66
 498 328 498 328 544 338 c 0,67,68
 557 341 557 341 570 346 c 1,69,-1
 570 553 l 1,70,-1
 464 553 l 1,71,-1
 464 628 l 1,72,-1
 734 628 l 1,73,-1
 734 553 l 1,0,-1
642 956 m 1,74,-1
 642 650 l 1,75,-1
 572 650 l 1,76,-1
 572 955 l 1,77,-1
 642 956 l 1,74,-1
EndSplineSet
Validated: 1
EndChar

StartChar: uni0974
Encoding: 466 2420 210
Width: 848
GlyphClass: 3
Flags: W
LayerCount: 2
Fore
SplineSet
764 956 m 1,0,-1
 764 650 l 1,1,-1
 694 650 l 1,2,-1
 694 955 l 1,3,-1
 764 956 l 1,0,-1
691 628 m 1,4,-1
 848 628 l 1,5,-1
 848 553 l 1,6,-1
 769 553 l 1,7,-1
 769 1 l 1,8,-1
 696 1 l 1,9,-1
 696 553 l 1,10,-1
 618 553 l 1,11,-1
 618 -1 l 1,12,-1
 542 -1 l 1,13,-1
 542 268 l 1,14,15
 538 268 538 268 509 260 c 1,16,17
 494 257 494 257 475 257 c 0,18,19
 445 257 445 257 426 269 c 1,20,21
 433 247 433 247 433 216 c 0,22,23
 433 60 433 60 274 59 c 1,24,-1
 272 59 l 2,25,26
 179 59 179 59 83 169 c 1,27,28
 6 259 6 259 4 299 c 1,29,-1
 64 335 l 1,30,31
 104 264 104 264 127 235 c 0,32,33
 207 134 207 134 274 134 c 0,34,35
 276 134 276 134 278 134 c 0,36,37
 359 134 359 134 359 216 c 0,38,39
 359 269 359 269 326 299 c 0,40,41
 294 328 294 328 246 328 c 0,42,43
 202 328 202 328 184 318 c 1,44,-1
 158 380 l 1,45,46
 174 380 174 380 182 379 c 1,47,48
 236 379 236 379 270 406 c 0,49,50
 305 433 305 433 306 482 c 1,51,52
 306 552 306 552 233 553 c 0,53,54
 175 553 175 553 133 511 c 0,55,56
 118 496 118 496 106 478 c 1,57,-1
 46 523 l 1,58,59
 46 538 46 538 100 577 c 1,60,61
 167 628 167 628 235 628 c 0,62,63
 238 628 238 628 240 628 c 0,64,65
 296 628 296 628 338 586 c 128,-1,66
 380 544 380 544 380 481 c 0,67,68
 380 415 380 415 322 372 c 1,69,70
 342 368 342 368 358 359 c 1,71,-1
 374 352 l 1,72,-1
 414 335 l 2,73,74
 430 328 430 328 463 328 c 0,75,76
 476 328 476 328 516 338 c 1,77,78
 522 338 522 338 542 346 c 1,79,-1
 542 553 l 1,80,-1
 437 553 l 1,81,-1
 437 628 l 1,82,-1
 691 628 l 1,4,-1
EndSplineSet
Validated: 1
EndChar

StartChar: uni0975
Encoding: 467 2421 211
Width: 959
GlyphClass: 2
Flags: W
LayerCount: 2
Fore
SplineSet
813 628 m 1,0,-1
 813 670 l 1,1,2
 798 692 798 692 768 692 c 0,3,4
 756 692 756 692 739 688 c 0,5,6
 644 665 644 665 626 660 c 0,7,8
 619 659 619 659 611 659 c 0,9,10
 573 661 573 661 549 676 c 0,11,12
 509 701 509 701 509 748 c 2,13,-1
 509 827 l 1,14,-1
 576 827 l 1,15,-1
 576 772 l 2,16,17
 576 725 576 725 617 725 c 0,18,19
 618 725 618 725 619 725 c 128,-1,20
 620 725 620 725 621 725 c 0,21,22
 637 725 637 725 702 743 c 1,23,-1
 773 758 l 1,24,25
 825 751 825 751 825 729 c 1,26,27
 827 746 827 746 827 759 c 0,28,29
 827 833 827 833 777 840 c 0,30,31
 770 841 770 841 763 841 c 0,32,33
 752 841 752 841 743 838 c 2,34,-1
 710 827 l 1,35,36
 703 826 703 826 695 826 c 0,37,38
 657 828 657 828 633 843 c 0,39,40
 593 868 593 868 593 915 c 2,41,-1
 593 994 l 1,42,-1
 660 994 l 1,43,-1
 660 939 l 2,44,45
 660 889 660 889 717 884 c 1,46,47
 739 889 739 889 753 889 c 0,48,49
 757 889 757 889 760 889 c 128,-1,50
 763 889 763 889 766 889 c 0,51,52
 813 889 813 889 853 860 c 0,53,54
 877 843 877 843 889 788 c 0,55,56
 894 766 894 766 894 742 c 0,57,58
 894 736 894 736 894 729 c 0,59,60
 893 713 893 713 893 694 c 2,61,-1
 893 628 l 1,62,-1
 959 628 l 1,63,-1
 959 553 l 1,64,-1
 880 553 l 1,65,-1
 880 1 l 1,66,-1
 807 1 l 1,67,-1
 807 553 l 1,68,-1
 615 553 l 1,69,-1
 615 -3 l 1,70,-1
 539 -3 l 1,71,-1
 539 266 l 1,72,73
 535 264 535 264 505 258 c 0,74,75
 491 255 491 255 472 255 c 0,76,77
 442 255 442 255 423 267 c 1,78,79
 430 245 430 245 430 214 c 0,80,81
 430 58 430 58 270 57 c 1,82,-1
 268 57 l 2,83,84
 174 57 174 57 79 167 c 0,85,86
 3 255 3 255 0 297 c 1,87,-1
 60 333 l 1,88,89
 101 261 101 261 124 233 c 0,90,91
 205 132 205 132 270 132 c 0,92,93
 272 132 272 132 274 132 c 128,-1,94
 276 132 276 132 278 132 c 0,95,96
 355 132 355 132 355 214 c 0,97,98
 355 267 355 267 323 297 c 0,99,100
 291 326 291 326 243 326 c 0,101,102
 198 326 198 326 180 316 c 1,103,-1
 155 378 l 1,104,105
 171 378 171 378 179 377 c 1,106,107
 233 377 233 377 267 404 c 0,108,109
 302 432 302 432 303 480 c 1,110,-1
 303 482 l 2,111,112
 303 551 303 551 229 551 c 0,113,114
 175 551 175 551 130 509 c 0,115,116
 114 494 114 494 102 476 c 1,117,-1
 42 521 l 1,118,119
 42 534 42 534 96 575 c 0,120,121
 162 625 162 625 232 626 c 1,122,-1
 235 626 l 2,123,124
 293 626 293 626 335 584 c 128,-1,125
 377 542 377 542 377 479 c 0,126,127
 377 413 377 413 318 370 c 1,128,129
 331 366 331 366 354 357 c 2,130,-1
 371 350 l 1,131,-1
 411 333 l 2,132,133
 427 326 427 326 460 326 c 0,134,135
 467 326 467 326 513 336 c 0,136,137
 526 339 526 339 539 344 c 1,138,-1
 539 553 l 1,139,-1
 433 553 l 1,140,-1
 433 628 l 1,141,-1
 813 628 l 1,0,-1
EndSplineSet
Validated: 1
EndChar

StartChar: uni0976
Encoding: 468 2422 212
Width: 734
GlyphClass: 2
Flags: W
LayerCount: 2
Fore
SplineSet
734 553 m 1,0,-1
 646 553 l 1,1,-1
 646 -1 l 1,2,-1
 570 -1 l 1,3,-1
 570 268 l 1,4,5
 566 266 566 266 536 260 c 0,6,7
 522 257 522 257 503 257 c 0,8,9
 473 257 473 257 454 269 c 1,10,11
 461 247 461 247 461 216 c 0,12,13
 461 60 461 60 301 59 c 1,14,-1
 299 59 l 2,15,16
 205 59 205 59 110 169 c 0,17,18
 34 257 34 257 31 299 c 1,19,-1
 91 335 l 1,20,21
 132 264 132 264 155 235 c 0,22,23
 234 136 234 136 301 134 c 0,24,25
 303 134 303 134 305 134 c 0,26,27
 386 134 386 134 386 216 c 0,28,29
 386 269 386 269 354 299 c 0,30,31
 322 328 322 328 274 328 c 0,32,33
 229 328 229 328 211 318 c 1,34,-1
 186 380 l 1,35,36
 202 380 202 380 210 379 c 1,37,38
 264 379 264 379 298 406 c 0,39,40
 333 434 333 434 334 482 c 1,41,-1
 334 484 l 2,42,43
 334 553 334 553 260 553 c 0,44,45
 206 553 206 553 161 511 c 0,46,47
 145 496 145 496 133 478 c 1,48,-1
 73 523 l 1,49,50
 73 536 73 536 127 577 c 0,51,52
 193 627 193 627 263 628 c 1,53,-1
 266 628 l 2,54,55
 324 628 324 628 366 586 c 128,-1,56
 408 544 408 544 408 481 c 0,57,58
 408 415 408 415 349 372 c 1,59,60
 357 370 357 370 385 359 c 2,61,-1
 402 352 l 1,62,-1
 442 335 l 2,63,64
 458 328 458 328 491 328 c 0,65,66
 498 328 498 328 544 338 c 0,67,68
 557 341 557 341 570 346 c 1,69,-1
 570 553 l 1,70,-1
 464 553 l 1,71,-1
 464 628 l 1,72,-1
 734 628 l 1,73,-1
 734 553 l 1,0,-1
532 -61 m 1,74,75
 520 -65 520 -65 500 -73 c 1,76,77
 461 -84 461 -84 440 -85 c 0,78,79
 436 -85 436 -85 432 -85 c 0,80,81
 397 -85 397 -85 346 -70 c 0,82,83
 275 -49 275 -49 243 -28 c 1,84,-1
 243 42 l 1,85,-1
 309 13 l 1,86,87
 371 -12 371 -12 428 -12 c 0,88,89
 463 -12 463 -12 500 0 c 0,90,91
 517 6 517 6 532 13 c 1,92,-1
 532 -61 l 1,74,75
EndSplineSet
Validated: 1
EndChar

StartChar: uni0977
Encoding: 469 2423 213
Width: 734
GlyphClass: 2
Flags: W
LayerCount: 2
Fore
SplineSet
734 553 m 1,0,-1
 646 553 l 1,1,-1
 646 -1 l 1,2,-1
 570 -1 l 1,3,-1
 570 268 l 1,4,5
 566 266 566 266 536 260 c 0,6,7
 522 257 522 257 503 257 c 0,8,9
 473 257 473 257 454 269 c 1,10,11
 461 247 461 247 461 216 c 0,12,13
 461 60 461 60 301 59 c 1,14,-1
 299 59 l 2,15,16
 205 59 205 59 110 169 c 0,17,18
 34 257 34 257 31 299 c 1,19,-1
 91 335 l 1,20,21
 132 264 132 264 155 235 c 0,22,23
 234 136 234 136 301 134 c 0,24,25
 303 134 303 134 305 134 c 0,26,27
 386 134 386 134 386 216 c 0,28,29
 386 269 386 269 354 299 c 0,30,31
 322 328 322 328 274 328 c 0,32,33
 229 328 229 328 211 318 c 1,34,-1
 186 380 l 1,35,36
 202 380 202 380 210 379 c 1,37,38
 264 379 264 379 298 406 c 0,39,40
 333 434 333 434 334 482 c 1,41,-1
 334 484 l 2,42,43
 334 553 334 553 260 553 c 0,44,45
 206 553 206 553 161 511 c 0,46,47
 145 496 145 496 133 478 c 1,48,-1
 73 523 l 1,49,50
 73 536 73 536 127 577 c 0,51,52
 193 627 193 627 263 628 c 1,53,-1
 266 628 l 2,54,55
 324 628 324 628 366 586 c 128,-1,56
 408 544 408 544 408 481 c 0,57,58
 408 415 408 415 349 372 c 1,59,60
 357 370 357 370 385 359 c 2,61,-1
 402 352 l 1,62,-1
 442 335 l 2,63,64
 458 328 458 328 491 328 c 0,65,66
 498 328 498 328 544 338 c 0,67,68
 557 341 557 341 570 346 c 1,69,-1
 570 553 l 1,70,-1
 464 553 l 1,71,-1
 464 628 l 1,72,-1
 734 628 l 1,73,-1
 734 553 l 1,0,-1
532 -61 m 1,74,75
 520 -65 520 -65 500 -73 c 1,76,77
 461 -84 461 -84 440 -85 c 0,78,79
 436 -85 436 -85 432 -85 c 0,80,81
 397 -85 397 -85 346 -70 c 0,82,83
 275 -49 275 -49 243 -28 c 1,84,-1
 243 42 l 1,85,-1
 309 13 l 1,86,87
 371 -12 371 -12 428 -12 c 0,88,89
 463 -12 463 -12 500 0 c 0,90,91
 517 6 517 6 532 13 c 1,92,-1
 532 -61 l 1,74,75
531 -162 m 1,93,94
 519 -166 519 -166 499 -174 c 1,95,96
 460 -185 460 -185 439 -186 c 0,97,98
 435 -186 435 -186 431 -186 c 0,99,100
 396 -186 396 -186 345 -171 c 0,101,102
 274 -150 274 -150 242 -129 c 1,103,-1
 242 -59 l 1,104,-1
 308 -88 l 1,105,106
 370 -113 370 -113 427 -113 c 0,107,108
 462 -113 462 -113 499 -101 c 0,109,110
 516 -95 516 -95 531 -88 c 1,111,-1
 531 -162 l 1,93,94
EndSplineSet
Validated: 1
EndChar

StartChar: uni0979
Encoding: 470 2425 214
Width: 720
GlyphClass: 2
Flags: W
LayerCount: 2
Fore
SplineSet
720 553 m 1,0,-1
 647 553 l 1,1,-1
 647 -8 l 1,2,-1
 571 -8 l 1,3,-1
 571 359 l 1,4,-1
 422 359 l 1,5,6
 458 317 458 317 458 259 c 0,7,8
 458 187 458 187 421 149 c 1,9,10
 360 83 360 83 301 83 c 0,11,12
 184 83 184 83 72 336 c 0,13,14
 43 402 43 402 43 421 c 1,15,-1
 103 464 l 1,16,17
 118 372 118 372 194 266 c 1,18,19
 256 182 256 182 319 182 c 0,20,21
 383 182 383 182 383 254 c 0,22,23
 383 256 383 256 383 258 c 0,24,25
 383 299 383 299 340 364 c 1,26,27
 326 379 326 379 295 421 c 1,28,-1
 295 433 l 1,29,-1
 571 433 l 1,30,-1
 571 553 l 1,31,-1
 0 553 l 1,32,-1
 0 628 l 1,33,-1
 720 628 l 1,34,-1
 720 553 l 1,0,-1
228 18 m 1,35,-1
 153 18 l 1,36,-1
 153 88 l 1,37,-1
 228 88 l 1,38,-1
 228 18 l 1,35,-1
483 17 m 1,39,-1
 408 17 l 1,40,-1
 408 87 l 1,41,-1
 483 87 l 1,42,-1
 483 17 l 1,39,-1
354 -51 m 1,43,-1
 279 -51 l 1,44,-1
 279 19 l 1,45,-1
 354 19 l 1,46,-1
 354 -51 l 1,43,-1
EndSplineSet
Validated: 1
EndChar

StartChar: uni097A
Encoding: 471 2426 215
Width: 569
GlyphClass: 2
Flags: W
LayerCount: 2
Fore
SplineSet
420 318 m 1,0,-1
 420 553 l 1,1,-1
 224 553 l 1,2,3
 266 508 266 508 266 456 c 0,4,5
 266 437 266 437 264 430 c 1,6,-1
 411 308 l 1,7,-1
 420 318 l 1,0,-1
569 553 m 1,8,-1
 496 553 l 1,9,-1
 496 -8 l 1,10,-1
 420 -8 l 1,11,-1
 420 215 l 1,12,13
 358 161 358 161 274 161 c 0,14,15
 176 161 176 161 110 224 c 1,16,17
 46 287 46 287 43 386 c 1,18,19
 47 386 47 386 65 380 c 1,20,-1
 94 376 l 1,21,22
 133 376 133 376 162 397 c 1,23,24
 190 419 190 419 192 458 c 1,25,26
 192 498 192 498 160 530 c 1,27,28
 154 539 154 539 134 553 c 1,29,-1
 0 553 l 1,30,-1
 0 628 l 1,31,-1
 569 628 l 1,32,-1
 569 553 l 1,8,-1
145 313 m 1,33,34
 173 236 173 236 268 236 c 2,35,-1
 271 236 l 2,36,37
 330 236 330 236 383 280 c 1,38,-1
 230 354 l 1,39,40
 205 313 205 313 145 313 c 1,33,34
EndSplineSet
Validated: 1
EndChar

StartChar: uni097B
Encoding: 472 2427 216
Width: 535
GlyphClass: 2
Flags: W
LayerCount: 2
Fore
SplineSet
0 0 m 1,0,-1
 0 72 l 1,1,-1
 388 72 l 1,2,-1
 388 553 l 1,3,-1
 218 553 l 1,4,-1
 218 271 l 2,5,6
 218 246 218 246 216 242 c 1,7,8
 211 218 211 218 187 217 c 1,9,10
 154 217 154 217 98 272 c 1,11,12
 46 328 46 328 43 362 c 0,13,14
 43 363 43 363 43 364 c 0,15,16
 43 388 43 388 84 391 c 1,17,-1
 144 391 l 1,18,-1
 144 553 l 1,19,-1
 0 553 l 1,20,-1
 0 628 l 1,21,-1
 535 628 l 1,22,-1
 535 553 l 1,23,-1
 478 553 l 1,24,-1
 478 -20 l 1,25,-1
 388 -20 l 1,26,-1
 388 0 l 1,27,-1
 0 0 l 1,0,-1
EndSplineSet
Validated: 1
EndChar

StartChar: uni097C
Encoding: 473 2428 217
Width: 720
GlyphClass: 2
Flags: W
AnchorPoint: "Anchor-1" 640 628 basechar 0
LayerCount: 2
Fore
SplineSet
647 -8 m 1,0,-1
 184 -8 l 1,1,-1
 184 70 l 1,2,-1
 571 70 l 1,3,-1
 571 359 l 1,4,-1
 422 359 l 1,5,6
 458 317 458 317 458 259 c 0,7,8
 458 187 458 187 421 149 c 1,9,10
 359 82 359 82 299 82 c 0,11,12
 182 82 182 82 72 336 c 0,13,14
 43 403 43 403 43 421 c 1,15,-1
 103 464 l 1,16,17
 118 372 118 372 194 266 c 1,18,19
 256 182 256 182 319 182 c 0,20,21
 383 182 383 182 383 254 c 0,22,23
 383 256 383 256 383 258 c 0,24,25
 383 299 383 299 340 364 c 1,26,27
 326 379 326 379 295 421 c 1,28,-1
 295 433 l 1,29,-1
 571 433 l 1,30,-1
 571 553 l 1,31,-1
 0 553 l 1,32,-1
 0 628 l 1,33,-1
 720 628 l 1,34,-1
 720 553 l 1,35,-1
 647 553 l 1,36,-1
 647 -8 l 1,0,-1
EndSplineSet
Validated: 1
EndChar

StartChar: uni097D
Encoding: 474 2429 218
Width: 531
GlyphClass: 2
Flags: W
LayerCount: 2
Fore
SplineSet
345 51 m 1,0,-1
 252 51 l 1,1,-1
 252 108 l 2,2,3
 252 160 252 160 281 199 c 0,4,5
 298 222 298 222 335 256 c 1,6,-1
 360 278 l 2,7,8
 437 346 437 346 438 415 c 1,9,10
 438 488 438 488 374 519 c 0,11,12
 343 534 343 534 305 534 c 0,13,14
 219 534 219 534 188 473 c 0,15,16
 170 438 170 438 170 371 c 1,17,-1
 82 371 l 1,18,19
 82 591 82 591 269 613 c 0,20,21
 289 615 289 615 310 615 c 0,22,23
 441 615 441 615 499 528 c 0,24,25
 531 480 531 480 531 415 c 0,26,27
 531 342 531 342 478 281 c 1,28,29
 459 257 459 257 427 229 c 1,30,31
 362 168 362 168 351 140 c 0,32,33
 345 125 345 125 345 100 c 2,34,-1
 345 51 l 1,0,-1
EndSplineSet
Validated: 1
EndChar

StartChar: uni097E
Encoding: 475 2430 219
Width: 626
GlyphClass: 2
Flags: W
AnchorPoint: "Anchor-1" 534 626 basechar 0
LayerCount: 2
Fore
SplineSet
605 -88 m 1,0,-1
 218 -88 l 1,1,-1
 218 -14 l 1,2,-1
 355 -14 l 1,3,4
 233 12 233 12 92 198 c 0,5,6
 44 261 44 261 43 272 c 1,7,-1
 95 320 l 1,8,9
 94 317 94 317 94 313 c 0,10,11
 94 276 94 276 236 148 c 0,12,13
 323 70 323 70 395 67 c 1,14,15
 510 67 510 67 511 181 c 1,16,-1
 511 186 l 2,17,18
 511 213 511 213 479 216 c 1,19,20
 464 216 464 216 410 199 c 0,21,22
 397 194 397 194 373 191 c 1,23,24
 314 191 314 191 251 266 c 1,25,26
 194 336 194 336 194 386 c 2,27,-1
 194 390 l 2,28,29
 194 414 194 414 214 434 c 0,30,31
 236 455 236 455 263 455 c 2,32,-1
 461 455 l 1,33,-1
 461 553 l 1,34,-1
 0 553 l 1,35,-1
 0 628 l 1,36,-1
 626 628 l 1,37,-1
 626 553 l 1,38,-1
 535 553 l 1,39,-1
 535 379 l 1,40,-1
 277 379 l 1,41,-1
 305 318 l 1,42,43
 349 264 349 264 376 264 c 0,44,45
 379 264 379 264 382 265 c 2,46,-1
 463 286 l 1,47,-1
 517 292 l 1,48,49
 542 292 542 292 566 250 c 1,50,51
 586 212 586 212 586 184 c 2,52,-1
 586 181 l 2,53,54
 586 94 586 94 535 44 c 1,55,56
 485 -2 485 -2 432 -14 c 1,57,-1
 605 -14 l 1,58,-1
 605 -88 l 1,0,-1
EndSplineSet
Validated: 1
EndChar

StartChar: uni097F
Encoding: 476 2431 220
Width: 504
GlyphClass: 2
Flags: W
AnchorPoint: "Anchor-1" 427 624 basechar 0
LayerCount: 2
Fore
SplineSet
294 214 m 1,0,-1
 125 335 l 1,1,2
 118 319 118 319 118 296 c 0,3,4
 118 250 118 250 146 223 c 1,5,6
 176 196 176 196 221 196 c 0,7,8
 224 196 224 196 227 196 c 0,9,10
 258 196 258 196 294 214 c 1,0,-1
355 -14 m 1,11,-1
 355 170 l 1,12,13
 323 146 323 146 318 145 c 1,14,15
 275 122 275 122 226 120 c 1,16,17
 151 120 151 120 98 168 c 0,18,19
 44 218 44 218 43 290 c 0,20,21
 43 293 43 293 43 296 c 0,22,23
 43 363 43 363 89 414 c 1,24,25
 134 466 134 466 206 467 c 0,26,27
 220 467 220 467 292 455 c 1,28,-1
 312 373 l 1,29,30
 258 390 258 390 211 392 c 1,31,32
 185 392 185 392 158 376 c 1,33,-1
 341 246 l 1,34,35
 352 252 352 252 353 256 c 1,36,-1
 355 258 l 1,37,-1
 355 553 l 1,38,-1
 0 553 l 1,39,-1
 0 628 l 1,40,-1
 504 628 l 1,41,-1
 504 553 l 1,42,-1
 430 553 l 1,43,-1
 430 -86 l 1,44,-1
 42 -86 l 1,45,-1
 42 -14 l 1,46,-1
 355 -14 l 1,11,-1
EndSplineSet
Validated: 1
EndChar

StartChar: uni2010
Encoding: 479 8208 223
Width: 482
GlyphClass: 2
Flags: W
LayerCount: 2
Fore
SplineSet
482 287 m 1,0,-1
 88 287 l 1,1,-1
 88 353 l 1,2,-1
 482 353 l 1,3,-1
 482 287 l 1,0,-1
EndSplineSet
Validated: 1
EndChar

StartChar: emdash
Encoding: 481 8212 225
Width: 522
GlyphClass: 2
Flags: W
LayerCount: 2
Fore
SplineSet
522 287 m 1,0,-1
 42 287 l 1,1,-1
 42 353 l 1,2,-1
 522 353 l 1,3,-1
 522 287 l 1,0,-1
EndSplineSet
Validated: 1
EndChar

StartChar: quoteleft
Encoding: 482 8216 226
Width: 190
GlyphClass: 2
Flags: W
LayerCount: 2
Fore
SplineSet
190 536 m 1,0,-1
 72 536 l 1,1,-1
 72 631 l 2,2,3
 72 762 72 762 190 782 c 1,4,-1
 190 738 l 1,5,6
 130 731 130 731 130 640 c 1,7,-1
 190 640 l 1,8,-1
 190 536 l 1,0,-1
EndSplineSet
Validated: 1
EndChar

StartChar: quoteright
Encoding: 483 8217 227
Width: 173
GlyphClass: 2
Flags: W
LayerCount: 2
Fore
SplineSet
80 729 m 1,0,-1
 173 729 l 1,1,-1
 173 628 l 2,2,3
 173 505 173 505 80 497 c 1,4,-1
 80 535 l 1,5,6
 128 543 128 543 128 625 c 1,7,-1
 80 625 l 1,8,-1
 80 729 l 1,0,-1
EndSplineSet
Validated: 1
EndChar

StartChar: quotesinglbase
Encoding: 484 8218 228
Width: 250
GlyphClass: 2
Flags: W
LayerCount: 2
Fore
SplineSet
80 104 m 1,0,-1
 173 104 l 1,1,-1
 173 3 l 2,2,3
 173 -120 173 -120 80 -128 c 1,4,-1
 80 -90 l 1,5,6
 128 -82 128 -82 128 0 c 1,7,-1
 80 0 l 1,8,-1
 80 104 l 1,0,-1
EndSplineSet
Validated: 1
EndChar

StartChar: quotedblleft
Encoding: 485 8220 229
Width: 497
GlyphClass: 2
Flags: W
LayerCount: 2
Fore
SplineSet
464 811 m 1,0,-1
 475 788 l 1,1,2
 422 755 422 755 396 714 c 0,3,4
 377 684 377 684 377 661 c 0,5,6
 377 644 377 644 394 644 c 1,7,-1
 404 647 l 1,8,-1
 422 649 l 1,9,10
 451 649 451 649 474 635 c 0,11,12
 497 622 497 622 497 589 c 0,13,14
 497 553 497 553 476 536 c 0,15,16
 455 520 455 520 427 520 c 0,17,18
 394 520 394 520 368 539 c 1,19,20
 330 569 330 569 330 635 c 0,21,22
 330 691 330 691 383 750 c 0,23,24
 427 799 427 799 464 811 c 1,0,-1
186 811 m 1,25,-1
 197 788 l 1,26,27
 144 755 144 755 118 714 c 0,28,29
 98 684 98 684 98 661 c 0,30,31
 98 644 98 644 115 644 c 1,32,-1
 126 647 l 1,33,-1
 144 649 l 1,34,35
 173 649 173 649 196 635 c 0,36,37
 218 622 218 622 218 589 c 0,38,39
 218 553 218 553 197 536 c 0,40,41
 176 520 176 520 149 520 c 0,42,43
 115 520 115 520 90 539 c 0,44,45
 52 569 52 569 52 635 c 0,46,47
 52 691 52 691 104 750 c 1,48,49
 149 799 149 799 186 811 c 1,25,-1
EndSplineSet
Validated: 1
EndChar

StartChar: quotedblright
Encoding: 486 8221 230
Width: 481
GlyphClass: 2
Flags: W
LayerCount: 2
Fore
SplineSet
347 520 m 1,0,-1
 336 542 l 1,1,2
 389 576 389 576 415 617 c 0,3,4
 434 647 434 647 434 670 c 0,5,6
 434 686 434 686 418 686 c 1,7,-1
 407 684 l 1,8,-1
 389 682 l 1,9,10
 360 682 360 682 341 694 c 1,11,12
 314 709 314 709 314 742 c 0,13,14
 314 778 314 778 335 794 c 0,15,16
 356 811 356 811 384 811 c 0,17,18
 418 811 418 811 443 792 c 0,19,20
 481 762 481 762 481 696 c 0,21,22
 481 640 481 640 428 581 c 0,23,24
 384 532 384 532 347 520 c 1,0,-1
68 520 m 1,25,-1
 58 542 l 1,26,27
 110 576 110 576 137 617 c 0,28,29
 156 647 156 647 156 670 c 0,30,31
 156 686 156 686 139 686 c 1,32,-1
 128 684 l 1,33,-1
 110 682 l 1,34,35
 82 682 82 682 62 694 c 0,36,37
 36 709 36 709 36 742 c 0,38,39
 36 778 36 778 57 794 c 0,40,41
 78 811 78 811 106 811 c 0,42,43
 139 811 139 811 164 792 c 0,44,45
 203 762 203 762 203 696 c 0,46,47
 203 640 203 640 150 581 c 0,48,49
 106 532 106 532 68 520 c 1,25,-1
EndSplineSet
Validated: 1
EndChar

StartChar: quotedblbase
Encoding: 487 8222 231
Width: 473
GlyphClass: 2
Flags: W
LayerCount: 2
Fore
SplineSet
339 293 m 1,0,-1
 328 315 l 1,1,2
 381 349 381 349 407 390 c 0,3,4
 426 420 426 420 426 443 c 0,5,6
 426 459 426 459 410 459 c 1,7,-1
 399 457 l 1,8,-1
 381 455 l 1,9,10
 352 455 352 455 333 467 c 1,11,12
 306 482 306 482 306 515 c 0,13,14
 306 551 306 551 327 567 c 0,15,16
 348 584 348 584 376 584 c 0,17,18
 410 584 410 584 435 565 c 0,19,20
 473 535 473 535 473 469 c 0,21,22
 473 413 473 413 420 354 c 0,23,24
 376 305 376 305 339 293 c 1,0,-1
60 293 m 1,25,-1
 50 315 l 1,26,27
 102 349 102 349 129 390 c 0,28,29
 148 420 148 420 148 443 c 0,30,31
 148 459 148 459 131 459 c 1,32,-1
 120 457 l 1,33,-1
 102 455 l 1,34,35
 74 455 74 455 54 467 c 0,36,37
 28 482 28 482 28 515 c 0,38,39
 28 551 28 551 49 567 c 0,40,41
 70 584 70 584 98 584 c 0,42,43
 131 584 131 584 156 565 c 0,44,45
 195 535 195 535 195 469 c 0,46,47
 195 413 195 413 142 354 c 0,48,49
 98 305 98 305 60 293 c 1,25,-1
EndSplineSet
Validated: 1
EndChar

StartChar: dagger
Encoding: 488 8224 232
Width: 482
GlyphClass: 2
Flags: W
LayerCount: 2
Fore
SplineSet
482 402 m 1,0,-1
 88 402 l 1,1,-1
 88 468 l 1,2,-1
 482 468 l 1,3,-1
 482 402 l 1,0,-1
235 731 m 1,4,-1
 332 731 l 1,5,-1
 332 616 l 1,6,-1
 304 477 l 1,7,-1
 263 477 l 1,8,-1
 235 616 l 1,9,-1
 235 731 l 1,4,-1
338 141 m 1,10,-1
 241 141 l 1,11,-1
 241 256 l 1,12,-1
 269 395 l 1,13,-1
 310 395 l 1,14,-1
 338 256 l 1,15,-1
 338 141 l 1,10,-1
EndSplineSet
Validated: 1
EndChar

StartChar: daggerdbl
Encoding: 489 8225 233
Width: 482
GlyphClass: 2
Flags: W
LayerCount: 2
Fore
SplineSet
322 392 m 1,0,-1
 322 330 l 1,1,-1
 252 330 l 1,2,-1
 252 392 l 1,3,-1
 322 392 l 1,0,-1
327 -4 m 1,4,-1
 230 -4 l 1,5,-1
 230 111 l 1,6,-1
 258 250 l 1,7,-1
 299 250 l 1,8,-1
 327 111 l 1,9,-1
 327 -4 l 1,4,-1
235 731 m 1,10,-1
 332 731 l 1,11,-1
 332 616 l 1,12,-1
 304 477 l 1,13,-1
 263 477 l 1,14,-1
 235 616 l 1,15,-1
 235 731 l 1,10,-1
482 256 m 1,16,-1
 88 256 l 1,17,-1
 88 322 l 1,18,-1
 260 322 l 1,19,-1
 294 322 l 1,20,-1
 482 322 l 1,21,-1
 482 256 l 1,16,-1
482 402 m 1,22,-1
 296 402 l 1,23,-1
 264 402 l 1,24,-1
 88 402 l 1,25,-1
 88 468 l 1,26,-1
 482 468 l 1,27,-1
 482 402 l 1,22,-1
EndSplineSet
Validated: 1
EndChar

StartChar: ellipsis
Encoding: 490 8230 234
Width: 744
GlyphClass: 2
Flags: W
LayerCount: 2
Fore
SplineSet
320 103 m 1,0,1
 352 92 352 92 354 59 c 0,2,3
 355 43 355 43 349 29 c 1,4,5
 332 1 332 1 301 0 c 1,6,-1
 294 0 l 2,7,8
 291 0 291 0 289 0 c 2,9,-1
 262 8 l 1,10,11
 232 27 232 27 232 59 c 0,12,13
 232 75 232 75 240 85 c 0,14,15
 258 108 258 108 289 108 c 2,16,-1
 293 108 l 2,17,18
 300 108 300 108 320 103 c 1,0,1
496 107 m 2,19,20
 506 107 506 107 514 103 c 1,21,22
 545 92 545 92 548 59 c 1,23,24
 548 41 548 41 542 29 c 0,25,26
 527 0 527 0 496 0 c 2,27,-1
 488 0 l 2,28,29
 485 0 485 0 483 0 c 0,30,31
 470 0 470 0 455 8 c 0,32,33
 425 26 425 26 425 59 c 0,34,35
 425 76 425 76 433 85 c 0,36,37
 451 106 451 106 475 109 c 1,38,-1
 496 107 l 2,19,20
695 107 m 1,39,-1
 709 103 l 1,40,41
 742 92 742 92 744 59 c 0,42,43
 745 44 745 44 738 29 c 0,44,45
 725 2 725 2 691 0 c 1,46,-1
 665 4 l 1,47,-1
 652 8 l 1,48,49
 623 26 623 26 623 46 c 0,50,51
 623 76 623 76 630 85 c 0,52,53
 649 109 649 109 674 109 c 2,54,-1
 678 109 l 1,55,-1
 695 107 l 1,39,-1
EndSplineSet
Validated: 1
EndChar

StartChar: perthousand
Encoding: 491 8240 235
Width: 900
GlyphClass: 2
Flags: W
LayerCount: 2
Fore
SplineSet
442 235 m 0,0,1
 402 235 402 235 380 202 c 0,2,3
 368 185 368 185 368 165 c 0,4,5
 368 163 368 163 368 162 c 0,6,7
 368 122 368 122 402 100 c 0,8,9
 420 88 420 88 443 88 c 0,10,11
 482 88 482 88 504 121 c 0,12,13
 516 138 516 138 516 158 c 0,14,15
 516 160 516 160 516 161 c 0,16,17
 516 202 516 202 481 224 c 0,18,19
 464 235 464 235 442 235 c 0,0,1
442 286 m 0,20,21
 504 286 504 286 541 238 c 0,22,23
 566 204 566 204 566 161 c 0,24,25
 566 104 566 104 520 66 c 0,26,27
 486 37 486 37 443 37 c 0,28,29
 383 37 383 37 345 84 c 1,30,31
 318 119 318 119 318 162 c 0,32,33
 318 220 318 220 364 258 c 0,34,35
 399 286 399 286 442 286 c 0,20,21
510 738 m 1,36,-1
 579 738 l 1,37,-1
 168 -20 l 1,38,-1
 100 -20 l 1,39,-1
 510 738 l 1,36,-1
207 608 m 0,40,41
 168 608 168 608 146 575 c 0,42,43
 134 558 134 558 134 538 c 0,44,45
 134 536 134 536 134 535 c 0,46,47
 134 496 134 496 167 473 c 1,48,49
 186 461 186 461 208 461 c 0,50,51
 247 461 247 461 269 494 c 0,52,53
 281 511 281 511 281 531 c 0,54,55
 281 533 281 533 281 534 c 0,56,57
 281 575 281 575 246 597 c 0,58,59
 229 608 229 608 207 608 c 0,40,41
207 659 m 0,60,61
 268 659 268 659 305 611 c 0,62,63
 332 577 332 577 332 533 c 0,64,65
 332 476 332 476 286 438 c 0,66,67
 251 410 251 410 208 410 c 0,68,69
 149 410 149 410 111 456 c 0,70,71
 83 491 83 491 83 535 c 0,72,73
 83 594 83 594 129 631 c 0,74,75
 164 659 164 659 207 659 c 0,60,61
775 226 m 0,76,77
 735 226 735 226 714 193 c 1,78,79
 701 175 701 175 701 153 c 0,80,81
 701 113 701 113 735 91 c 0,82,83
 753 79 753 79 776 79 c 0,84,85
 815 79 815 79 837 112 c 0,86,87
 849 129 849 129 849 148 c 0,88,89
 849 149 849 149 849 151 c 0,90,91
 849 192 849 192 814 214 c 1,92,93
 797 226 797 226 775 226 c 0,76,77
775 277 m 0,94,95
 837 277 837 277 874 228 c 0,96,97
 899 194 899 194 899 151 c 0,98,99
 899 94 899 94 854 57 c 0,100,101
 820 28 820 28 776 28 c 0,102,103
 716 28 716 28 679 74 c 0,104,105
 652 109 652 109 651 153 c 1,106,107
 652 211 652 211 698 249 c 0,108,109
 732 277 732 277 775 277 c 0,94,95
EndSplineSet
Validated: 1
EndChar

